M48
; DRILL file {KiCad 9.0.4} date 2026-03-17T23:28:10-0400
; FORMAT={-:-/ absolute / inch / decimal}
; #@! TF.CreationDate,2026-03-17T23:28:10-04:00
; #@! TF.GenerationSoftware,Kicad,Pcbnew,9.0.4
; #@! TF.FileFunction,Plated,1,4,PTH
FMAT,2
INCH
; #@! TA.AperFunction,Plated,PTH,ViaDrill
T1C0.0118
; #@! TA.AperFunction,Plated,PTH,ComponentDrill
T2C0.0118
%
G90
G05
T1
X6.9724Y-3.189
X6.9807Y-3.0256
X6.9841Y-2.9827
X6.9843Y-3.3701
X6.9921Y-3.2748
X6.9953Y-3.3004
X6.9957Y-3.2472
X6.9961Y-2.8819
X7.0008Y-3.0071
X7.0014Y-3.1215
X7.0031Y-3.1449
X7.0039Y-3.4134
X7.0075Y-3.0972
X7.0081Y-3.0496
X7.0081Y-3.2224
X7.0081Y-3.0737
X7.0085Y-3.1744
X7.0085Y-3.1984
X7.011Y-2.9417
X7.0199Y-3.3366
X7.0352Y-3.3573
X7.038Y-2.9237
X7.0402Y-2.8981
X7.0409Y-3.3806
X7.0591Y-3.4213
X7.0609Y-2.886
X7.0612Y-2.8583
X7.064Y-3.3871
X7.085Y-3.3987
X7.0852Y-3.2242
X7.0865Y-2.877
X7.0907Y-3.0672
X7.0907Y-3.1015
X7.0907Y-3.153
X7.0907Y-3.1893
X7.1065Y-3.4094
X7.1102Y-2.8727
X7.1283Y-3.4195
X7.1341Y-2.8701
X7.1957Y-3.4303
X7.1963Y-3.2657
X7.1996Y-3.3854
X7.2031Y-2.8553
X7.2187Y-2.998
X7.2187Y-3.0508
X7.2187Y-3.1287
X7.2187Y-3.1772
X7.2187Y-3.237
X7.2187Y-3.4041
X7.2193Y-2.8764
X7.2366Y-2.8969
X7.2392Y-3.2657
X7.3033Y-2.8681
X7.3093Y-3.4173
X7.3273Y-2.8703
X7.3336Y-3.4085
X7.3431Y-3.2087
X7.3435Y-3.2327
X7.3445Y-3.0898
X7.3484Y-3.1217
X7.3506Y-2.878
X7.3557Y-3.3992
X7.3718Y-2.8939
X7.3762Y-2.8583
X7.3793Y-3.3915
X7.3935Y-2.9043
X7.403Y-3.3877
X7.4099Y-2.9218
X7.4175Y-2.9449
X7.419Y-3.3698
X7.4224Y-3.0561
X7.4234Y-3.3307
X7.4244Y-3.3081
X7.4254Y-3.0951
X7.4271Y-3.2146
X7.4274Y-3.1873
X7.4343Y-3.2622
X7.4347Y-3.1157
X7.4354Y-3.024
X7.4359Y-3.2886
X7.437Y-3.1449
X7.4391Y-3.0714
X7.4413Y-2.9953
X7.4461Y-3.1689
X7.4522Y-3.0451
X7.4567Y-3.3189
X7.4602Y-2.9654
X7.4648Y-3.2547
T2
X7.1203Y-3.023
X7.1203Y-3.1451
X7.1203Y-3.2671
X7.3171Y-3.023
X7.3171Y-3.1451
X7.3171Y-3.2671
M30
