%TF.GenerationSoftware,KiCad,Pcbnew,9.0.4*%
%TF.CreationDate,2026-04-01T21:26:16-04:00*%
%TF.ProjectId,V3_COB_Original,56335f43-4f42-45f4-9f72-6967696e616c,rev?*%
%TF.SameCoordinates,Original*%
%TF.FileFunction,Paste,Bot*%
%TF.FilePolarity,Positive*%
%FSLAX46Y46*%
G04 Gerber Fmt 4.6, Leading zero omitted, Abs format (unit mm)*
G04 Created by KiCad (PCBNEW 9.0.4) date 2026-04-01 21:26:16*
%MOMM*%
%LPD*%
G01*
G04 APERTURE LIST*
%ADD10R,0.660000X0.200000*%
%ADD11R,0.660000X0.350000*%
G04 APERTURE END LIST*
D10*
%TO.C,J101*%
X184720000Y-73055000D03*
X184720000Y-73455000D03*
X184720000Y-73855000D03*
X184720000Y-74255000D03*
X184720000Y-74655000D03*
X184720000Y-75055000D03*
X184720000Y-75455000D03*
X184720000Y-75855000D03*
X184720000Y-76255000D03*
X184720000Y-76655000D03*
X184720000Y-77055000D03*
X184720000Y-77455000D03*
X184720000Y-77855000D03*
X184720000Y-78255000D03*
X184720000Y-78655000D03*
X184720000Y-79055000D03*
X184720000Y-79455000D03*
X184720000Y-79855000D03*
X184720000Y-80255000D03*
X184720000Y-80655000D03*
X184720000Y-81055000D03*
X184720000Y-81455000D03*
X184720000Y-81855000D03*
X184720000Y-82255000D03*
X184720000Y-82655000D03*
X184720000Y-83055000D03*
X184720000Y-83455000D03*
X184720000Y-83855000D03*
X184720000Y-84255000D03*
X184720000Y-84655000D03*
X184720000Y-85055000D03*
X184720000Y-85455000D03*
X184720000Y-85855000D03*
X184720000Y-86255000D03*
X184720000Y-86655000D03*
X182010000Y-86655000D03*
X182010000Y-86255000D03*
X182010000Y-85855000D03*
X182010000Y-85455000D03*
X182010000Y-85055000D03*
X182010000Y-84655000D03*
X182010000Y-84255000D03*
X182010000Y-83855000D03*
X182010000Y-83455000D03*
X182010000Y-83055000D03*
X182010000Y-82655000D03*
X182010000Y-82255000D03*
X182010000Y-81855000D03*
X182010000Y-81455000D03*
X182010000Y-81055000D03*
X182010000Y-80655000D03*
X182010000Y-80255000D03*
X182010000Y-79855000D03*
X182010000Y-79455000D03*
X182010000Y-79055000D03*
X182010000Y-78655000D03*
X182010000Y-78255000D03*
X182010000Y-77855000D03*
X182010000Y-77455000D03*
X182010000Y-77055000D03*
X182010000Y-76655000D03*
X182010000Y-76255000D03*
X182010000Y-75855000D03*
X182010000Y-75455000D03*
X182010000Y-75055000D03*
X182010000Y-74655000D03*
X182010000Y-74255000D03*
X182010000Y-73855000D03*
X182010000Y-73455000D03*
X182010000Y-73055000D03*
D11*
X184720000Y-72580000D03*
X182010000Y-72580000D03*
X184720000Y-87130000D03*
X182010000Y-87130000D03*
%TD*%
M02*
