%TF.GenerationSoftware,KiCad,Pcbnew,9.0.4*%
%TF.CreationDate,2026-03-27T20:09:31-04:00*%
%TF.ProjectId,V3_COB_Original,56335f43-4f42-45f4-9f72-6967696e616c,rev?*%
%TF.SameCoordinates,Original*%
%TF.FileFunction,Copper,L1,Top*%
%TF.FilePolarity,Positive*%
%FSLAX46Y46*%
G04 Gerber Fmt 4.6, Leading zero omitted, Abs format (unit mm)*
G04 Created by KiCad (PCBNEW 9.0.4) date 2026-03-27 20:09:31*
%MOMM*%
%LPD*%
G01*
G04 APERTURE LIST*
G04 Aperture macros list*
%AMRoundRect*
0 Rectangle with rounded corners*
0 $1 Rounding radius*
0 $2 $3 $4 $5 $6 $7 $8 $9 X,Y pos of 4 corners*
0 Add a 4 corners polygon primitive as box body*
4,1,4,$2,$3,$4,$5,$6,$7,$8,$9,$2,$3,0*
0 Add four circle primitives for the rounded corners*
1,1,$1+$1,$2,$3*
1,1,$1+$1,$4,$5*
1,1,$1+$1,$6,$7*
1,1,$1+$1,$8,$9*
0 Add four rect primitives between the rounded corners*
20,1,$1+$1,$2,$3,$4,$5,0*
20,1,$1+$1,$4,$5,$6,$7,0*
20,1,$1+$1,$6,$7,$8,$9,0*
20,1,$1+$1,$8,$9,$2,$3,0*%
G04 Aperture macros list end*
%TA.AperFunction,EtchedComponent*%
%ADD10C,0.000000*%
%TD*%
%TA.AperFunction,SMDPad,CuDef*%
%ADD11R,1.000000X0.250000*%
%TD*%
%TA.AperFunction,SMDPad,CuDef*%
%ADD12R,0.250000X1.000000*%
%TD*%
%TA.AperFunction,SMDPad,CuDef*%
%ADD13RoundRect,0.040000X1.960000X2.560000X-1.960000X2.560000X-1.960000X-2.560000X1.960000X-2.560000X0*%
%TD*%
%TA.AperFunction,ComponentPad*%
%ADD14C,0.500000*%
%TD*%
%TA.AperFunction,ViaPad*%
%ADD15C,0.450000*%
%TD*%
%TA.AperFunction,Conductor*%
%ADD16C,0.500000*%
%TD*%
%TA.AperFunction,Conductor*%
%ADD17C,0.200000*%
%TD*%
%TA.AperFunction,Conductor*%
%ADD18C,0.100000*%
%TD*%
G04 APERTURE END LIST*
D10*
%TA.AperFunction,EtchedComponent*%
%TO.C,U102*%
G36*
X179055000Y-74985000D02*
G01*
X179205000Y-74985000D01*
X179205000Y-75135000D01*
X179055000Y-75135000D01*
X179055000Y-75285000D01*
X178905000Y-75285000D01*
X178905000Y-75135000D01*
X178755000Y-75135000D01*
X178755000Y-74985000D01*
X178905000Y-74985000D01*
X178905000Y-74835000D01*
X179055000Y-74835000D01*
X179055000Y-74985000D01*
G37*
%TD.AperFunction*%
%TA.AperFunction,EtchedComponent*%
G36*
X187805000Y-84585000D02*
G01*
X187955000Y-84585000D01*
X187955000Y-84735000D01*
X187805000Y-84735000D01*
X187805000Y-84885000D01*
X187655000Y-84885000D01*
X187655000Y-84735000D01*
X187505000Y-84735000D01*
X187505000Y-84585000D01*
X187655000Y-84585000D01*
X187655000Y-84435000D01*
X187805000Y-84435000D01*
X187805000Y-84585000D01*
G37*
%TD.AperFunction*%
%TA.AperFunction,EtchedComponent*%
%TO.C,G\u002A\u002A\u002A*%
G36*
X189326134Y-72615432D02*
G01*
X189326524Y-72619852D01*
X189325832Y-72627724D01*
X189324015Y-72639461D01*
X189321028Y-72655476D01*
X189319207Y-72664596D01*
X189305683Y-72720969D01*
X189288053Y-72776679D01*
X189266197Y-72831951D01*
X189239999Y-72887014D01*
X189209338Y-72942095D01*
X189174097Y-72997422D01*
X189134157Y-73053223D01*
X189089400Y-73109724D01*
X189084382Y-73115748D01*
X189072268Y-73129710D01*
X189057249Y-73146213D01*
X189040154Y-73164411D01*
X189021809Y-73183459D01*
X189003043Y-73202511D01*
X188984681Y-73220722D01*
X188967552Y-73237245D01*
X188952484Y-73251235D01*
X188947191Y-73255957D01*
X188938188Y-73263715D01*
X188926898Y-73273211D01*
X188914161Y-73283762D01*
X188900815Y-73294689D01*
X188887699Y-73305307D01*
X188875651Y-73314938D01*
X188865511Y-73322897D01*
X188858117Y-73328505D01*
X188856478Y-73329684D01*
X188854947Y-73331111D01*
X188853589Y-73333429D01*
X188852309Y-73337176D01*
X188851012Y-73342886D01*
X188849602Y-73351097D01*
X188847983Y-73362344D01*
X188846060Y-73377163D01*
X188843737Y-73396092D01*
X188841890Y-73411501D01*
X188839536Y-73431144D01*
X188837316Y-73449474D01*
X188835314Y-73465809D01*
X188833614Y-73479469D01*
X188832301Y-73489771D01*
X188831459Y-73496037D01*
X188831266Y-73497301D01*
X188829216Y-73501981D01*
X188824186Y-73510171D01*
X188816425Y-73521512D01*
X188806179Y-73535643D01*
X188793696Y-73552205D01*
X188792327Y-73553992D01*
X188782457Y-73566848D01*
X188770089Y-73582968D01*
X188755788Y-73601613D01*
X188740119Y-73622045D01*
X188723648Y-73643528D01*
X188706940Y-73665324D01*
X188690562Y-73686694D01*
X188684801Y-73694212D01*
X188670446Y-73712904D01*
X188657014Y-73730312D01*
X188644817Y-73746038D01*
X188634167Y-73759683D01*
X188625376Y-73770850D01*
X188618755Y-73779141D01*
X188614616Y-73784156D01*
X188613285Y-73785547D01*
X188612458Y-73783260D01*
X188611537Y-73777011D01*
X188610658Y-73767872D01*
X188610185Y-73761094D01*
X188609790Y-73752620D01*
X188609354Y-73739910D01*
X188608896Y-73723765D01*
X188608437Y-73704989D01*
X188607996Y-73684383D01*
X188607594Y-73662749D01*
X188607361Y-73648342D01*
X188606993Y-73626194D01*
X188606573Y-73604304D01*
X188606120Y-73583522D01*
X188605656Y-73564699D01*
X188605201Y-73548689D01*
X188604775Y-73536341D01*
X188604536Y-73530927D01*
X188603053Y-73501697D01*
X188559846Y-73518795D01*
X188516639Y-73535893D01*
X188502947Y-73520309D01*
X188495794Y-73512451D01*
X188486220Y-73502338D01*
X188474910Y-73490654D01*
X188462548Y-73478084D01*
X188449818Y-73465312D01*
X188437407Y-73453022D01*
X188425997Y-73441898D01*
X188416273Y-73432625D01*
X188408922Y-73425886D01*
X188405851Y-73423278D01*
X188395847Y-73415310D01*
X188413740Y-73371202D01*
X188419172Y-73357459D01*
X188423641Y-73345458D01*
X188426904Y-73335915D01*
X188428717Y-73329543D01*
X188428838Y-73327058D01*
X188428784Y-73327048D01*
X188425790Y-73326949D01*
X188418235Y-73326682D01*
X188406592Y-73326264D01*
X188391334Y-73325713D01*
X188372935Y-73325045D01*
X188351870Y-73324277D01*
X188328611Y-73323428D01*
X188303634Y-73322513D01*
X188291136Y-73322055D01*
X188265431Y-73321114D01*
X188241161Y-73320230D01*
X188218809Y-73319420D01*
X188198857Y-73318702D01*
X188181787Y-73318092D01*
X188168080Y-73317608D01*
X188158219Y-73317267D01*
X188152686Y-73317087D01*
X188151719Y-73317062D01*
X188148271Y-73316081D01*
X188147939Y-73314863D01*
X188150100Y-73312901D01*
X188155916Y-73308248D01*
X188164990Y-73301199D01*
X188176929Y-73292050D01*
X188191337Y-73281094D01*
X188207817Y-73268626D01*
X188225976Y-73254943D01*
X188245418Y-73240338D01*
X188265747Y-73225107D01*
X188286568Y-73209545D01*
X188307486Y-73193947D01*
X188328106Y-73178607D01*
X188348032Y-73163820D01*
X188366869Y-73149882D01*
X188384222Y-73137088D01*
X188399695Y-73125732D01*
X188412893Y-73116110D01*
X188423421Y-73108516D01*
X188430884Y-73103245D01*
X188434886Y-73100593D01*
X188435439Y-73100331D01*
X188439994Y-73100049D01*
X188448544Y-73099259D01*
X188460378Y-73098045D01*
X188474783Y-73096489D01*
X188491048Y-73094676D01*
X188508458Y-73092689D01*
X188526304Y-73090611D01*
X188543871Y-73088525D01*
X188560448Y-73086516D01*
X188575322Y-73084666D01*
X188587782Y-73083060D01*
X188597115Y-73081780D01*
X188602608Y-73080910D01*
X188603781Y-73080606D01*
X188605839Y-73078080D01*
X188610369Y-73072430D01*
X188616712Y-73064483D01*
X188624208Y-73055062D01*
X188624554Y-73054626D01*
X188648963Y-73025098D01*
X188676463Y-72993907D01*
X188705988Y-72962163D01*
X188736470Y-72930974D01*
X188739557Y-72927973D01*
X188932130Y-72927973D01*
X188933331Y-72944392D01*
X188937553Y-72958972D01*
X188937809Y-72959542D01*
X188948280Y-72976525D01*
X188962519Y-72990647D01*
X188979750Y-73001220D01*
X188989063Y-73004901D01*
X188999287Y-73006554D01*
X189012173Y-73006216D01*
X189025856Y-73004109D01*
X189038471Y-73000454D01*
X189043108Y-72998459D01*
X189058899Y-72988057D01*
X189071192Y-72974245D01*
X189079659Y-72957533D01*
X189083969Y-72938429D01*
X189084273Y-72934853D01*
X189083262Y-72915089D01*
X189077859Y-72897226D01*
X189068508Y-72881769D01*
X189055654Y-72869224D01*
X189039741Y-72860095D01*
X189021213Y-72854887D01*
X189013168Y-72854014D01*
X188993204Y-72855089D01*
X188975161Y-72860747D01*
X188959390Y-72870782D01*
X188946243Y-72884990D01*
X188938677Y-72897532D01*
X188933921Y-72911694D01*
X188932130Y-72927973D01*
X188739557Y-72927973D01*
X188766844Y-72901448D01*
X188796043Y-72874694D01*
X188806392Y-72865670D01*
X188832669Y-72843867D01*
X188861658Y-72821139D01*
X188892156Y-72798362D01*
X188922958Y-72776411D01*
X188952862Y-72756159D01*
X188980662Y-72738483D01*
X188985283Y-72735683D01*
X189037214Y-72706644D01*
X189090458Y-72681055D01*
X189144172Y-72659272D01*
X189197509Y-72641651D01*
X189229202Y-72633169D01*
X189241795Y-72630221D01*
X189256103Y-72627052D01*
X189271176Y-72623852D01*
X189286064Y-72620812D01*
X189299817Y-72618121D01*
X189311484Y-72615970D01*
X189320115Y-72614550D01*
X189324709Y-72614050D01*
X189326134Y-72615432D01*
G37*
%TD.AperFunction*%
%TD*%
D11*
%TO.P,U102,1,GND*%
%TO.N,GND*%
X179055000Y-76085000D03*
%TO.P,U102,2,PIN2*%
%TO.N,/PIN 39*%
X179055000Y-76485000D03*
%TO.P,U102,3,PIN3*%
%TO.N,/PIN 40*%
X179055000Y-76885000D03*
%TO.P,U102,4,PIN4*%
%TO.N,/PIN 41*%
X179055000Y-77285000D03*
%TO.P,U102,5,PIN5*%
%TO.N,/PIN 42*%
X179055000Y-77685000D03*
%TO.P,U102,6,PIN6*%
%TO.N,/PIN 43*%
X179055000Y-78085000D03*
%TO.P,U102,7,PIN7*%
%TO.N,/PIN 44*%
X179055000Y-78485000D03*
%TO.P,U102,8,PIN8*%
%TO.N,/PIN 45*%
X179055000Y-78885000D03*
%TO.P,U102,9,PIN9*%
%TO.N,/PIN 46*%
X179055000Y-79285000D03*
%TO.P,U102,10,PIN10*%
%TO.N,/PIN 47*%
X179055000Y-79685000D03*
%TO.P,U102,11,PIN11*%
%TO.N,/PIN 48*%
X179055000Y-80085000D03*
%TO.P,U102,12,PIN12*%
%TO.N,/PIN 49*%
X179055000Y-80485000D03*
%TO.P,U102,13,PIN13*%
%TO.N,/PIN 50*%
X179055000Y-80885000D03*
%TO.P,U102,14,PIN14*%
%TO.N,/PIN 51*%
X179055000Y-81285000D03*
%TO.P,U102,15,PIN15*%
%TO.N,/PIN 52*%
X179055000Y-81685000D03*
%TO.P,U102,16,PIN16*%
%TO.N,/PIN 53*%
X179055000Y-82085000D03*
%TO.P,U102,17,PIN17*%
%TO.N,/PIN 54*%
X179055000Y-82485000D03*
%TO.P,U102,18,PIN18*%
%TO.N,/PIN 55*%
X179055000Y-82885000D03*
%TO.P,U102,19,PIN19*%
%TO.N,/PIN 56*%
X179055000Y-83285000D03*
%TO.P,U102,20,GND*%
%TO.N,GND*%
X179055000Y-83685000D03*
D12*
%TO.P,U102,21,PIN21*%
%TO.N,/PIN 58*%
X180155000Y-84585000D03*
%TO.P,U102,22,PIN22*%
%TO.N,/PIN 59*%
X180555000Y-84585000D03*
%TO.P,U102,23,PIN23*%
%TO.N,/PIN 60*%
X180955000Y-84585000D03*
%TO.P,U102,24,PIN24*%
%TO.N,/PIN 61*%
X181355000Y-84585000D03*
%TO.P,U102,25,PIN25*%
%TO.N,/PIN 62*%
X181755000Y-84585000D03*
%TO.P,U102,26,PIN26*%
%TO.N,/PIN 63*%
X182155000Y-84585000D03*
%TO.P,U102,27,PIN27*%
%TO.N,/PIN 64*%
X182555000Y-84585000D03*
%TO.P,U102,28,PIN28*%
%TO.N,/PIN 65*%
X182955000Y-84585000D03*
%TO.P,U102,29,VDD*%
%TO.N,/PIN 66*%
X183355000Y-84585000D03*
%TO.P,U102,30,VDD*%
%TO.N,/PIN 67*%
X183755000Y-84585000D03*
%TO.P,U102,31,PIN31*%
%TO.N,/PIN 68*%
X184155000Y-84585000D03*
%TO.P,U102,32,PIN32*%
%TO.N,/PIN 69*%
X184555000Y-84585000D03*
%TO.P,U102,33,PIN33*%
%TO.N,/PIN 70*%
X184955000Y-84585000D03*
%TO.P,U102,34,PIN34*%
%TO.N,/PIN 71*%
X185355000Y-84585000D03*
%TO.P,U102,35,PIN35*%
%TO.N,/PIN 72*%
X185755000Y-84585000D03*
%TO.P,U102,36,PIN36*%
%TO.N,/PIN 73*%
X186155000Y-84585000D03*
%TO.P,U102,37,PIN37*%
%TO.N,/PIN 74*%
X186555000Y-84585000D03*
D11*
%TO.P,U102,38,GND*%
%TO.N,GND*%
X187655000Y-83685000D03*
%TO.P,U102,39,PIN39*%
%TO.N,/PIN 2*%
X187655000Y-83285000D03*
%TO.P,U102,40,PIN40*%
%TO.N,/PIN 3*%
X187655000Y-82885000D03*
%TO.P,U102,41,PIN41*%
%TO.N,/PIN 4*%
X187655000Y-82485000D03*
%TO.P,U102,42,PIN42*%
%TO.N,/PIN 5*%
X187655000Y-82085000D03*
%TO.P,U102,43,PIN43*%
%TO.N,/PIN 6*%
X187655000Y-81685000D03*
%TO.P,U102,44,PIN44*%
%TO.N,/PIN 7*%
X187655000Y-81285000D03*
%TO.P,U102,45,PIN45*%
%TO.N,/PIN 8*%
X187655000Y-80885000D03*
%TO.P,U102,46,PIN46*%
%TO.N,/PIN 9*%
X187655000Y-80485000D03*
%TO.P,U102,47,PIN47*%
%TO.N,/PIN 10*%
X187655000Y-80085000D03*
%TO.P,U102,48,PIN48*%
%TO.N,/PIN 11*%
X187655000Y-79685000D03*
%TO.P,U102,49,PIN49*%
%TO.N,/PIN 12*%
X187655000Y-79285000D03*
%TO.P,U102,50,PIN50*%
%TO.N,/PIN 13*%
X187655000Y-78885000D03*
%TO.P,U102,51,PIN51*%
%TO.N,/PIN 14*%
X187655000Y-78485000D03*
%TO.P,U102,52,PIN52*%
%TO.N,/PIN 15*%
X187655000Y-78085000D03*
%TO.P,U102,53,PIN53*%
%TO.N,/PIN 16*%
X187655000Y-77685000D03*
%TO.P,U102,54,PIN54*%
%TO.N,/PIN 17*%
X187655000Y-77285000D03*
%TO.P,U102,55,PIN55*%
%TO.N,/PIN 18*%
X187655000Y-76885000D03*
%TO.P,U102,56,PIN56*%
%TO.N,/PIN 19*%
X187655000Y-76485000D03*
%TO.P,U102,57,GND*%
%TO.N,GND*%
X187655000Y-76085000D03*
D12*
%TO.P,U102,58,PIN58*%
%TO.N,/PIN 21*%
X186555000Y-75185000D03*
%TO.P,U102,59,PIN59*%
%TO.N,/PIN 22*%
X186155000Y-75185000D03*
%TO.P,U102,60,PIN60*%
%TO.N,/PIN 23*%
X185755000Y-75185000D03*
%TO.P,U102,61,PIN61*%
%TO.N,/PIN 24*%
X185355000Y-75185000D03*
%TO.P,U102,62,PIN62*%
%TO.N,/PIN 25*%
X184955000Y-75185000D03*
%TO.P,U102,63,PIN63*%
%TO.N,/PIN 26*%
X184555000Y-75185000D03*
%TO.P,U102,64,PIN64*%
%TO.N,/PIN 27*%
X184155000Y-75185000D03*
%TO.P,U102,65,PIN65*%
%TO.N,/PIN 28*%
X183755000Y-75185000D03*
%TO.P,U102,66,PIN66*%
%TO.N,VDD*%
X183355000Y-75185000D03*
%TO.P,U102,67,PIN67*%
X182955000Y-75185000D03*
%TO.P,U102,68,PIN68*%
%TO.N,/PIN 31*%
X182555000Y-75185000D03*
%TO.P,U102,69,PIN69*%
%TO.N,/PIN 32*%
X182155000Y-75185000D03*
%TO.P,U102,70,PIN70*%
%TO.N,/PIN 33*%
X181755000Y-75185000D03*
%TO.P,U102,71,PIN71*%
%TO.N,/PIN 34*%
X181355000Y-75185000D03*
%TO.P,U102,72,PIN72*%
%TO.N,/PIN 35*%
X180955000Y-75185000D03*
%TO.P,U102,73,PIN73*%
%TO.N,/PIN 36*%
X180555000Y-75185000D03*
%TO.P,U102,74,PIN74*%
%TO.N,/PIN 37*%
X180155000Y-75185000D03*
D13*
%TO.P,U102,75,GND*%
%TO.N,GND*%
X183355000Y-79885000D03*
D14*
%TO.P,U102,76,GND*%
X185855000Y-82985000D03*
%TO.P,U102,77,GND*%
X185855000Y-79885000D03*
%TO.P,U102,78,GND*%
X185855000Y-76785000D03*
%TO.P,U102,79,GND*%
X180855000Y-76785000D03*
%TO.P,U102,80,GND*%
X180855000Y-79885000D03*
%TO.P,U102,81,GND*%
X180855000Y-82985000D03*
%TD*%
D15*
%TO.N,GND*%
X188580000Y-86880000D03*
X189490000Y-75320000D03*
X183875000Y-82950000D03*
X177400000Y-85600000D03*
X183355000Y-79470000D03*
X189430000Y-81490000D03*
X183355000Y-77490000D03*
X187355000Y-72600000D03*
X177210000Y-80240000D03*
X189440000Y-85770000D03*
X177900000Y-86700000D03*
X177300000Y-74800000D03*
X179355000Y-72600000D03*
X182770000Y-87130000D03*
X183355000Y-80700000D03*
X179300000Y-86900000D03*
X183355000Y-82220000D03*
X182785000Y-82950000D03*
X183355000Y-76150000D03*
X188579446Y-84025518D03*
X177210000Y-78810000D03*
X177700000Y-73200000D03*
%TO.N,/PIN 46*%
X177964701Y-79114610D03*
%TO.N,/PIN 62*%
X180100000Y-86400000D03*
%TO.N,/PIN 58*%
X177850000Y-84520000D03*
%TO.N,/PIN 9*%
X189130000Y-80490000D03*
%TO.N,/PIN 19*%
X189010000Y-76080000D03*
%TO.N,/PIN 35*%
X178820297Y-73612076D03*
%TO.N,/PIN 67*%
X183760000Y-86470000D03*
%TO.N,/PIN 66*%
X183285000Y-86035000D03*
%TO.N,/PIN 15*%
X188953944Y-78013204D03*
%TO.N,/PIN 63*%
X180432043Y-86869441D03*
%TO.N,/PIN 55*%
X177652021Y-83167711D03*
%TO.N,/PIN 47*%
X177860000Y-79680000D03*
%TO.N,/PIN 13*%
X188605000Y-78615000D03*
%TO.N,/PIN 72*%
X188036249Y-86046712D03*
%TO.N,/PIN 21*%
X188405000Y-74800000D03*
%TO.N,/PIN 27*%
X185505000Y-72850000D03*
%TO.N,/PIN 3*%
X188830000Y-82860000D03*
%TO.N,/PIN 42*%
X179960000Y-77400000D03*
%TO.N,/PIN 34*%
X179347503Y-73305227D03*
%TO.N,/PIN 2*%
X189200000Y-83590000D03*
%TO.N,/PIN 32*%
X180598728Y-72967363D03*
%TO.N,/PIN 49*%
X178091000Y-80481000D03*
%TO.N,/PIN 54*%
X177583991Y-82509685D03*
%TO.N,/PIN 12*%
X186650000Y-79290000D03*
%TO.N,/PIN 31*%
X181205000Y-72900000D03*
%TO.N,/PIN 48*%
X179960000Y-80080000D03*
%TO.N,/PIN 16*%
X188530192Y-77624538D03*
%TO.N,/PIN 36*%
X178765000Y-74261000D03*
%TO.N,/PIN 68*%
X185655000Y-86800000D03*
%TO.N,/PIN 5*%
X186525000Y-82110000D03*
%TO.N,/PIN 11*%
X188840516Y-79139558D03*
%TO.N,/PIN 45*%
X177930000Y-78450000D03*
%TO.N,/PIN 52*%
X177930000Y-81380000D03*
%TO.N,VDD*%
X183355000Y-73105000D03*
%TO.N,/PIN 23*%
X187795039Y-73769164D03*
%TO.N,/PIN 26*%
X186112497Y-72905227D03*
%TO.N,/PIN 51*%
X180110000Y-81260000D03*
%TO.N,/PIN 24*%
X187244817Y-73505805D03*
%TO.N,/PIN 60*%
X178700000Y-85770000D03*
%TO.N,/PIN 56*%
X177980000Y-83640000D03*
%TO.N,/PIN 17*%
X189285000Y-77345000D03*
%TO.N,/PIN 8*%
X188656073Y-80957214D03*
%TO.N,/PIN 71*%
X187433954Y-86143378D03*
%TO.N,/PIN 70*%
X186835000Y-86340000D03*
%TO.N,/PIN 22*%
X188212103Y-74214316D03*
%TO.N,/PIN 41*%
X177650000Y-77280000D03*
%TO.N,/PIN 65*%
X182955000Y-85475000D03*
%TO.N,/PIN 18*%
X188860000Y-76810000D03*
%TO.N,/PIN 37*%
X178080000Y-74720000D03*
%TO.N,/PIN 61*%
X179463482Y-85970000D03*
%TO.N,/PIN 7*%
X188648380Y-81650000D03*
%TO.N,/PIN 25*%
X186705000Y-73100000D03*
%TO.N,/PIN 43*%
X177820000Y-77870267D03*
%TO.N,/PIN 59*%
X178270000Y-85090000D03*
%TO.N,/PIN 53*%
X177720000Y-81951000D03*
%TO.N,/PIN 50*%
X177600000Y-80890000D03*
%TO.N,/PIN 39*%
X177700000Y-75870000D03*
%TO.N,/PIN 28*%
X183810000Y-73580000D03*
%TO.N,/PIN 10*%
X188900000Y-79880000D03*
%TO.N,/PIN 64*%
X181180000Y-86850000D03*
%TO.N,/PIN 14*%
X186550000Y-78480000D03*
%TO.N,/PIN 4*%
X189605000Y-82670000D03*
%TO.N,/PIN 74*%
X188555000Y-84600000D03*
%TO.N,/PIN 33*%
X179998259Y-73074784D03*
%TO.N,/PIN 69*%
X186272589Y-86576213D03*
%TO.N,/PIN 73*%
X188443369Y-85592447D03*
%TO.N,/PIN 44*%
X180070000Y-78260000D03*
%TO.N,/PIN 40*%
X177770000Y-76610000D03*
%TO.N,/PIN 6*%
X186515000Y-81500000D03*
%TD*%
D16*
%TO.N,GND*%
X185855000Y-80400000D02*
X185855000Y-79850000D01*
D17*
X178765000Y-75760000D02*
X179055000Y-76050000D01*
D16*
X183355000Y-76800000D02*
X183305000Y-76750000D01*
D17*
X186555000Y-76085000D02*
X185855000Y-76785000D01*
X180855000Y-76785000D02*
X180155000Y-76085000D01*
D16*
X180855000Y-82450000D02*
X180855000Y-82950000D01*
D17*
X185976000Y-83071000D02*
X185855000Y-82950000D01*
X187655000Y-83685000D02*
X186555000Y-83685000D01*
X178760000Y-75760000D02*
X178300000Y-75300000D01*
X187655000Y-76085000D02*
X188420000Y-75320000D01*
D16*
X183355000Y-80700000D02*
X183355000Y-79470000D01*
X183355000Y-77490000D02*
X183355000Y-76800000D01*
D17*
X189490000Y-75320000D02*
X189540000Y-75320000D01*
D16*
X183355000Y-82220000D02*
X183355000Y-80700000D01*
D17*
X180155000Y-76085000D02*
X179055000Y-76085000D01*
D16*
X180855000Y-76750000D02*
X183305000Y-76750000D01*
D17*
X179055000Y-83685000D02*
X180155000Y-83685000D01*
D16*
X183355000Y-79470000D02*
X183355000Y-77490000D01*
D18*
X188569904Y-84015976D02*
X188569904Y-83844904D01*
D17*
X177800000Y-75300000D02*
X177300000Y-74800000D01*
X186555000Y-83685000D02*
X185855000Y-82985000D01*
D16*
X185855000Y-82950000D02*
X185855000Y-80400000D01*
D17*
X183355000Y-76700000D02*
X183305000Y-76750000D01*
D16*
X180855000Y-82950000D02*
X182785000Y-82950000D01*
X185855000Y-79850000D02*
X185855000Y-77250000D01*
D17*
X180155000Y-83685000D02*
X180855000Y-82985000D01*
D16*
X180855000Y-79850000D02*
X185855000Y-79850000D01*
D17*
X187655000Y-76085000D02*
X186555000Y-76085000D01*
D16*
X183305000Y-76750000D02*
X185855000Y-76750000D01*
D17*
X178300000Y-75300000D02*
X177800000Y-75300000D01*
X188238928Y-83685000D02*
X188579446Y-84025518D01*
X187655000Y-83685000D02*
X188238928Y-83685000D01*
X188420000Y-75320000D02*
X189490000Y-75320000D01*
D16*
X183355000Y-82950000D02*
X183355000Y-82220000D01*
X183875000Y-82950000D02*
X185855000Y-82950000D01*
D18*
X188579446Y-84025518D02*
X188569904Y-84015976D01*
D16*
X180855000Y-76750000D02*
X180855000Y-79850000D01*
X185855000Y-77250000D02*
X185855000Y-76750000D01*
X180855000Y-79850000D02*
X180855000Y-82450000D01*
X183355000Y-82950000D02*
X183875000Y-82950000D01*
D17*
X183355000Y-76150000D02*
X183355000Y-76700000D01*
D16*
X182785000Y-82950000D02*
X183355000Y-82950000D01*
D17*
X178765000Y-75760000D02*
X178760000Y-75760000D01*
D18*
%TO.N,/PIN 46*%
X178135091Y-79285000D02*
X177964701Y-79114610D01*
X179055000Y-79285000D02*
X178135091Y-79285000D01*
%TO.N,/PIN 62*%
X180350000Y-86150000D02*
X180100000Y-86400000D01*
X181755000Y-84550000D02*
X181755000Y-85220000D01*
X181755000Y-85220000D02*
X180825000Y-86150000D01*
X180825000Y-86150000D02*
X180350000Y-86150000D01*
%TO.N,/PIN 58*%
X177845000Y-84585000D02*
X177790000Y-84530000D01*
X180155000Y-84585000D02*
X177845000Y-84585000D01*
%TO.N,/PIN 9*%
X187655000Y-80485000D02*
X189125000Y-80485000D01*
X189125000Y-80485000D02*
X189130000Y-80490000D01*
%TO.N,/PIN 19*%
X188605000Y-76485000D02*
X189010000Y-76080000D01*
X187655000Y-76485000D02*
X188605000Y-76485000D01*
%TO.N,/PIN 35*%
X179017076Y-73612076D02*
X179405000Y-74000000D01*
X179405000Y-74000000D02*
X180525000Y-74000000D01*
X180955000Y-74430000D02*
X180955000Y-75150000D01*
X180525000Y-74000000D02*
X180955000Y-74430000D01*
X178820297Y-73612076D02*
X179017076Y-73612076D01*
%TO.N,/PIN 67*%
X183755000Y-84585000D02*
X183755000Y-86485000D01*
%TO.N,/PIN 66*%
X183285000Y-86035000D02*
X183270000Y-86050000D01*
X183355000Y-84585000D02*
X183355000Y-85965000D01*
X183355000Y-85965000D02*
X183285000Y-86035000D01*
%TO.N,/PIN 15*%
X187655000Y-78085000D02*
X187705000Y-78035000D01*
X188932148Y-78035000D02*
X188953944Y-78013204D01*
X187705000Y-78035000D02*
X188932148Y-78035000D01*
%TO.N,/PIN 63*%
X182155000Y-85185000D02*
X180470559Y-86869441D01*
X180470559Y-86869441D02*
X180432043Y-86869441D01*
X182155000Y-84585000D02*
X182155000Y-85185000D01*
%TO.N,/PIN 55*%
X177865000Y-82885000D02*
X179055000Y-82885000D01*
X177652021Y-83097979D02*
X177865000Y-82885000D01*
%TO.N,/PIN 47*%
X179055000Y-79685000D02*
X177865000Y-79685000D01*
X177865000Y-79685000D02*
X177860000Y-79680000D01*
%TO.N,/PIN 13*%
X187655000Y-78885000D02*
X188335000Y-78885000D01*
X188335000Y-78885000D02*
X188605000Y-78615000D01*
%TO.N,/PIN 72*%
X188036249Y-86046712D02*
X188036249Y-85978254D01*
X187624995Y-85567000D02*
X185822000Y-85567000D01*
X185755000Y-85500000D02*
X185755000Y-84550000D01*
X188036249Y-85978254D02*
X187624995Y-85567000D01*
X185822000Y-85567000D02*
X185755000Y-85500000D01*
%TO.N,/PIN 21*%
X187005000Y-75150000D02*
X187355000Y-74800000D01*
X187355000Y-74800000D02*
X188405000Y-74800000D01*
X186555000Y-75150000D02*
X187005000Y-75150000D01*
%TO.N,/PIN 27*%
X185505000Y-72850000D02*
X185105000Y-72850000D01*
X185105000Y-72850000D02*
X184155000Y-73800000D01*
X184155000Y-73800000D02*
X184155000Y-75150000D01*
%TO.N,/PIN 3*%
X187655000Y-82885000D02*
X188805000Y-82885000D01*
%TO.N,/PIN 42*%
X179675000Y-77685000D02*
X179960000Y-77400000D01*
X179055000Y-77685000D02*
X179675000Y-77685000D01*
%TO.N,/PIN 34*%
X180625000Y-73700000D02*
X180805000Y-73880000D01*
X181124000Y-73880000D02*
X181355000Y-74111000D01*
X180805000Y-73880000D02*
X181124000Y-73880000D01*
X179410227Y-73305227D02*
X179805000Y-73700000D01*
X179347503Y-73305227D02*
X179410227Y-73305227D01*
X181355000Y-74111000D02*
X181355000Y-75150000D01*
X179805000Y-73700000D02*
X180625000Y-73700000D01*
%TO.N,/PIN 2*%
X189200000Y-83590000D02*
X189140704Y-83530704D01*
X188615704Y-83530704D02*
X188335000Y-83250000D01*
X188335000Y-83250000D02*
X187655000Y-83250000D01*
X189140704Y-83530704D02*
X188615704Y-83530704D01*
%TO.N,/PIN 32*%
X182155000Y-73619110D02*
X182155000Y-75150000D01*
X180598728Y-72967363D02*
X180550477Y-73015614D01*
X180550477Y-73015614D02*
X180690614Y-73015614D01*
X181875890Y-73340000D02*
X182155000Y-73619110D01*
X180690614Y-73015614D02*
X181015000Y-73340000D01*
X181015000Y-73340000D02*
X181875890Y-73340000D01*
%TO.N,/PIN 49*%
X178095000Y-80485000D02*
X179055000Y-80485000D01*
X178091000Y-80481000D02*
X178095000Y-80485000D01*
%TO.N,/PIN 54*%
X177608676Y-82485000D02*
X179055000Y-82485000D01*
%TO.N,/PIN 12*%
X187655000Y-79285000D02*
X186655000Y-79285000D01*
%TO.N,/PIN 31*%
X181205000Y-72900000D02*
X181255000Y-72950000D01*
X182555000Y-73650000D02*
X182555000Y-75150000D01*
X181255000Y-72950000D02*
X181855000Y-72950000D01*
X181855000Y-72950000D02*
X182555000Y-73650000D01*
%TO.N,/PIN 48*%
X179055000Y-80085000D02*
X179955000Y-80085000D01*
X179090000Y-80085000D02*
X179055000Y-80050000D01*
X179955000Y-80085000D02*
X179960000Y-80080000D01*
%TO.N,/PIN 16*%
X188469730Y-77685000D02*
X188530192Y-77624538D01*
X187655000Y-77685000D02*
X188469730Y-77685000D01*
%TO.N,/PIN 36*%
X180406000Y-74261000D02*
X180555000Y-74410000D01*
X178765000Y-74261000D02*
X180406000Y-74261000D01*
X180555000Y-74410000D02*
X180555000Y-75150000D01*
%TO.N,/PIN 68*%
X184155000Y-84550000D02*
X184155000Y-85800000D01*
X185155000Y-86800000D02*
X185655000Y-86800000D01*
X184155000Y-85800000D02*
X185155000Y-86800000D01*
%TO.N,/PIN 5*%
X186585000Y-82050000D02*
X186525000Y-82110000D01*
X187655000Y-82050000D02*
X186585000Y-82050000D01*
%TO.N,/PIN 11*%
X187655000Y-79685000D02*
X188295074Y-79685000D01*
X188295074Y-79685000D02*
X188840516Y-79139558D01*
%TO.N,/PIN 45*%
X178330000Y-78850000D02*
X179055000Y-78850000D01*
X178330000Y-78850000D02*
X177930000Y-78450000D01*
X177930000Y-78450000D02*
X177870000Y-78390000D01*
%TO.N,/PIN 52*%
X178115000Y-81685000D02*
X177930000Y-81500000D01*
X177930000Y-81500000D02*
X177930000Y-81380000D01*
X178115000Y-81685000D02*
X179055000Y-81685000D01*
D17*
%TO.N,VDD*%
X182955000Y-75185000D02*
X182955000Y-73505000D01*
D18*
X182891000Y-75086000D02*
X182955000Y-75150000D01*
D17*
X182955000Y-73505000D02*
X183355000Y-73105000D01*
X183355000Y-73105000D02*
X183355000Y-75185000D01*
D18*
%TO.N,/PIN 23*%
X185755000Y-74550000D02*
X186355000Y-73950000D01*
X187614203Y-73950000D02*
X187795039Y-73769164D01*
X186355000Y-73950000D02*
X187614203Y-73950000D01*
X185755000Y-75185000D02*
X185755000Y-74550000D01*
%TO.N,/PIN 26*%
X185305000Y-73300000D02*
X184555000Y-74050000D01*
X186112497Y-72905227D02*
X186099773Y-72905227D01*
X185705000Y-73300000D02*
X185305000Y-73300000D01*
X186099773Y-72905227D02*
X185705000Y-73300000D01*
X184555000Y-74050000D02*
X184555000Y-75150000D01*
%TO.N,/PIN 51*%
X179055000Y-81285000D02*
X180085000Y-81285000D01*
%TO.N,/PIN 24*%
X186571883Y-73602227D02*
X186574110Y-73600000D01*
X185574110Y-73900000D02*
X185955000Y-73900000D01*
X185355000Y-75150000D02*
X185355000Y-74119110D01*
X186252773Y-73602227D02*
X186571883Y-73602227D01*
X187150622Y-73600000D02*
X187244817Y-73505805D01*
X185955000Y-73900000D02*
X186252773Y-73602227D01*
X186574110Y-73600000D02*
X187150622Y-73600000D01*
X185355000Y-74119110D02*
X185574110Y-73900000D01*
%TO.N,/PIN 60*%
X178920000Y-85550000D02*
X178700000Y-85770000D01*
X180955000Y-85295000D02*
X180700000Y-85550000D01*
X180955000Y-84550000D02*
X180955000Y-85295000D01*
X180700000Y-85550000D02*
X178920000Y-85550000D01*
%TO.N,/PIN 56*%
X179055000Y-83285000D02*
X179049000Y-83291000D01*
X179055000Y-83285000D02*
X178335000Y-83285000D01*
X178335000Y-83285000D02*
X177980000Y-83640000D01*
%TO.N,/PIN 17*%
X189163538Y-77223538D02*
X189285000Y-77345000D01*
X187655000Y-77285000D02*
X187716462Y-77223538D01*
X187716462Y-77223538D02*
X189163538Y-77223538D01*
%TO.N,/PIN 8*%
X188656073Y-80957214D02*
X188656073Y-80945486D01*
X188656073Y-80945486D02*
X188560587Y-80850000D01*
X188560587Y-80850000D02*
X187655000Y-80850000D01*
%TO.N,/PIN 71*%
X187433954Y-86143378D02*
X187355135Y-86143378D01*
X187039757Y-85828000D02*
X185483000Y-85828000D01*
X185483000Y-85828000D02*
X185355000Y-85700000D01*
X185355000Y-85700000D02*
X185355000Y-84550000D01*
X187355135Y-86143378D02*
X187039757Y-85828000D01*
%TO.N,/PIN 70*%
X184955000Y-85780890D02*
X184955000Y-84550000D01*
X186835000Y-86340000D02*
X186755125Y-86340000D01*
X186755125Y-86340000D02*
X186504125Y-86089000D01*
X185263110Y-86089000D02*
X184955000Y-85780890D01*
X186504125Y-86089000D02*
X185263110Y-86089000D01*
%TO.N,/PIN 22*%
X186505000Y-74300000D02*
X188126419Y-74300000D01*
X186155000Y-75185000D02*
X186155000Y-74650000D01*
X186155000Y-74650000D02*
X186505000Y-74300000D01*
X188126419Y-74300000D02*
X188212103Y-74214316D01*
%TO.N,/PIN 41*%
X177655000Y-77285000D02*
X177650000Y-77280000D01*
X179055000Y-77285000D02*
X177655000Y-77285000D01*
%TO.N,/PIN 65*%
X182960000Y-85480000D02*
X182955000Y-85475000D01*
X182955000Y-84585000D02*
X182955000Y-85475000D01*
%TO.N,/PIN 18*%
X188785000Y-76885000D02*
X188860000Y-76810000D01*
X187655000Y-76885000D02*
X188785000Y-76885000D01*
%TO.N,/PIN 37*%
X178796000Y-75436000D02*
X178080000Y-74720000D01*
X179904000Y-75436000D02*
X178796000Y-75436000D01*
X180155000Y-75185000D02*
X179904000Y-75436000D01*
%TO.N,/PIN 61*%
X181355000Y-84550000D02*
X181355000Y-85170000D01*
X180585256Y-85949000D02*
X179484482Y-85949000D01*
X179484482Y-85949000D02*
X179463482Y-85970000D01*
X181355000Y-85179256D02*
X180585256Y-85949000D01*
X181355000Y-85170000D02*
X181355000Y-85179256D01*
%TO.N,/PIN 7*%
X188648380Y-81567168D02*
X188655286Y-81560262D01*
X188655286Y-81560262D02*
X188565262Y-81560262D01*
X188648380Y-81650000D02*
X188648380Y-81567168D01*
X188255000Y-81250000D02*
X187655000Y-81250000D01*
X188565262Y-81560262D02*
X188255000Y-81250000D01*
%TO.N,/PIN 25*%
X185805000Y-73600000D02*
X185505000Y-73600000D01*
X186063773Y-73341227D02*
X185805000Y-73600000D01*
X186463773Y-73341227D02*
X186063773Y-73341227D01*
X185505000Y-73600000D02*
X184955000Y-74150000D01*
X184955000Y-74150000D02*
X184955000Y-75150000D01*
X186705000Y-73100000D02*
X186463773Y-73341227D01*
%TO.N,/PIN 43*%
X178240267Y-77870267D02*
X177820000Y-77870267D01*
X178455000Y-78085000D02*
X178240267Y-77870267D01*
X179055000Y-78085000D02*
X178455000Y-78085000D01*
%TO.N,/PIN 59*%
X178419000Y-85289000D02*
X178250000Y-85120000D01*
X180555000Y-85150000D02*
X180416000Y-85289000D01*
X178760000Y-85289000D02*
X178419000Y-85289000D01*
X180066000Y-85289000D02*
X178760000Y-85289000D01*
X180555000Y-84550000D02*
X180555000Y-85150000D01*
X180416000Y-85289000D02*
X180066000Y-85289000D01*
%TO.N,/PIN 53*%
X177854000Y-82085000D02*
X177720000Y-81951000D01*
X179055000Y-82085000D02*
X177854000Y-82085000D01*
%TO.N,/PIN 50*%
X178305000Y-80885000D02*
X179055000Y-80885000D01*
X178300000Y-80890000D02*
X178305000Y-80885000D01*
X177600000Y-80890000D02*
X178300000Y-80890000D01*
%TO.N,/PIN 39*%
X178335000Y-76485000D02*
X177720000Y-75870000D01*
X179055000Y-76485000D02*
X178335000Y-76485000D01*
X177720000Y-75870000D02*
X177700000Y-75870000D01*
%TO.N,/PIN 28*%
X183755000Y-75185000D02*
X183755000Y-73635000D01*
X183755000Y-73635000D02*
X183810000Y-73580000D01*
%TO.N,/PIN 10*%
X187655000Y-80085000D02*
X188695000Y-80085000D01*
X188695000Y-80085000D02*
X188900000Y-79880000D01*
%TO.N,/PIN 64*%
X182555000Y-85475000D02*
X181180000Y-86850000D01*
X182555000Y-84585000D02*
X182555000Y-85475000D01*
%TO.N,/PIN 14*%
X187655000Y-78485000D02*
X186555000Y-78485000D01*
X186555000Y-78485000D02*
X186550000Y-78480000D01*
%TO.N,/PIN 4*%
X188255000Y-82485000D02*
X188440000Y-82300000D01*
X188440000Y-82300000D02*
X189235000Y-82300000D01*
X189235000Y-82300000D02*
X189605000Y-82670000D01*
X187655000Y-82485000D02*
X188255000Y-82485000D01*
%TO.N,/PIN 74*%
X186555000Y-84550000D02*
X187055000Y-84550000D01*
X187055000Y-84550000D02*
X187416000Y-84189000D01*
X188144000Y-84189000D02*
X188555000Y-84600000D01*
X187416000Y-84189000D02*
X188144000Y-84189000D01*
%TO.N,/PIN 33*%
X181566000Y-73611000D02*
X181755000Y-73800000D01*
X179998259Y-73074784D02*
X179999784Y-73074784D01*
X181755000Y-73800000D02*
X181755000Y-75150000D01*
X180719129Y-73413239D02*
X180754000Y-73448110D01*
X180338239Y-73413239D02*
X180719129Y-73413239D01*
X179999784Y-73074784D02*
X180338239Y-73413239D01*
X180906890Y-73601000D02*
X180916000Y-73601000D01*
X180926000Y-73611000D02*
X181566000Y-73611000D01*
X180754000Y-73448110D02*
X180906890Y-73601000D01*
X180916000Y-73601000D02*
X180926000Y-73611000D01*
%TO.N,/PIN 69*%
X186081213Y-86576213D02*
X185865000Y-86360000D01*
X186272589Y-86576213D02*
X186081213Y-86576213D01*
X185165000Y-86360000D02*
X184555000Y-85750000D01*
X184555000Y-85750000D02*
X184555000Y-84550000D01*
X185865000Y-86360000D02*
X185165000Y-86360000D01*
%TO.N,/PIN 73*%
X186155000Y-85210000D02*
X186251000Y-85306000D01*
X186155000Y-84550000D02*
X186155000Y-85210000D01*
X188156922Y-85306000D02*
X188443369Y-85592447D01*
X186251000Y-85306000D02*
X188156922Y-85306000D01*
%TO.N,/PIN 44*%
X179055000Y-78485000D02*
X179845000Y-78485000D01*
X179845000Y-78485000D02*
X180070000Y-78260000D01*
%TO.N,/PIN 40*%
X179055000Y-76885000D02*
X178045000Y-76885000D01*
X178045000Y-76885000D02*
X177770000Y-76610000D01*
%TO.N,/PIN 6*%
X186640000Y-81650000D02*
X187655000Y-81650000D01*
X186515000Y-81525000D02*
X186640000Y-81650000D01*
X186515000Y-81500000D02*
X186515000Y-81525000D01*
%TD*%
%TA.AperFunction,Conductor*%
%TO.N,GND*%
G36*
X181051333Y-72300987D02*
G01*
X181053006Y-72300545D01*
X181084730Y-72310794D01*
X181116711Y-72320185D01*
X181117844Y-72321492D01*
X181119492Y-72322025D01*
X181140650Y-72347812D01*
X181162466Y-72372989D01*
X181162712Y-72374700D01*
X181163810Y-72376039D01*
X181167665Y-72409148D01*
X181172410Y-72442147D01*
X181171690Y-72443721D01*
X181171891Y-72445440D01*
X181157236Y-72475372D01*
X181143385Y-72505703D01*
X181141928Y-72506638D01*
X181141168Y-72508193D01*
X181113883Y-72530580D01*
X181098799Y-72539710D01*
X181060062Y-72550090D01*
X180974438Y-72599525D01*
X180935263Y-72638699D01*
X180922413Y-72646478D01*
X180854868Y-72664353D01*
X180796203Y-72647785D01*
X180743666Y-72617453D01*
X180648163Y-72591863D01*
X180549293Y-72591863D01*
X180453790Y-72617453D01*
X180453788Y-72617454D01*
X180453787Y-72617454D01*
X180368164Y-72666889D01*
X180316339Y-72718714D01*
X180255016Y-72752198D01*
X180185324Y-72747213D01*
X180166661Y-72738420D01*
X180143201Y-72724876D01*
X180143199Y-72724875D01*
X180143197Y-72724874D01*
X180047694Y-72699284D01*
X179948824Y-72699284D01*
X179853321Y-72724874D01*
X179853319Y-72724875D01*
X179853318Y-72724875D01*
X179767695Y-72774310D01*
X179697785Y-72844220D01*
X179660341Y-72909074D01*
X179609773Y-72957288D01*
X179541166Y-72970510D01*
X179500350Y-72957462D01*
X179499951Y-72958428D01*
X179492444Y-72955319D01*
X179492441Y-72955317D01*
X179396938Y-72929727D01*
X179298068Y-72929727D01*
X179202565Y-72955317D01*
X179202563Y-72955318D01*
X179202562Y-72955318D01*
X179116939Y-73004753D01*
X179047029Y-73074663D01*
X178997591Y-73160292D01*
X178997423Y-73160698D01*
X178997189Y-73160987D01*
X178993529Y-73167328D01*
X178992539Y-73166756D01*
X178953577Y-73215097D01*
X178887281Y-73237156D01*
X178875104Y-73236576D01*
X178869732Y-73236576D01*
X178770862Y-73236576D01*
X178675359Y-73262166D01*
X178675357Y-73262167D01*
X178675356Y-73262167D01*
X178589733Y-73311602D01*
X178519823Y-73381512D01*
X178470388Y-73467135D01*
X178470388Y-73467136D01*
X178470387Y-73467138D01*
X178444797Y-73562641D01*
X178444797Y-73661511D01*
X178470387Y-73757014D01*
X178470388Y-73757015D01*
X178470388Y-73757016D01*
X178498630Y-73805933D01*
X178519071Y-73841338D01*
X178520747Y-73844240D01*
X178537220Y-73912140D01*
X178514367Y-73978167D01*
X178501042Y-73993920D01*
X178464526Y-74030436D01*
X178415091Y-74116059D01*
X178415091Y-74116060D01*
X178415090Y-74116062D01*
X178389500Y-74211565D01*
X178389500Y-74211567D01*
X178389500Y-74252674D01*
X178369815Y-74319713D01*
X178317011Y-74365468D01*
X178247853Y-74375412D01*
X178233013Y-74371351D01*
X178232788Y-74372194D01*
X178224939Y-74370091D01*
X178224938Y-74370090D01*
X178129435Y-74344500D01*
X178030565Y-74344500D01*
X177935062Y-74370090D01*
X177935060Y-74370091D01*
X177935059Y-74370091D01*
X177849436Y-74419526D01*
X177779526Y-74489436D01*
X177730091Y-74575059D01*
X177730091Y-74575060D01*
X177730090Y-74575062D01*
X177704500Y-74670565D01*
X177704500Y-74769435D01*
X177730090Y-74864938D01*
X177779525Y-74950562D01*
X177849438Y-75020475D01*
X177935062Y-75069910D01*
X178030565Y-75095500D01*
X178030567Y-75095500D01*
X178120588Y-75095500D01*
X178150028Y-75104144D01*
X178180015Y-75110668D01*
X178185030Y-75114422D01*
X178187627Y-75115185D01*
X178208269Y-75131819D01*
X178380547Y-75304097D01*
X178414032Y-75365420D01*
X178409048Y-75435112D01*
X178367176Y-75491045D01*
X178336201Y-75507959D01*
X178312916Y-75516644D01*
X178312906Y-75516649D01*
X178197812Y-75602809D01*
X178197810Y-75602811D01*
X178183405Y-75622054D01*
X178127470Y-75663924D01*
X178057779Y-75668906D01*
X177996459Y-75635422D01*
X177930563Y-75569526D01*
X177930562Y-75569525D01*
X177844938Y-75520090D01*
X177749435Y-75494500D01*
X177650565Y-75494500D01*
X177555062Y-75520090D01*
X177555060Y-75520091D01*
X177555059Y-75520091D01*
X177469436Y-75569526D01*
X177399526Y-75639436D01*
X177350091Y-75725059D01*
X177350091Y-75725060D01*
X177350090Y-75725062D01*
X177324500Y-75820565D01*
X177324500Y-75919435D01*
X177350090Y-76014938D01*
X177399525Y-76100562D01*
X177469438Y-76170475D01*
X177469444Y-76170478D01*
X177475543Y-76175158D01*
X177516749Y-76231584D01*
X177520908Y-76301329D01*
X177487745Y-76361217D01*
X177469526Y-76379436D01*
X177420091Y-76465059D01*
X177420091Y-76465060D01*
X177420090Y-76465062D01*
X177394500Y-76560565D01*
X177394500Y-76659435D01*
X177420090Y-76754938D01*
X177420091Y-76754939D01*
X177420091Y-76754940D01*
X177455374Y-76816052D01*
X177471847Y-76883952D01*
X177448994Y-76949979D01*
X177423480Y-76976423D01*
X177419438Y-76979524D01*
X177349526Y-77049436D01*
X177300091Y-77135059D01*
X177300091Y-77135060D01*
X177300090Y-77135062D01*
X177274500Y-77230565D01*
X177274500Y-77329435D01*
X177300090Y-77424938D01*
X177335055Y-77485500D01*
X177349526Y-77510563D01*
X177419438Y-77580475D01*
X177425884Y-77585421D01*
X177424132Y-77587703D01*
X177462765Y-77628205D01*
X177476000Y-77696810D01*
X177470972Y-77717151D01*
X177472194Y-77717479D01*
X177470091Y-77725327D01*
X177470090Y-77725329D01*
X177444500Y-77820832D01*
X177444500Y-77919702D01*
X177470090Y-78015205D01*
X177470091Y-78015206D01*
X177470091Y-78015207D01*
X177519526Y-78100830D01*
X177565395Y-78146699D01*
X177598880Y-78208022D01*
X177593896Y-78277714D01*
X177585106Y-78296372D01*
X177580092Y-78305057D01*
X177580090Y-78305060D01*
X177580090Y-78305062D01*
X177554500Y-78400565D01*
X177554500Y-78499435D01*
X177580090Y-78594938D01*
X177580091Y-78594939D01*
X177580091Y-78594940D01*
X177629526Y-78680563D01*
X177660937Y-78711974D01*
X177694422Y-78773297D01*
X177689438Y-78842989D01*
X177667852Y-78876583D01*
X177669175Y-78877598D01*
X177664228Y-78884044D01*
X177614792Y-78969669D01*
X177614792Y-78969670D01*
X177614791Y-78969672D01*
X177589201Y-79065175D01*
X177589201Y-79164045D01*
X177614791Y-79259548D01*
X177614792Y-79259549D01*
X177614793Y-79259552D01*
X177616491Y-79262493D01*
X177617169Y-79265289D01*
X177617902Y-79267058D01*
X177617626Y-79267172D01*
X177632965Y-79330393D01*
X177610113Y-79396420D01*
X177596788Y-79412173D01*
X177559526Y-79449436D01*
X177510091Y-79535059D01*
X177510091Y-79535060D01*
X177510090Y-79535062D01*
X177484500Y-79630565D01*
X177484500Y-79729435D01*
X177510090Y-79824938D01*
X177559525Y-79910562D01*
X177629438Y-79980475D01*
X177715062Y-80029910D01*
X177741047Y-80036872D01*
X177800707Y-80073237D01*
X177831236Y-80136084D01*
X177822941Y-80205459D01*
X177796638Y-80244325D01*
X177790525Y-80250437D01*
X177741091Y-80336059D01*
X177741090Y-80336060D01*
X177717904Y-80422594D01*
X177681539Y-80482254D01*
X177618691Y-80512783D01*
X177598129Y-80514500D01*
X177550565Y-80514500D01*
X177455062Y-80540090D01*
X177455060Y-80540091D01*
X177455059Y-80540091D01*
X177369436Y-80589526D01*
X177299526Y-80659436D01*
X177250091Y-80745059D01*
X177250091Y-80745060D01*
X177250090Y-80745062D01*
X177224500Y-80840565D01*
X177224500Y-80939435D01*
X177250090Y-81034938D01*
X177299525Y-81120562D01*
X177369438Y-81190475D01*
X177455062Y-81239910D01*
X177462591Y-81241927D01*
X177479594Y-81252290D01*
X177498643Y-81258104D01*
X177508818Y-81270102D01*
X177522251Y-81278289D01*
X177530952Y-81296199D01*
X177543835Y-81311390D01*
X177548095Y-81331487D01*
X177552782Y-81341135D01*
X177553418Y-81345358D01*
X177554500Y-81353495D01*
X177554500Y-81429435D01*
X177574542Y-81504236D01*
X177575604Y-81512216D01*
X177571445Y-81539107D01*
X177570798Y-81566317D01*
X177566184Y-81573133D01*
X177564927Y-81581265D01*
X177546889Y-81601640D01*
X177531635Y-81624179D01*
X177519445Y-81632643D01*
X177518615Y-81633581D01*
X177517738Y-81633828D01*
X177514690Y-81635945D01*
X177489436Y-81650526D01*
X177419526Y-81720436D01*
X177370091Y-81806059D01*
X177370091Y-81806060D01*
X177370090Y-81806062D01*
X177344500Y-81901565D01*
X177344500Y-81901567D01*
X177344500Y-82000434D01*
X177371977Y-82102980D01*
X177370314Y-82172830D01*
X177339885Y-82222753D01*
X177283516Y-82279123D01*
X177234082Y-82364744D01*
X177234082Y-82364745D01*
X177234081Y-82364747D01*
X177208491Y-82460250D01*
X177208491Y-82559120D01*
X177234081Y-82654623D01*
X177268975Y-82715062D01*
X177283517Y-82740248D01*
X177331436Y-82788167D01*
X177364921Y-82849490D01*
X177359937Y-82919182D01*
X177351142Y-82937848D01*
X177302112Y-83022770D01*
X177302112Y-83022771D01*
X177302111Y-83022773D01*
X177276521Y-83118276D01*
X177276521Y-83217146D01*
X177302111Y-83312649D01*
X177351546Y-83398273D01*
X177421459Y-83468186D01*
X177507083Y-83517621D01*
X177512594Y-83519097D01*
X177572254Y-83555462D01*
X177602783Y-83618308D01*
X177604500Y-83638872D01*
X177604500Y-83689435D01*
X177630090Y-83784938D01*
X177672182Y-83857844D01*
X177679526Y-83870563D01*
X177749438Y-83940475D01*
X177755884Y-83945421D01*
X177754775Y-83946866D01*
X177795969Y-83990067D01*
X177809193Y-84058674D01*
X177783226Y-84123539D01*
X177726313Y-84164068D01*
X177717851Y-84166663D01*
X177705063Y-84170089D01*
X177705059Y-84170091D01*
X177619436Y-84219526D01*
X177549526Y-84289436D01*
X177500091Y-84375059D01*
X177500091Y-84375060D01*
X177500090Y-84375062D01*
X177474500Y-84470565D01*
X177474500Y-84569435D01*
X177500090Y-84664938D01*
X177549525Y-84750562D01*
X177619438Y-84820475D01*
X177705062Y-84869910D01*
X177800565Y-84895500D01*
X177800567Y-84895500D01*
X177804706Y-84896609D01*
X177864367Y-84932974D01*
X177894896Y-84995821D01*
X177895553Y-85032565D01*
X177894500Y-85040565D01*
X177894500Y-85139435D01*
X177920090Y-85234938D01*
X177969525Y-85320562D01*
X178039438Y-85390475D01*
X178125062Y-85439910D01*
X178220565Y-85465500D01*
X178220567Y-85465500D01*
X178231245Y-85465500D01*
X178298284Y-85485185D01*
X178344039Y-85537989D01*
X178353983Y-85607147D01*
X178351020Y-85621594D01*
X178350091Y-85625059D01*
X178350090Y-85625062D01*
X178324500Y-85720565D01*
X178324500Y-85819435D01*
X178350090Y-85914938D01*
X178399525Y-86000562D01*
X178469438Y-86070475D01*
X178555062Y-86119910D01*
X178650565Y-86145500D01*
X178650567Y-86145500D01*
X178749432Y-86145500D01*
X178749435Y-86145500D01*
X178844938Y-86119910D01*
X178930562Y-86070475D01*
X178930563Y-86070473D01*
X178937600Y-86066411D01*
X178938798Y-86068487D01*
X178992579Y-86047691D01*
X179061025Y-86061723D01*
X179110294Y-86109260D01*
X179113571Y-86114937D01*
X179113572Y-86114938D01*
X179163007Y-86200562D01*
X179232920Y-86270475D01*
X179318544Y-86319910D01*
X179414047Y-86345500D01*
X179414049Y-86345500D01*
X179512914Y-86345500D01*
X179512917Y-86345500D01*
X179568408Y-86330631D01*
X179638256Y-86332294D01*
X179696119Y-86371456D01*
X179723623Y-86435685D01*
X179724394Y-86448628D01*
X179724499Y-86449432D01*
X179724500Y-86449435D01*
X179750090Y-86544938D01*
X179799525Y-86630562D01*
X179869438Y-86700475D01*
X179955062Y-86749910D01*
X179964637Y-86752475D01*
X180024297Y-86788840D01*
X180054826Y-86851687D01*
X180056543Y-86872250D01*
X180056543Y-86918876D01*
X180082133Y-87014379D01*
X180120344Y-87080563D01*
X180131569Y-87100004D01*
X180201481Y-87169916D01*
X180207927Y-87174862D01*
X180206530Y-87176682D01*
X180246576Y-87218682D01*
X180259797Y-87287289D01*
X180233828Y-87352154D01*
X180176913Y-87392681D01*
X180136359Y-87399500D01*
X176929500Y-87399500D01*
X176862461Y-87379815D01*
X176816706Y-87327011D01*
X176805500Y-87275500D01*
X176805500Y-72424500D01*
X176825185Y-72357461D01*
X176877989Y-72311706D01*
X176929500Y-72300500D01*
X181049672Y-72300500D01*
X181051333Y-72300987D01*
G37*
%TD.AperFunction*%
%TA.AperFunction,Conductor*%
G36*
X182632185Y-85738440D02*
G01*
X182659496Y-85736914D01*
X182670393Y-85741172D01*
X182674590Y-85741473D01*
X182679909Y-85744891D01*
X182692369Y-85749761D01*
X182707025Y-85758062D01*
X182724438Y-85775475D01*
X182810062Y-85824910D01*
X182838494Y-85832528D01*
X182852247Y-85840318D01*
X182900878Y-85890485D01*
X182914665Y-85958981D01*
X182910910Y-85980299D01*
X182909500Y-85985565D01*
X182909500Y-86084435D01*
X182935090Y-86179938D01*
X182984525Y-86265562D01*
X183054438Y-86335475D01*
X183140062Y-86384910D01*
X183235565Y-86410500D01*
X183235567Y-86410500D01*
X183261414Y-86410500D01*
X183328453Y-86430185D01*
X183374208Y-86482989D01*
X183384354Y-86518319D01*
X183384500Y-86519428D01*
X183384500Y-86519435D01*
X183410090Y-86614938D01*
X183410091Y-86614939D01*
X183410091Y-86614940D01*
X183419111Y-86630563D01*
X183459525Y-86700562D01*
X183529438Y-86770475D01*
X183615062Y-86819910D01*
X183710565Y-86845500D01*
X183710567Y-86845500D01*
X183809432Y-86845500D01*
X183809435Y-86845500D01*
X183904938Y-86819910D01*
X183990562Y-86770475D01*
X184060475Y-86700562D01*
X184109910Y-86614938D01*
X184135500Y-86519435D01*
X184135500Y-86420565D01*
X184124780Y-86380557D01*
X184126443Y-86310711D01*
X184165605Y-86252849D01*
X184229833Y-86225344D01*
X184298735Y-86236930D01*
X184332236Y-86260786D01*
X185041426Y-86969976D01*
X185115118Y-87000500D01*
X185194883Y-87000500D01*
X185273101Y-87000500D01*
X185340140Y-87020185D01*
X185360782Y-87036819D01*
X185424438Y-87100475D01*
X185510062Y-87149910D01*
X185531767Y-87155726D01*
X185591426Y-87192090D01*
X185621955Y-87254937D01*
X185613660Y-87324313D01*
X185569175Y-87378191D01*
X185502623Y-87399465D01*
X185499672Y-87399500D01*
X181442011Y-87399500D01*
X181374972Y-87379815D01*
X181329217Y-87327011D01*
X181319273Y-87257853D01*
X181348298Y-87194297D01*
X181380008Y-87168115D01*
X181410562Y-87150475D01*
X181480475Y-87080562D01*
X181529910Y-86994938D01*
X181555500Y-86899435D01*
X181555500Y-86809411D01*
X181575185Y-86742372D01*
X181591819Y-86721730D01*
X182543575Y-85769974D01*
X182567580Y-85756865D01*
X182589735Y-85740813D01*
X182597805Y-85740361D01*
X182604898Y-85736489D01*
X182632185Y-85738440D01*
G37*
%TD.AperFunction*%
%TA.AperFunction,Conductor*%
G36*
X189366965Y-82964242D02*
G01*
X189371114Y-82967924D01*
X189374434Y-82970472D01*
X189374436Y-82970473D01*
X189374438Y-82970475D01*
X189460062Y-83019910D01*
X189555565Y-83045500D01*
X189555567Y-83045500D01*
X189654431Y-83045500D01*
X189654435Y-83045500D01*
X189748411Y-83020319D01*
X189818255Y-83021982D01*
X189876118Y-83061144D01*
X189903623Y-83125372D01*
X189904500Y-83140094D01*
X189904500Y-87275500D01*
X189884815Y-87342539D01*
X189832011Y-87388294D01*
X189780500Y-87399500D01*
X185810328Y-87399500D01*
X185743289Y-87379815D01*
X185697534Y-87327011D01*
X185687590Y-87257853D01*
X185716615Y-87194297D01*
X185775393Y-87156523D01*
X185778189Y-87155737D01*
X185799938Y-87149910D01*
X185885562Y-87100475D01*
X185955475Y-87030562D01*
X185983188Y-86982560D01*
X186033754Y-86934347D01*
X186102361Y-86921123D01*
X186122668Y-86924787D01*
X186127648Y-86926121D01*
X186127651Y-86926123D01*
X186223154Y-86951713D01*
X186223157Y-86951713D01*
X186322021Y-86951713D01*
X186322024Y-86951713D01*
X186417527Y-86926123D01*
X186503151Y-86876688D01*
X186573064Y-86806775D01*
X186599598Y-86760815D01*
X186650162Y-86712603D01*
X186718769Y-86699379D01*
X186739072Y-86703042D01*
X186785565Y-86715500D01*
X186785567Y-86715500D01*
X186884432Y-86715500D01*
X186884435Y-86715500D01*
X186979938Y-86689910D01*
X187065562Y-86640475D01*
X187135475Y-86570562D01*
X187147109Y-86550410D01*
X187197675Y-86502196D01*
X187266282Y-86488973D01*
X187286589Y-86492637D01*
X187289013Y-86493286D01*
X187289016Y-86493288D01*
X187384519Y-86518878D01*
X187384522Y-86518878D01*
X187483386Y-86518878D01*
X187483389Y-86518878D01*
X187578892Y-86493288D01*
X187664516Y-86443853D01*
X187710192Y-86398176D01*
X187771513Y-86364692D01*
X187841204Y-86369676D01*
X187859871Y-86378471D01*
X187888966Y-86395268D01*
X187891311Y-86396622D01*
X187986814Y-86422212D01*
X187986816Y-86422212D01*
X188085681Y-86422212D01*
X188085684Y-86422212D01*
X188181187Y-86396622D01*
X188266811Y-86347187D01*
X188336724Y-86277274D01*
X188386159Y-86191650D01*
X188411749Y-86096147D01*
X188411749Y-86084813D01*
X188431434Y-86017774D01*
X188484238Y-85972019D01*
X188503642Y-85965042D01*
X188588307Y-85942357D01*
X188673931Y-85892922D01*
X188743844Y-85823009D01*
X188793279Y-85737385D01*
X188818869Y-85641882D01*
X188818869Y-85543012D01*
X188793279Y-85447509D01*
X188743844Y-85361885D01*
X188673931Y-85291972D01*
X188588309Y-85242538D01*
X188588308Y-85242537D01*
X188559947Y-85234938D01*
X188501488Y-85219273D01*
X188441830Y-85182910D01*
X188411301Y-85120063D01*
X188419596Y-85050687D01*
X188464081Y-84996809D01*
X188530633Y-84975535D01*
X188533584Y-84975500D01*
X188604432Y-84975500D01*
X188604435Y-84975500D01*
X188699938Y-84949910D01*
X188785562Y-84900475D01*
X188855475Y-84830562D01*
X188904910Y-84744938D01*
X188930500Y-84649435D01*
X188930500Y-84550565D01*
X188904910Y-84455062D01*
X188855475Y-84369438D01*
X188785562Y-84299525D01*
X188699940Y-84250091D01*
X188699939Y-84250090D01*
X188690055Y-84247441D01*
X188668831Y-84241754D01*
X188609173Y-84205391D01*
X188578644Y-84142544D01*
X188586939Y-84073168D01*
X188594494Y-84060085D01*
X188594103Y-84059872D01*
X188598354Y-84052086D01*
X188648596Y-83917379D01*
X188648598Y-83917372D01*
X188654999Y-83857844D01*
X188655177Y-83854521D01*
X188655355Y-83854530D01*
X188655356Y-83854525D01*
X188655459Y-83854536D01*
X188656530Y-83854593D01*
X188674685Y-83792766D01*
X188727489Y-83747011D01*
X188796647Y-83737067D01*
X188860203Y-83766092D01*
X188886384Y-83797801D01*
X188899525Y-83820562D01*
X188969438Y-83890475D01*
X189055062Y-83939910D01*
X189150565Y-83965500D01*
X189150567Y-83965500D01*
X189249432Y-83965500D01*
X189249435Y-83965500D01*
X189344938Y-83939910D01*
X189430562Y-83890475D01*
X189500475Y-83820562D01*
X189549910Y-83734938D01*
X189575500Y-83639435D01*
X189575500Y-83540565D01*
X189549910Y-83445062D01*
X189500475Y-83359438D01*
X189430562Y-83289525D01*
X189344938Y-83240090D01*
X189249435Y-83214500D01*
X189249432Y-83214500D01*
X189241584Y-83212397D01*
X189242424Y-83209260D01*
X189226306Y-83202115D01*
X189195901Y-83189943D01*
X189194540Y-83188033D01*
X189192398Y-83187083D01*
X189174380Y-83159721D01*
X189155373Y-83133029D01*
X189155261Y-83130687D01*
X189153972Y-83128729D01*
X189153607Y-83095977D01*
X189152048Y-83063239D01*
X189153211Y-83060333D01*
X189153195Y-83058864D01*
X189165162Y-83030481D01*
X189179910Y-83004938D01*
X189179911Y-83004933D01*
X189182926Y-82999712D01*
X189233493Y-82951496D01*
X189302100Y-82938274D01*
X189366965Y-82964242D01*
G37*
%TD.AperFunction*%
%TA.AperFunction,Conductor*%
G36*
X189847539Y-72320185D02*
G01*
X189893294Y-72372989D01*
X189904500Y-72424500D01*
X189904500Y-77264313D01*
X189884815Y-77331352D01*
X189869348Y-77344754D01*
X189883190Y-77356183D01*
X189904465Y-77422735D01*
X189904500Y-77425686D01*
X189904500Y-82199905D01*
X189884815Y-82266944D01*
X189832011Y-82312699D01*
X189762853Y-82322643D01*
X189748410Y-82319680D01*
X189654435Y-82294500D01*
X189564412Y-82294500D01*
X189497373Y-82274815D01*
X189476731Y-82258181D01*
X189348574Y-82130024D01*
X189274883Y-82099500D01*
X189274882Y-82099500D01*
X189029279Y-82099500D01*
X188962240Y-82079815D01*
X188916485Y-82027011D01*
X188906541Y-81957853D01*
X188935566Y-81894297D01*
X188941598Y-81887819D01*
X188944417Y-81885000D01*
X188948855Y-81880562D01*
X188998290Y-81794938D01*
X189023880Y-81699435D01*
X189023880Y-81600565D01*
X188998290Y-81505062D01*
X188948855Y-81419438D01*
X188924551Y-81395134D01*
X188891066Y-81333811D01*
X188896050Y-81264119D01*
X188924550Y-81219773D01*
X188956548Y-81187776D01*
X189005983Y-81102152D01*
X189031573Y-81006649D01*
X189031573Y-80989500D01*
X189051258Y-80922461D01*
X189104062Y-80876706D01*
X189155573Y-80865500D01*
X189179432Y-80865500D01*
X189179435Y-80865500D01*
X189274938Y-80839910D01*
X189360562Y-80790475D01*
X189430475Y-80720562D01*
X189479910Y-80634938D01*
X189505500Y-80539435D01*
X189505500Y-80440565D01*
X189479910Y-80345062D01*
X189430475Y-80259438D01*
X189360562Y-80189525D01*
X189308940Y-80159721D01*
X189260726Y-80109154D01*
X189247504Y-80040547D01*
X189251163Y-80020260D01*
X189275500Y-79929435D01*
X189275500Y-79830565D01*
X189249910Y-79735062D01*
X189200475Y-79649438D01*
X189130562Y-79579525D01*
X189130558Y-79579521D01*
X189130146Y-79579205D01*
X189129886Y-79578849D01*
X189124815Y-79573778D01*
X189125606Y-79572986D01*
X189088946Y-79522775D01*
X189084796Y-79453028D01*
X189117955Y-79393155D01*
X189140991Y-79370120D01*
X189190426Y-79284496D01*
X189216016Y-79188993D01*
X189216016Y-79090123D01*
X189190426Y-78994620D01*
X189140991Y-78908996D01*
X189071078Y-78839083D01*
X189034506Y-78817968D01*
X188986292Y-78767400D01*
X188972569Y-78714486D01*
X188971992Y-78696185D01*
X188980500Y-78664435D01*
X188980500Y-78565565D01*
X188966197Y-78512186D01*
X188965746Y-78497856D01*
X188971069Y-78477361D01*
X188971573Y-78456196D01*
X188979676Y-78444223D01*
X188983311Y-78430230D01*
X188998867Y-78415867D01*
X189010735Y-78398334D01*
X189026870Y-78390015D01*
X189034648Y-78382835D01*
X189043988Y-78381190D01*
X189057589Y-78374178D01*
X189098882Y-78363114D01*
X189184506Y-78313679D01*
X189254419Y-78243766D01*
X189303854Y-78158142D01*
X189329444Y-78062639D01*
X189329444Y-77963769D01*
X189303854Y-77868266D01*
X189303852Y-77868264D01*
X189301750Y-77860416D01*
X189304465Y-77859688D01*
X189298457Y-77803799D01*
X189329733Y-77741320D01*
X189388391Y-77706042D01*
X189429938Y-77694910D01*
X189515562Y-77645475D01*
X189585475Y-77575562D01*
X189634910Y-77489938D01*
X189660500Y-77394435D01*
X189660500Y-77394432D01*
X189660725Y-77393593D01*
X189690627Y-77344535D01*
X189661523Y-77299248D01*
X189660725Y-77296407D01*
X189660500Y-77295567D01*
X189660500Y-77295565D01*
X189634910Y-77200062D01*
X189585475Y-77114438D01*
X189515562Y-77044525D01*
X189429940Y-76995091D01*
X189429939Y-76995090D01*
X189389911Y-76984365D01*
X189334435Y-76969500D01*
X189334434Y-76969500D01*
X189327406Y-76967617D01*
X189267746Y-76931252D01*
X189237217Y-76868405D01*
X189235500Y-76847842D01*
X189235500Y-76760567D01*
X189235500Y-76760565D01*
X189209910Y-76665062D01*
X189160475Y-76579438D01*
X189160473Y-76579436D01*
X189156411Y-76572400D01*
X189159443Y-76570649D01*
X189140120Y-76520320D01*
X189154318Y-76451908D01*
X189201714Y-76402903D01*
X189240562Y-76380475D01*
X189310475Y-76310562D01*
X189359910Y-76224938D01*
X189385500Y-76129435D01*
X189385500Y-76030565D01*
X189359910Y-75935062D01*
X189310475Y-75849438D01*
X189240562Y-75779525D01*
X189154938Y-75730090D01*
X189059435Y-75704500D01*
X188960565Y-75704500D01*
X188865062Y-75730090D01*
X188865060Y-75730091D01*
X188865059Y-75730091D01*
X188776301Y-75781336D01*
X188708401Y-75797809D01*
X188642374Y-75774956D01*
X188603325Y-75725302D01*
X188602604Y-75725696D01*
X188600261Y-75721406D01*
X188599183Y-75720035D01*
X188598384Y-75717969D01*
X188598350Y-75717906D01*
X188512190Y-75602812D01*
X188512187Y-75602809D01*
X188397093Y-75516649D01*
X188397086Y-75516645D01*
X188262379Y-75466403D01*
X188262372Y-75466401D01*
X188202844Y-75460000D01*
X188188407Y-75460000D01*
X188179663Y-75457432D01*
X188170640Y-75458721D01*
X188146661Y-75447742D01*
X188121368Y-75440315D01*
X188115401Y-75433428D01*
X188107113Y-75429634D01*
X188092876Y-75407434D01*
X188075613Y-75387511D01*
X188073317Y-75376933D01*
X188069396Y-75370819D01*
X188064407Y-75335879D01*
X188064489Y-75251648D01*
X188084239Y-75184628D01*
X188137087Y-75138925D01*
X188206256Y-75129048D01*
X188250490Y-75144383D01*
X188260062Y-75149910D01*
X188355565Y-75175500D01*
X188355567Y-75175500D01*
X188454432Y-75175500D01*
X188454435Y-75175500D01*
X188549938Y-75149910D01*
X188635562Y-75100475D01*
X188705475Y-75030562D01*
X188754910Y-74944938D01*
X188780500Y-74849435D01*
X188780500Y-74750565D01*
X188754910Y-74655062D01*
X188705475Y-74569438D01*
X188635562Y-74499525D01*
X188621713Y-74491529D01*
X188573501Y-74440964D01*
X188560279Y-74372357D01*
X188563939Y-74352062D01*
X188587603Y-74263751D01*
X188587603Y-74164881D01*
X188566841Y-74087396D01*
X188568504Y-74017547D01*
X188607667Y-73959685D01*
X188651897Y-73936264D01*
X188656827Y-73934825D01*
X188656832Y-73934825D01*
X188725637Y-73893052D01*
X188726968Y-73891661D01*
X188734545Y-73883137D01*
X188738684Y-73878122D01*
X188740264Y-73876176D01*
X188746885Y-73867885D01*
X188747558Y-73867036D01*
X188747577Y-73867010D01*
X188747699Y-73866858D01*
X188756417Y-73855783D01*
X188756825Y-73855262D01*
X188767283Y-73841863D01*
X188767399Y-73841714D01*
X188767691Y-73841339D01*
X188779888Y-73825613D01*
X188780126Y-73825305D01*
X188793558Y-73807897D01*
X188793774Y-73807617D01*
X188808129Y-73788925D01*
X188808229Y-73788794D01*
X188813975Y-73781295D01*
X188813986Y-73781287D01*
X188813983Y-73781285D01*
X188813984Y-73781284D01*
X188830362Y-73759914D01*
X188830361Y-73759913D01*
X188833661Y-73755608D01*
X188847052Y-73738142D01*
X188863523Y-73716659D01*
X188863522Y-73716658D01*
X188869557Y-73708789D01*
X188879181Y-73696241D01*
X188893563Y-73677490D01*
X188893573Y-73677476D01*
X188898345Y-73671256D01*
X188898352Y-73671248D01*
X188905799Y-73661543D01*
X188905802Y-73661545D01*
X188905817Y-73661517D01*
X188915669Y-73648686D01*
X188915767Y-73648558D01*
X188917136Y-73646771D01*
X188917874Y-73645800D01*
X188918071Y-73645539D01*
X188918074Y-73645536D01*
X188918248Y-73645309D01*
X188920914Y-73641834D01*
X188921232Y-73641344D01*
X188930357Y-73629238D01*
X188932069Y-73626922D01*
X188942315Y-73612791D01*
X188944753Y-73609331D01*
X188952514Y-73597990D01*
X188956691Y-73591551D01*
X188961721Y-73583361D01*
X188971651Y-73564372D01*
X188973701Y-73559692D01*
X188984984Y-73520772D01*
X188985177Y-73519508D01*
X188985574Y-73516746D01*
X188986416Y-73510480D01*
X188986553Y-73509431D01*
X188987866Y-73499129D01*
X188987924Y-73498673D01*
X188987945Y-73498511D01*
X188989625Y-73485007D01*
X188989636Y-73484911D01*
X188989659Y-73484725D01*
X188991658Y-73468409D01*
X188991662Y-73468401D01*
X188991660Y-73468401D01*
X188991699Y-73468083D01*
X188992047Y-73465204D01*
X189019639Y-73401013D01*
X189035336Y-73385195D01*
X189038281Y-73382718D01*
X189039696Y-73381513D01*
X189048699Y-73373755D01*
X189050709Y-73371993D01*
X189056002Y-73367271D01*
X189058287Y-73365191D01*
X189073355Y-73351201D01*
X189075510Y-73349162D01*
X189092639Y-73332639D01*
X189094181Y-73331130D01*
X189112543Y-73312919D01*
X189113826Y-73311631D01*
X189132592Y-73292579D01*
X189133812Y-73291328D01*
X189152157Y-73272280D01*
X189153490Y-73270878D01*
X189170585Y-73252680D01*
X189172253Y-73250876D01*
X189178649Y-73243847D01*
X189187221Y-73234430D01*
X189187272Y-73234373D01*
X189189721Y-73231617D01*
X189201835Y-73217655D01*
X189203860Y-73215273D01*
X189208878Y-73209249D01*
X189211291Y-73206279D01*
X189256048Y-73149778D01*
X189260604Y-73143729D01*
X189287127Y-73106672D01*
X189300533Y-73087944D01*
X189300544Y-73087928D01*
X189305251Y-73080962D01*
X189340492Y-73025635D01*
X189345206Y-73017726D01*
X189375867Y-72962645D01*
X189380416Y-72953822D01*
X189406614Y-72898759D01*
X189410802Y-72889132D01*
X189432658Y-72833860D01*
X189436307Y-72823595D01*
X189453937Y-72767885D01*
X189456893Y-72757244D01*
X189470417Y-72700871D01*
X189471697Y-72695044D01*
X189473518Y-72685924D01*
X189473892Y-72683987D01*
X189476879Y-72667972D01*
X189477684Y-72663251D01*
X189479501Y-72651514D01*
X189480735Y-72641341D01*
X189481427Y-72633469D01*
X189481422Y-72606185D01*
X189481032Y-72601765D01*
X189475701Y-72572890D01*
X189434392Y-72503806D01*
X189434389Y-72503803D01*
X189432556Y-72501488D01*
X189431615Y-72499162D01*
X189430221Y-72496830D01*
X189430584Y-72496612D01*
X189406364Y-72436713D01*
X189419350Y-72368061D01*
X189467390Y-72317328D01*
X189529761Y-72300500D01*
X189780500Y-72300500D01*
X189847539Y-72320185D01*
G37*
%TD.AperFunction*%
%TA.AperFunction,Conductor*%
G36*
X189046756Y-72320185D02*
G01*
X189092511Y-72372989D01*
X189102455Y-72442147D01*
X189073430Y-72505703D01*
X189029894Y-72537894D01*
X189023115Y-72540893D01*
X188969857Y-72566489D01*
X188961320Y-72570921D01*
X188909382Y-72599964D01*
X188904664Y-72602713D01*
X188900123Y-72605464D01*
X188897212Y-72607271D01*
X188869458Y-72624918D01*
X188865632Y-72627429D01*
X188835789Y-72647640D01*
X188832695Y-72649789D01*
X188801940Y-72671707D01*
X188799050Y-72673815D01*
X188768643Y-72696524D01*
X188765733Y-72698752D01*
X188765715Y-72698766D01*
X188763030Y-72700871D01*
X188736723Y-72721496D01*
X188733328Y-72724235D01*
X188707120Y-72745981D01*
X188704186Y-72748476D01*
X188693857Y-72757482D01*
X188690960Y-72760073D01*
X188661814Y-72786779D01*
X188661794Y-72786798D01*
X188658457Y-72789947D01*
X188647374Y-72800721D01*
X188631162Y-72816480D01*
X188628102Y-72819453D01*
X188625238Y-72822310D01*
X188594799Y-72853456D01*
X188594780Y-72853476D01*
X188592125Y-72856260D01*
X188592118Y-72856268D01*
X188562588Y-72888017D01*
X188559800Y-72891094D01*
X188552889Y-72898932D01*
X188529508Y-72913671D01*
X188508105Y-72931157D01*
X188497257Y-72934003D01*
X188493784Y-72936193D01*
X188473967Y-72940114D01*
X188473932Y-72940118D01*
X188473593Y-72940156D01*
X188457979Y-72941897D01*
X188457565Y-72941943D01*
X188454684Y-72942254D01*
X188444234Y-72943383D01*
X188443647Y-72943445D01*
X188434040Y-72944430D01*
X188432801Y-72944551D01*
X188429922Y-72944817D01*
X188426211Y-72945104D01*
X188425831Y-72945127D01*
X188368864Y-72959804D01*
X188368850Y-72959809D01*
X188368321Y-72960060D01*
X188368300Y-72960071D01*
X188348999Y-72970963D01*
X188348988Y-72970969D01*
X188344982Y-72973624D01*
X188341168Y-72976235D01*
X188333795Y-72981443D01*
X188332417Y-72982426D01*
X188321946Y-72989978D01*
X188321226Y-72990502D01*
X188308212Y-72999989D01*
X188307780Y-73000304D01*
X188307690Y-73000371D01*
X188292217Y-73011727D01*
X188292141Y-73011782D01*
X188291944Y-73011928D01*
X188274591Y-73024722D01*
X188274377Y-73024880D01*
X188255540Y-73038818D01*
X188255365Y-73038948D01*
X188235439Y-73053735D01*
X188235291Y-73053845D01*
X188214671Y-73069185D01*
X188214534Y-73069287D01*
X188214533Y-73069286D01*
X188214373Y-73069406D01*
X188193797Y-73084750D01*
X188193796Y-73084751D01*
X188193614Y-73084887D01*
X188193474Y-73084991D01*
X188187150Y-73089718D01*
X188172722Y-73100501D01*
X188172648Y-73100557D01*
X188172508Y-73100661D01*
X188152331Y-73115778D01*
X188152220Y-73115861D01*
X188152161Y-73115905D01*
X188132745Y-73130489D01*
X188132746Y-73130490D01*
X188132580Y-73130615D01*
X188132397Y-73130753D01*
X188114238Y-73144436D01*
X188113998Y-73144617D01*
X188097518Y-73157085D01*
X188097335Y-73157222D01*
X188097180Y-73157340D01*
X188082709Y-73168345D01*
X188082432Y-73168555D01*
X188082345Y-73168623D01*
X188070406Y-73177772D01*
X188070264Y-73177881D01*
X188070227Y-73177910D01*
X188069612Y-73178384D01*
X188060589Y-73185394D01*
X188060554Y-73185421D01*
X188060520Y-73185448D01*
X188058773Y-73186825D01*
X188056589Y-73188572D01*
X188052937Y-73191493D01*
X188045589Y-73197759D01*
X188043393Y-73199753D01*
X188037513Y-73205379D01*
X188037510Y-73205384D01*
X187997565Y-73275262D01*
X187993409Y-73291050D01*
X187992292Y-73290755D01*
X187978154Y-73339676D01*
X187925546Y-73385656D01*
X187878172Y-73396996D01*
X187859505Y-73397691D01*
X187844474Y-73393664D01*
X187745604Y-73393664D01*
X187709741Y-73403273D01*
X187695770Y-73403794D01*
X187674909Y-73398504D01*
X187653394Y-73397992D01*
X187641714Y-73390086D01*
X187628044Y-73386620D01*
X187613353Y-73370890D01*
X187595532Y-73358828D01*
X187583765Y-73341881D01*
X187582492Y-73339676D01*
X187545292Y-73275243D01*
X187475379Y-73205330D01*
X187389755Y-73155895D01*
X187294252Y-73130305D01*
X187197014Y-73130305D01*
X187129975Y-73110620D01*
X187084220Y-73057816D01*
X187077242Y-73038407D01*
X187054910Y-72955062D01*
X187005475Y-72869438D01*
X186935562Y-72799525D01*
X186849938Y-72750090D01*
X186754435Y-72724500D01*
X186655565Y-72724500D01*
X186562296Y-72749491D01*
X186492446Y-72747828D01*
X186434584Y-72708665D01*
X186422821Y-72691725D01*
X186412972Y-72674665D01*
X186343059Y-72604752D01*
X186276787Y-72566490D01*
X186257437Y-72555318D01*
X186257436Y-72555317D01*
X186257435Y-72555317D01*
X186216222Y-72544274D01*
X186156563Y-72507910D01*
X186126034Y-72445063D01*
X186134329Y-72375688D01*
X186178814Y-72321810D01*
X186245366Y-72300535D01*
X186248317Y-72300500D01*
X188979717Y-72300500D01*
X189046756Y-72320185D01*
G37*
%TD.AperFunction*%
%TD*%
M02*
