%TF.GenerationSoftware,KiCad,Pcbnew,9.0.4*%
%TF.CreationDate,2026-03-27T20:09:31-04:00*%
%TF.ProjectId,V3_COB_Original,56335f43-4f42-45f4-9f72-6967696e616c,rev?*%
%TF.SameCoordinates,Original*%
%TF.FileFunction,Legend,Top*%
%TF.FilePolarity,Positive*%
%FSLAX46Y46*%
G04 Gerber Fmt 4.6, Leading zero omitted, Abs format (unit mm)*
G04 Created by KiCad (PCBNEW 9.0.4) date 2026-03-27 20:09:31*
%MOMM*%
%LPD*%
G01*
G04 APERTURE LIST*
G04 Aperture macros list*
%AMRoundRect*
0 Rectangle with rounded corners*
0 $1 Rounding radius*
0 $2 $3 $4 $5 $6 $7 $8 $9 X,Y pos of 4 corners*
0 Add a 4 corners polygon primitive as box body*
4,1,4,$2,$3,$4,$5,$6,$7,$8,$9,$2,$3,0*
0 Add four circle primitives for the rounded corners*
1,1,$1+$1,$2,$3*
1,1,$1+$1,$4,$5*
1,1,$1+$1,$6,$7*
1,1,$1+$1,$8,$9*
0 Add four rect primitives between the rounded corners*
20,1,$1+$1,$2,$3,$4,$5,0*
20,1,$1+$1,$4,$5,$6,$7,0*
20,1,$1+$1,$6,$7,$8,$9,0*
20,1,$1+$1,$8,$9,$2,$3,0*%
G04 Aperture macros list end*
%ADD10C,0.400000*%
%ADD11C,0.000000*%
%ADD12C,0.100000*%
%ADD13C,0.040000*%
%ADD14RoundRect,0.040000X1.960000X2.560000X-1.960000X2.560000X-1.960000X-2.560000X1.960000X-2.560000X0*%
%ADD15C,0.500000*%
G04 APERTURE END LIST*
%TO.C,U102*%
D10*
X187805000Y-75235000D02*
G75*
G02*
X187405000Y-75235000I-200000J0D01*
G01*
X187405000Y-75235000D02*
G75*
G02*
X187805000Y-75235000I200000J0D01*
G01*
D11*
%TO.C,G\u002A\u002A\u002A*%
G36*
X189149623Y-74126987D02*
G01*
X189150128Y-74132789D01*
X189150146Y-74133728D01*
X189151590Y-74146168D01*
X189155224Y-74160884D01*
X189160465Y-74175944D01*
X189166734Y-74189416D01*
X189167108Y-74190093D01*
X189180929Y-74209856D01*
X189198515Y-74227085D01*
X189218975Y-74241161D01*
X189241413Y-74251471D01*
X189264685Y-74257360D01*
X189284569Y-74260357D01*
X189267205Y-74263353D01*
X189241512Y-74270077D01*
X189218180Y-74280751D01*
X189197611Y-74294963D01*
X189180208Y-74312302D01*
X189166375Y-74332355D01*
X189156514Y-74354712D01*
X189151029Y-74378960D01*
X189150641Y-74382402D01*
X189149571Y-74390259D01*
X189148309Y-74395313D01*
X189147167Y-74396470D01*
X189145915Y-74392882D01*
X189145293Y-74386545D01*
X189145277Y-74385360D01*
X189143058Y-74367796D01*
X189136835Y-74349260D01*
X189127259Y-74330712D01*
X189114979Y-74313110D01*
X189100647Y-74297415D01*
X189084912Y-74284584D01*
X189071820Y-74277058D01*
X189057930Y-74271333D01*
X189043247Y-74266517D01*
X189029493Y-74263107D01*
X189018393Y-74261598D01*
X189018139Y-74261588D01*
X189016850Y-74261096D01*
X189019896Y-74260011D01*
X189026634Y-74258530D01*
X189030636Y-74257797D01*
X189053992Y-74251469D01*
X189071689Y-74243841D01*
X189091876Y-74231228D01*
X189109665Y-74215102D01*
X189124431Y-74196290D01*
X189135553Y-74175620D01*
X189142408Y-74153918D01*
X189143352Y-74148630D01*
X189145337Y-74136976D01*
X189147117Y-74129323D01*
X189148583Y-74125913D01*
X189149623Y-74126987D01*
G37*
G36*
X187055281Y-72773882D02*
G01*
X187056381Y-72778848D01*
X187057986Y-72788574D01*
X187058076Y-72789161D01*
X187062826Y-72813684D01*
X187069108Y-72836231D01*
X187076532Y-72855464D01*
X187078546Y-72859647D01*
X187095690Y-72888156D01*
X187116426Y-72913246D01*
X187140441Y-72934681D01*
X187167421Y-72952226D01*
X187197052Y-72965643D01*
X187229020Y-72974698D01*
X187232556Y-72975397D01*
X187243370Y-72977303D01*
X187253237Y-72978790D01*
X187260382Y-72979597D01*
X187261531Y-72979661D01*
X187262644Y-72980084D01*
X187259411Y-72981013D01*
X187252483Y-72982297D01*
X187245506Y-72983366D01*
X187212486Y-72990454D01*
X187181672Y-73001833D01*
X187153410Y-73017312D01*
X187128048Y-73036697D01*
X187105933Y-73059798D01*
X187104831Y-73061156D01*
X187089742Y-73081958D01*
X187077779Y-73103313D01*
X187068555Y-73126225D01*
X187061685Y-73151698D01*
X187056782Y-73180736D01*
X187055836Y-73188517D01*
X187055266Y-73189376D01*
X187054403Y-73185944D01*
X187053418Y-73178946D01*
X187053220Y-73177179D01*
X187047336Y-73144713D01*
X187036999Y-73113790D01*
X187022497Y-73084956D01*
X187004116Y-73058759D01*
X186982145Y-73035747D01*
X186976256Y-73030664D01*
X186958002Y-73017610D01*
X186936664Y-73005798D01*
X186913595Y-72995761D01*
X186890148Y-72988036D01*
X186867679Y-72983157D01*
X186852449Y-72981694D01*
X186850329Y-72981254D01*
X186852835Y-72980301D01*
X186859592Y-72978949D01*
X186863787Y-72978261D01*
X186895720Y-72971601D01*
X186924184Y-72961966D01*
X186950047Y-72948950D01*
X186974177Y-72932145D01*
X186988402Y-72919873D01*
X187005781Y-72900977D01*
X187021306Y-72878623D01*
X187034449Y-72853953D01*
X187044681Y-72828110D01*
X187051473Y-72802239D01*
X187054298Y-72777482D01*
X187054303Y-72777300D01*
X187054614Y-72773444D01*
X187055281Y-72773882D01*
G37*
G36*
X188989221Y-73288517D02*
G01*
X188990915Y-73291583D01*
X188993957Y-73298283D01*
X188997878Y-73307552D01*
X189001228Y-73315834D01*
X189024068Y-73380151D01*
X189042173Y-73445841D01*
X189055557Y-73512589D01*
X189064234Y-73580084D01*
X189068217Y-73648011D01*
X189067520Y-73716056D01*
X189062157Y-73783907D01*
X189052142Y-73851249D01*
X189037489Y-73917770D01*
X189018211Y-73983155D01*
X188994321Y-74047091D01*
X188966423Y-74108095D01*
X188932460Y-74170347D01*
X188894577Y-74229494D01*
X188852887Y-74285417D01*
X188807506Y-74337995D01*
X188758550Y-74387106D01*
X188706132Y-74432631D01*
X188650368Y-74474448D01*
X188591372Y-74512439D01*
X188568093Y-74525867D01*
X188506087Y-74557672D01*
X188442238Y-74584819D01*
X188376718Y-74607272D01*
X188309699Y-74624992D01*
X188241354Y-74637940D01*
X188171856Y-74646078D01*
X188101377Y-74649367D01*
X188030090Y-74647770D01*
X188021540Y-74647252D01*
X187983734Y-74643782D01*
X187943240Y-74638223D01*
X187901801Y-74630883D01*
X187861163Y-74622071D01*
X187823752Y-74612290D01*
X187756874Y-74590468D01*
X187692059Y-74564074D01*
X187629474Y-74533204D01*
X187569285Y-74497956D01*
X187511658Y-74458425D01*
X187456758Y-74414709D01*
X187409693Y-74371743D01*
X187393255Y-74355117D01*
X187375699Y-74336238D01*
X187357637Y-74315855D01*
X187339686Y-74294719D01*
X187322458Y-74273577D01*
X187306569Y-74253179D01*
X187292632Y-74234273D01*
X187281262Y-74217611D01*
X187275165Y-74207691D01*
X187277111Y-74206816D01*
X187284000Y-74206122D01*
X187295740Y-74205615D01*
X187312238Y-74205297D01*
X187333402Y-74205173D01*
X187336495Y-74205172D01*
X187399278Y-74205172D01*
X187421115Y-74231628D01*
X187436085Y-74248931D01*
X187453868Y-74268135D01*
X187473369Y-74288152D01*
X187493494Y-74307893D01*
X187513148Y-74326270D01*
X187531237Y-74342195D01*
X187537778Y-74347626D01*
X187591463Y-74388258D01*
X187646793Y-74424184D01*
X187703937Y-74455477D01*
X187763061Y-74482210D01*
X187824333Y-74504454D01*
X187887921Y-74522281D01*
X187953991Y-74535765D01*
X187983746Y-74540320D01*
X188000115Y-74542119D01*
X188020331Y-74543614D01*
X188043212Y-74544779D01*
X188067573Y-74545587D01*
X188092231Y-74546011D01*
X188116001Y-74546026D01*
X188137700Y-74545603D01*
X188156145Y-74544718D01*
X188161377Y-74544314D01*
X188228589Y-74536025D01*
X188294116Y-74523007D01*
X188357836Y-74505316D01*
X188419627Y-74483010D01*
X188479368Y-74456146D01*
X188536935Y-74424782D01*
X188592208Y-74388976D01*
X188645064Y-74348783D01*
X188695381Y-74304263D01*
X188717199Y-74282796D01*
X188760675Y-74235036D01*
X188800554Y-74183887D01*
X188836642Y-74129678D01*
X188868743Y-74072735D01*
X188896664Y-74013387D01*
X188920209Y-73951963D01*
X188928455Y-73926575D01*
X188944681Y-73865535D01*
X188956292Y-73803028D01*
X188963302Y-73739530D01*
X188965723Y-73675514D01*
X188963568Y-73611454D01*
X188956850Y-73547825D01*
X188945582Y-73485102D01*
X188929776Y-73423757D01*
X188913595Y-73375243D01*
X188910215Y-73365861D01*
X188907736Y-73358520D01*
X188906516Y-73354302D01*
X188906479Y-73353705D01*
X188909278Y-73351611D01*
X188915187Y-73346876D01*
X188923466Y-73340109D01*
X188933377Y-73331921D01*
X188944177Y-73322922D01*
X188955129Y-73313722D01*
X188961068Y-73308696D01*
X188970736Y-73300746D01*
X188979089Y-73294359D01*
X188985377Y-73290073D01*
X188988850Y-73288427D01*
X188989221Y-73288517D01*
G37*
G36*
X188124416Y-72697788D02*
G01*
X188145426Y-72698307D01*
X188163062Y-72699220D01*
X188166416Y-72699478D01*
X188237797Y-72707802D01*
X188307250Y-72720780D01*
X188374786Y-72738417D01*
X188440416Y-72760716D01*
X188504152Y-72787682D01*
X188566005Y-72819319D01*
X188625988Y-72855631D01*
X188635026Y-72861616D01*
X188654895Y-72875069D01*
X188670512Y-72885958D01*
X188681863Y-72894272D01*
X188688932Y-72900001D01*
X188691706Y-72903134D01*
X188691751Y-72903371D01*
X188690080Y-72906046D01*
X188685766Y-72910936D01*
X188681495Y-72915260D01*
X188675878Y-72920981D01*
X188667952Y-72929405D01*
X188658730Y-72939440D01*
X188649222Y-72949997D01*
X188648289Y-72951045D01*
X188639778Y-72960457D01*
X188632376Y-72968333D01*
X188626753Y-72973985D01*
X188623578Y-72976721D01*
X188623217Y-72976871D01*
X188620501Y-72975513D01*
X188614427Y-72971771D01*
X188605771Y-72966144D01*
X188595308Y-72959131D01*
X188589720Y-72955315D01*
X188532904Y-72919255D01*
X188474248Y-72887821D01*
X188413944Y-72861059D01*
X188352186Y-72839016D01*
X188289169Y-72821738D01*
X188225086Y-72809272D01*
X188160132Y-72801665D01*
X188094499Y-72798963D01*
X188028382Y-72801212D01*
X187972484Y-72806980D01*
X187908787Y-72818098D01*
X187845966Y-72834085D01*
X187784370Y-72854800D01*
X187724346Y-72880102D01*
X187666245Y-72909849D01*
X187610412Y-72943899D01*
X187575180Y-72968510D01*
X187528751Y-73005425D01*
X187483876Y-73046510D01*
X187441301Y-73090958D01*
X187401775Y-73137966D01*
X187366045Y-73186728D01*
X187350540Y-73210398D01*
X187340834Y-73226683D01*
X187329943Y-73246435D01*
X187318425Y-73268513D01*
X187306838Y-73291776D01*
X187295739Y-73315086D01*
X187285686Y-73337300D01*
X187277237Y-73357279D01*
X187271917Y-73371138D01*
X187255051Y-73421766D01*
X187241720Y-73470309D01*
X187231699Y-73518042D01*
X187224768Y-73566237D01*
X187220703Y-73616169D01*
X187219281Y-73669111D01*
X187219275Y-73672278D01*
X187221142Y-73735198D01*
X187226913Y-73795455D01*
X187236719Y-73853727D01*
X187250691Y-73910692D01*
X187268960Y-73967026D01*
X187283575Y-74004527D01*
X187287678Y-74014495D01*
X187290937Y-74022582D01*
X187292942Y-74027759D01*
X187293378Y-74029093D01*
X187291079Y-74029835D01*
X187285009Y-74030078D01*
X187276406Y-74029868D01*
X187266507Y-74029253D01*
X187256550Y-74028279D01*
X187250545Y-74027463D01*
X187240544Y-74025593D01*
X187228609Y-74022893D01*
X187215800Y-74019661D01*
X187203176Y-74016193D01*
X187191799Y-74012786D01*
X187182727Y-74009737D01*
X187177021Y-74007342D01*
X187175809Y-74006533D01*
X187173335Y-74002260D01*
X187169932Y-73993805D01*
X187165810Y-73981895D01*
X187161180Y-73967258D01*
X187156250Y-73950619D01*
X187151230Y-73932708D01*
X187146332Y-73914249D01*
X187141763Y-73895971D01*
X187137735Y-73878601D01*
X187134716Y-73864196D01*
X187128538Y-73830254D01*
X187123795Y-73798274D01*
X187120356Y-73766838D01*
X187118093Y-73734527D01*
X187116875Y-73699924D01*
X187116565Y-73666005D01*
X187116603Y-73605561D01*
X187110465Y-73615614D01*
X187099814Y-73634318D01*
X187088451Y-73656474D01*
X187077018Y-73680677D01*
X187066154Y-73705525D01*
X187056499Y-73729613D01*
X187049348Y-73749560D01*
X187040801Y-73779428D01*
X187034699Y-73809915D01*
X187031118Y-73840057D01*
X187030134Y-73868886D01*
X187031823Y-73895437D01*
X187036045Y-73917938D01*
X187045449Y-73945936D01*
X187057994Y-73970401D01*
X187074168Y-73992088D01*
X187094460Y-74011747D01*
X187099632Y-74015959D01*
X187130825Y-74037435D01*
X187164680Y-74054660D01*
X187201133Y-74067623D01*
X187240122Y-74076314D01*
X187281584Y-74080721D01*
X187325457Y-74080834D01*
X187371678Y-74076642D01*
X187410539Y-74070135D01*
X187458518Y-74058993D01*
X187508051Y-74044397D01*
X187559278Y-74026276D01*
X187612340Y-74004559D01*
X187667378Y-73979177D01*
X187724531Y-73950060D01*
X187783940Y-73917137D01*
X187845746Y-73880339D01*
X187910089Y-73839595D01*
X187977110Y-73794836D01*
X188015241Y-73768427D01*
X188056396Y-73739029D01*
X188094629Y-73710496D01*
X188130789Y-73682107D01*
X188165724Y-73653139D01*
X188200284Y-73622871D01*
X188235318Y-73590583D01*
X188271675Y-73555551D01*
X188305675Y-73521642D01*
X188369346Y-73457269D01*
X188376224Y-73463481D01*
X188391483Y-73477338D01*
X188403848Y-73488775D01*
X188414230Y-73498678D01*
X188423537Y-73507932D01*
X188432679Y-73517422D01*
X188442567Y-73528036D01*
X188442934Y-73528434D01*
X188451702Y-73538155D01*
X188459088Y-73546713D01*
X188464477Y-73553369D01*
X188467256Y-73557381D01*
X188467500Y-73558057D01*
X188465654Y-73561103D01*
X188460392Y-73567028D01*
X188452137Y-73575446D01*
X188441312Y-73585974D01*
X188428339Y-73598225D01*
X188413643Y-73611816D01*
X188397646Y-73626361D01*
X188380772Y-73641476D01*
X188363443Y-73656775D01*
X188346083Y-73671873D01*
X188329114Y-73686387D01*
X188312961Y-73699930D01*
X188298695Y-73711596D01*
X188248703Y-73750545D01*
X188195923Y-73789192D01*
X188140862Y-73827255D01*
X188084030Y-73864452D01*
X188025937Y-73900501D01*
X187967092Y-73935118D01*
X187908003Y-73968021D01*
X187849181Y-73998928D01*
X187791135Y-74027556D01*
X187734373Y-74053623D01*
X187679406Y-74076845D01*
X187626742Y-74096941D01*
X187576891Y-74113628D01*
X187570533Y-74115566D01*
X187521848Y-74128963D01*
X187473738Y-74139746D01*
X187426810Y-74147835D01*
X187381674Y-74153154D01*
X187338939Y-74155623D01*
X187299214Y-74155165D01*
X187275741Y-74153310D01*
X187249170Y-74149395D01*
X187221225Y-74143462D01*
X187193381Y-74135926D01*
X187167118Y-74127200D01*
X187143911Y-74117701D01*
X187137010Y-74114383D01*
X187115177Y-74102108D01*
X187093170Y-74087374D01*
X187071847Y-74070923D01*
X187052066Y-74053496D01*
X187034685Y-74035833D01*
X187020560Y-74018676D01*
X187013025Y-74007286D01*
X186999346Y-73980359D01*
X186989523Y-73952722D01*
X186983310Y-73923395D01*
X186980457Y-73891400D01*
X186980201Y-73877625D01*
X186982089Y-73841232D01*
X186987873Y-73804133D01*
X186997643Y-73766082D01*
X187011493Y-73726835D01*
X187029513Y-73686148D01*
X187051796Y-73643775D01*
X187078432Y-73599473D01*
X187092561Y-73577794D01*
X187100421Y-73566105D01*
X187107890Y-73555165D01*
X187114237Y-73546033D01*
X187118731Y-73539770D01*
X187119507Y-73538740D01*
X187122915Y-73533405D01*
X187125615Y-73526723D01*
X187127964Y-73517533D01*
X187130320Y-73504669D01*
X187130719Y-73502206D01*
X187139883Y-73455305D01*
X187152532Y-73406389D01*
X187168247Y-73356632D01*
X187186611Y-73307208D01*
X187207204Y-73259289D01*
X187229610Y-73214048D01*
X187240318Y-73194623D01*
X187252174Y-73174676D01*
X187266202Y-73152416D01*
X187281538Y-73129121D01*
X187297318Y-73106072D01*
X187312679Y-73084546D01*
X187326758Y-73065823D01*
X187330337Y-73061277D01*
X187341794Y-73047562D01*
X187356141Y-73031415D01*
X187372540Y-73013698D01*
X187390150Y-72995272D01*
X187408134Y-72976998D01*
X187425652Y-72959737D01*
X187441864Y-72944351D01*
X187455933Y-72931701D01*
X187459671Y-72928517D01*
X187515409Y-72884738D01*
X187572496Y-72845711D01*
X187631172Y-72811332D01*
X187691675Y-72781494D01*
X187754245Y-72756094D01*
X187819121Y-72735025D01*
X187886544Y-72718181D01*
X187956751Y-72705459D01*
X187971148Y-72703399D01*
X187986349Y-72701755D01*
X188005534Y-72700356D01*
X188027651Y-72699224D01*
X188051649Y-72698380D01*
X188076476Y-72697845D01*
X188101082Y-72697641D01*
X188124416Y-72697788D01*
G37*
G36*
X188411871Y-73680052D02*
G01*
X188414346Y-73680907D01*
X188416879Y-73682199D01*
X188419130Y-73683419D01*
X188422342Y-73685944D01*
X188428677Y-73691660D01*
X188437721Y-73700169D01*
X188449063Y-73711072D01*
X188462288Y-73723970D01*
X188476984Y-73738466D01*
X188492737Y-73754160D01*
X188499632Y-73761076D01*
X188573330Y-73835151D01*
X188573330Y-73846202D01*
X188573330Y-73857253D01*
X188506611Y-73924141D01*
X188439892Y-73991028D01*
X188506611Y-74057883D01*
X188573330Y-74124739D01*
X188573330Y-74135839D01*
X188573330Y-74146939D01*
X188423990Y-74296366D01*
X188274651Y-74445793D01*
X188263412Y-74445793D01*
X188252173Y-74445793D01*
X188174650Y-74368270D01*
X188097127Y-74290747D01*
X188097127Y-74279718D01*
X188097127Y-74279500D01*
X188155078Y-74279500D01*
X188156811Y-74282276D01*
X188161646Y-74287982D01*
X188169036Y-74296072D01*
X188178436Y-74305998D01*
X188189298Y-74317216D01*
X188201078Y-74329177D01*
X188213228Y-74341336D01*
X188225203Y-74353146D01*
X188236456Y-74364061D01*
X188246442Y-74373534D01*
X188254613Y-74381019D01*
X188260423Y-74385970D01*
X188263327Y-74387839D01*
X188263376Y-74387842D01*
X188266059Y-74386121D01*
X188271800Y-74381255D01*
X188280120Y-74373690D01*
X188290543Y-74363870D01*
X188302588Y-74352242D01*
X188315779Y-74339251D01*
X188319459Y-74335583D01*
X188332752Y-74322177D01*
X188344801Y-74309787D01*
X188355159Y-74298890D01*
X188363382Y-74289964D01*
X188369022Y-74283488D01*
X188371634Y-74279938D01*
X188371763Y-74279544D01*
X188370029Y-74276755D01*
X188365193Y-74271037D01*
X188357801Y-74262937D01*
X188348398Y-74253001D01*
X188337532Y-74241776D01*
X188325748Y-74229809D01*
X188313593Y-74217646D01*
X188301614Y-74205834D01*
X188290356Y-74194918D01*
X188280366Y-74185447D01*
X188272190Y-74177966D01*
X188266374Y-74173021D01*
X188263466Y-74171160D01*
X188263420Y-74171157D01*
X188260638Y-74172891D01*
X188254927Y-74177727D01*
X188246834Y-74185120D01*
X188236905Y-74194523D01*
X188225686Y-74205390D01*
X188213724Y-74217174D01*
X188201566Y-74229330D01*
X188189757Y-74241309D01*
X188178844Y-74252567D01*
X188169374Y-74262557D01*
X188161892Y-74270732D01*
X188156946Y-74276546D01*
X188155081Y-74279453D01*
X188155078Y-74279500D01*
X188097127Y-74279500D01*
X188097127Y-74268689D01*
X188163831Y-74201656D01*
X188229181Y-74135984D01*
X188298695Y-74135984D01*
X188300429Y-74138748D01*
X188305269Y-74144440D01*
X188312667Y-74152513D01*
X188322076Y-74162422D01*
X188332951Y-74173622D01*
X188344744Y-74185567D01*
X188356909Y-74197711D01*
X188368899Y-74209510D01*
X188380168Y-74220417D01*
X188390168Y-74229888D01*
X188398355Y-74237375D01*
X188404180Y-74242335D01*
X188407097Y-74244222D01*
X188407152Y-74244225D01*
X188409794Y-74242505D01*
X188415496Y-74237641D01*
X188423783Y-74230077D01*
X188434177Y-74220261D01*
X188446203Y-74208636D01*
X188459383Y-74195648D01*
X188463076Y-74191966D01*
X188476369Y-74178560D01*
X188488418Y-74166170D01*
X188498776Y-74155273D01*
X188506998Y-74146348D01*
X188512639Y-74139871D01*
X188515251Y-74136321D01*
X188515380Y-74135928D01*
X188513646Y-74133138D01*
X188508810Y-74127420D01*
X188501417Y-74119320D01*
X188492015Y-74109384D01*
X188481149Y-74098160D01*
X188469365Y-74086192D01*
X188457210Y-74074029D01*
X188445231Y-74062217D01*
X188433973Y-74051302D01*
X188423982Y-74041830D01*
X188415807Y-74034349D01*
X188409991Y-74029404D01*
X188407083Y-74027543D01*
X188407037Y-74027541D01*
X188404241Y-74029276D01*
X188398520Y-74034116D01*
X188390418Y-74041515D01*
X188380484Y-74050925D01*
X188369262Y-74061801D01*
X188357299Y-74073595D01*
X188345141Y-74085761D01*
X188333336Y-74097751D01*
X188322427Y-74109020D01*
X188312963Y-74119020D01*
X188305489Y-74127204D01*
X188300552Y-74133027D01*
X188298697Y-74135940D01*
X188298695Y-74135984D01*
X188229181Y-74135984D01*
X188230535Y-74134623D01*
X188163831Y-74067837D01*
X188146658Y-74050627D01*
X188132717Y-74036588D01*
X188121670Y-74025331D01*
X188113182Y-74016469D01*
X188106916Y-74009613D01*
X188102535Y-74004377D01*
X188099703Y-74000371D01*
X188098084Y-73997209D01*
X188097339Y-73994502D01*
X188097134Y-73991862D01*
X188097129Y-73991229D01*
X188155078Y-73991229D01*
X188156786Y-73994160D01*
X188161552Y-73999979D01*
X188168843Y-74008145D01*
X188178124Y-74018121D01*
X188188859Y-74029365D01*
X188200513Y-74041339D01*
X188212553Y-74053503D01*
X188224444Y-74065318D01*
X188235650Y-74076244D01*
X188245637Y-74085740D01*
X188253870Y-74093269D01*
X188259814Y-74098290D01*
X188262935Y-74100264D01*
X188263142Y-74100259D01*
X188265541Y-74098312D01*
X188271033Y-74093247D01*
X188279151Y-74085514D01*
X188289428Y-74075561D01*
X188301400Y-74063839D01*
X188314598Y-74050797D01*
X188318784Y-74046637D01*
X188332165Y-74033235D01*
X188344305Y-74020904D01*
X188354760Y-74010109D01*
X188363088Y-74001314D01*
X188368847Y-73994981D01*
X188371593Y-73991574D01*
X188371763Y-73991184D01*
X188370043Y-73988780D01*
X188365177Y-73983294D01*
X188357601Y-73975186D01*
X188347754Y-73964916D01*
X188336074Y-73952945D01*
X188322999Y-73939730D01*
X188317930Y-73934654D01*
X188302426Y-73919215D01*
X188290052Y-73907040D01*
X188280414Y-73897786D01*
X188273121Y-73891111D01*
X188267782Y-73886673D01*
X188264006Y-73884130D01*
X188261399Y-73883139D01*
X188259572Y-73883359D01*
X188259350Y-73883470D01*
X188255420Y-73886454D01*
X188248823Y-73892382D01*
X188240101Y-73900692D01*
X188229797Y-73910825D01*
X188218454Y-73922217D01*
X188206615Y-73934309D01*
X188194823Y-73946538D01*
X188183622Y-73958344D01*
X188173554Y-73969166D01*
X188165162Y-73978442D01*
X188158989Y-73985611D01*
X188155580Y-73990111D01*
X188155078Y-73991229D01*
X188097129Y-73991229D01*
X188097127Y-73990961D01*
X188097184Y-73989120D01*
X188097504Y-73987239D01*
X188098310Y-73985081D01*
X188099828Y-73982407D01*
X188102280Y-73978977D01*
X188105890Y-73974553D01*
X188110884Y-73968896D01*
X188117483Y-73961767D01*
X188125913Y-73952928D01*
X188136398Y-73942139D01*
X188149160Y-73929162D01*
X188164425Y-73913758D01*
X188182417Y-73895688D01*
X188203358Y-73874713D01*
X188227473Y-73850595D01*
X188231940Y-73846130D01*
X188298695Y-73846130D01*
X188300428Y-73848906D01*
X188305262Y-73854613D01*
X188312653Y-73862702D01*
X188322052Y-73872629D01*
X188332915Y-73883846D01*
X188344695Y-73895807D01*
X188356845Y-73907966D01*
X188368820Y-73919776D01*
X188380073Y-73930691D01*
X188390058Y-73940164D01*
X188398229Y-73947649D01*
X188404040Y-73952600D01*
X188406944Y-73954470D01*
X188406993Y-73954472D01*
X188409676Y-73952751D01*
X188415417Y-73947886D01*
X188423737Y-73940320D01*
X188434159Y-73930500D01*
X188446205Y-73918872D01*
X188459396Y-73905881D01*
X188463076Y-73902213D01*
X188476369Y-73888807D01*
X188488418Y-73876417D01*
X188498776Y-73865520D01*
X188506998Y-73856595D01*
X188512639Y-73850118D01*
X188515251Y-73846568D01*
X188515380Y-73846175D01*
X188513646Y-73843385D01*
X188508810Y-73837667D01*
X188501417Y-73829567D01*
X188492015Y-73819631D01*
X188481149Y-73808407D01*
X188469365Y-73796439D01*
X188457210Y-73784276D01*
X188445231Y-73772464D01*
X188433973Y-73761549D01*
X188423982Y-73752077D01*
X188415807Y-73744596D01*
X188409991Y-73739651D01*
X188407083Y-73737790D01*
X188407037Y-73737788D01*
X188404255Y-73739521D01*
X188398544Y-73744358D01*
X188390451Y-73751751D01*
X188380521Y-73761154D01*
X188369303Y-73772021D01*
X188357341Y-73783805D01*
X188345182Y-73795960D01*
X188333374Y-73807940D01*
X188322461Y-73819198D01*
X188312990Y-73829187D01*
X188305509Y-73837362D01*
X188300562Y-73843176D01*
X188298697Y-73846083D01*
X188298695Y-73846130D01*
X188231940Y-73846130D01*
X188247722Y-73830354D01*
X188274809Y-73803276D01*
X188298565Y-73779543D01*
X188319230Y-73758947D01*
X188337047Y-73741280D01*
X188352259Y-73726335D01*
X188365107Y-73713904D01*
X188375834Y-73703779D01*
X188384682Y-73695753D01*
X188391893Y-73689619D01*
X188397710Y-73685169D01*
X188402373Y-73682194D01*
X188406127Y-73680489D01*
X188409212Y-73679844D01*
X188411871Y-73680052D01*
G37*
G36*
X187763579Y-73307010D02*
G01*
X187767039Y-73309392D01*
X187773575Y-73314926D01*
X187782719Y-73323178D01*
X187794004Y-73333714D01*
X187806966Y-73346099D01*
X187821138Y-73359900D01*
X187832686Y-73371323D01*
X187850523Y-73388995D01*
X187865164Y-73403280D01*
X187876890Y-73414435D01*
X187885986Y-73422718D01*
X187892736Y-73428385D01*
X187897422Y-73431694D01*
X187900328Y-73432901D01*
X187900595Y-73432917D01*
X187903336Y-73431951D01*
X187907862Y-73428882D01*
X187914456Y-73423455D01*
X187923404Y-73415414D01*
X187934988Y-73404503D01*
X187949495Y-73390469D01*
X187967184Y-73373077D01*
X187981563Y-73358835D01*
X187994771Y-73345703D01*
X188006388Y-73334104D01*
X188015990Y-73324461D01*
X188023156Y-73317197D01*
X188027466Y-73312736D01*
X188028567Y-73311488D01*
X188031968Y-73308995D01*
X188038232Y-73306929D01*
X188045182Y-73305800D01*
X188050643Y-73306117D01*
X188051010Y-73306243D01*
X188054258Y-73308569D01*
X188060565Y-73314036D01*
X188069465Y-73322184D01*
X188080493Y-73332553D01*
X188093182Y-73344683D01*
X188107065Y-73358114D01*
X188121677Y-73372386D01*
X188136552Y-73387039D01*
X188151223Y-73401614D01*
X188165223Y-73415650D01*
X188178088Y-73428688D01*
X188189351Y-73440268D01*
X188198545Y-73449931D01*
X188205205Y-73457215D01*
X188208864Y-73461661D01*
X188209332Y-73462426D01*
X188211783Y-73471020D01*
X188211522Y-73477095D01*
X188209457Y-73480076D01*
X188204114Y-73486256D01*
X188195818Y-73495311D01*
X188184893Y-73506917D01*
X188171661Y-73520749D01*
X188156447Y-73536482D01*
X188139575Y-73553792D01*
X188121367Y-73572355D01*
X188102148Y-73591845D01*
X188082241Y-73611938D01*
X188061970Y-73632309D01*
X188041659Y-73652635D01*
X188021630Y-73672590D01*
X188002208Y-73691851D01*
X187983717Y-73710091D01*
X187966479Y-73726988D01*
X187950819Y-73742215D01*
X187937060Y-73755449D01*
X187925526Y-73766366D01*
X187916541Y-73774640D01*
X187910427Y-73779947D01*
X187907528Y-73781958D01*
X187899580Y-73782656D01*
X187893670Y-73781952D01*
X187889734Y-73779573D01*
X187882514Y-73773655D01*
X187872164Y-73764338D01*
X187858838Y-73751768D01*
X187842693Y-73736086D01*
X187825137Y-73718689D01*
X187808352Y-73701974D01*
X187794710Y-73688521D01*
X187783828Y-73677992D01*
X187775325Y-73670047D01*
X187768818Y-73664346D01*
X187763925Y-73660550D01*
X187760266Y-73658320D01*
X187757458Y-73657316D01*
X187755912Y-73657161D01*
X187753476Y-73657549D01*
X187750432Y-73658936D01*
X187746405Y-73661658D01*
X187741017Y-73666048D01*
X187733893Y-73672443D01*
X187724655Y-73681177D01*
X187712928Y-73692586D01*
X187698335Y-73707003D01*
X187685125Y-73720150D01*
X187668415Y-73736794D01*
X187654863Y-73750217D01*
X187644066Y-73760763D01*
X187635623Y-73768780D01*
X187629132Y-73774614D01*
X187624191Y-73778610D01*
X187620399Y-73781114D01*
X187617355Y-73782473D01*
X187614656Y-73783033D01*
X187612016Y-73783140D01*
X187610191Y-73783074D01*
X187608305Y-73782726D01*
X187606119Y-73781872D01*
X187603395Y-73780288D01*
X187599893Y-73777751D01*
X187595375Y-73774037D01*
X187589603Y-73768921D01*
X187582337Y-73762181D01*
X187573340Y-73753591D01*
X187562373Y-73742929D01*
X187549196Y-73729969D01*
X187533571Y-73714489D01*
X187515260Y-73696265D01*
X187494024Y-73675072D01*
X187469624Y-73650688D01*
X187451506Y-73632571D01*
X187435513Y-73616576D01*
X187502885Y-73616576D01*
X187502898Y-73616768D01*
X187504930Y-73619406D01*
X187510000Y-73624958D01*
X187517567Y-73632887D01*
X187527093Y-73642659D01*
X187538038Y-73653738D01*
X187549862Y-73665589D01*
X187562025Y-73677674D01*
X187573989Y-73689459D01*
X187585214Y-73700409D01*
X187595159Y-73709987D01*
X187603287Y-73717657D01*
X187609056Y-73722884D01*
X187611928Y-73725133D01*
X187612085Y-73725181D01*
X187614430Y-73723466D01*
X187619862Y-73718609D01*
X187627922Y-73711048D01*
X187638151Y-73701222D01*
X187650089Y-73689568D01*
X187663277Y-73676525D01*
X187668145Y-73671670D01*
X187681584Y-73658165D01*
X187693789Y-73645753D01*
X187704320Y-73634891D01*
X187712739Y-73626037D01*
X187718608Y-73619649D01*
X187720938Y-73616847D01*
X187792257Y-73616847D01*
X187793990Y-73619624D01*
X187798825Y-73625330D01*
X187806215Y-73633419D01*
X187815614Y-73643346D01*
X187826477Y-73654563D01*
X187838257Y-73666524D01*
X187850407Y-73678683D01*
X187862382Y-73690493D01*
X187873635Y-73701408D01*
X187883620Y-73710881D01*
X187891792Y-73718366D01*
X187897602Y-73723317D01*
X187900506Y-73725187D01*
X187900555Y-73725190D01*
X187903238Y-73723469D01*
X187908979Y-73718603D01*
X187917299Y-73711037D01*
X187927721Y-73701218D01*
X187939767Y-73689590D01*
X187952958Y-73676598D01*
X187956638Y-73672931D01*
X187969931Y-73659524D01*
X187981980Y-73647134D01*
X187992338Y-73636237D01*
X188000560Y-73627312D01*
X188006201Y-73620835D01*
X188008813Y-73617285D01*
X188008942Y-73616892D01*
X188007208Y-73614102D01*
X188002372Y-73608384D01*
X187994980Y-73600284D01*
X187985577Y-73590349D01*
X187974711Y-73579124D01*
X187962927Y-73567157D01*
X187950772Y-73554994D01*
X187938793Y-73543181D01*
X187927535Y-73532266D01*
X187917545Y-73522794D01*
X187909369Y-73515313D01*
X187903553Y-73510369D01*
X187900645Y-73508507D01*
X187900599Y-73508505D01*
X187897817Y-73510238D01*
X187892106Y-73515075D01*
X187884013Y-73522468D01*
X187874084Y-73531871D01*
X187862865Y-73542738D01*
X187850903Y-73554522D01*
X187838745Y-73566677D01*
X187826936Y-73578657D01*
X187816023Y-73589915D01*
X187806552Y-73599904D01*
X187799071Y-73608079D01*
X187794124Y-73613894D01*
X187792260Y-73616800D01*
X187792257Y-73616847D01*
X187720938Y-73616847D01*
X187721488Y-73616185D01*
X187721708Y-73615746D01*
X187719995Y-73613416D01*
X187715150Y-73607998D01*
X187707617Y-73599958D01*
X187697837Y-73589759D01*
X187686254Y-73577869D01*
X187673310Y-73564750D01*
X187669506Y-73560923D01*
X187652246Y-73543773D01*
X187637885Y-73529891D01*
X187626534Y-73519378D01*
X187618307Y-73512337D01*
X187613314Y-73508871D01*
X187612163Y-73508505D01*
X187609131Y-73510215D01*
X187603223Y-73514987D01*
X187594979Y-73522287D01*
X187584939Y-73531580D01*
X187573644Y-73542330D01*
X187561633Y-73554002D01*
X187549446Y-73566061D01*
X187537624Y-73577972D01*
X187526707Y-73589200D01*
X187517234Y-73599209D01*
X187509746Y-73607465D01*
X187504783Y-73613433D01*
X187502885Y-73616576D01*
X187435513Y-73616576D01*
X187424872Y-73605933D01*
X187401579Y-73582617D01*
X187381403Y-73562386D01*
X187364122Y-73545000D01*
X187349509Y-73530220D01*
X187337342Y-73517809D01*
X187327398Y-73507526D01*
X187319451Y-73499135D01*
X187313278Y-73492395D01*
X187308656Y-73487069D01*
X187305359Y-73482917D01*
X187303166Y-73479701D01*
X187301851Y-73477183D01*
X187301190Y-73475123D01*
X187300961Y-73473282D01*
X187300937Y-73472044D01*
X187300955Y-73471612D01*
X187358887Y-73471612D01*
X187360605Y-73474063D01*
X187365402Y-73479487D01*
X187372742Y-73487347D01*
X187382089Y-73497103D01*
X187392907Y-73508219D01*
X187404661Y-73520156D01*
X187416815Y-73532376D01*
X187428833Y-73544341D01*
X187440179Y-73555513D01*
X187450318Y-73565354D01*
X187458713Y-73573327D01*
X187464830Y-73578892D01*
X187468131Y-73581513D01*
X187468467Y-73581646D01*
X187470807Y-73579928D01*
X187476194Y-73575035D01*
X187484169Y-73567411D01*
X187494276Y-73557502D01*
X187506055Y-73545754D01*
X187519051Y-73532611D01*
X187523290Y-73528287D01*
X187536511Y-73514643D01*
X187548504Y-73502014D01*
X187558829Y-73490883D01*
X187567048Y-73481730D01*
X187572722Y-73475040D01*
X187575412Y-73471293D01*
X187575550Y-73470879D01*
X187647849Y-73470879D01*
X187648673Y-73473367D01*
X187651014Y-73476986D01*
X187655216Y-73482125D01*
X187661619Y-73489175D01*
X187670565Y-73498525D01*
X187682395Y-73510567D01*
X187697451Y-73525690D01*
X187699472Y-73527712D01*
X187713025Y-73541187D01*
X187725487Y-73553430D01*
X187736402Y-73564002D01*
X187745311Y-73572467D01*
X187751760Y-73578388D01*
X187755290Y-73581328D01*
X187755766Y-73581573D01*
X187758095Y-73579856D01*
X187763512Y-73574998D01*
X187771558Y-73567436D01*
X187781776Y-73557609D01*
X187793705Y-73545955D01*
X187806889Y-73532913D01*
X187811762Y-73528054D01*
X187825205Y-73514537D01*
X187837411Y-73502098D01*
X187847944Y-73491197D01*
X187856363Y-73482296D01*
X187862230Y-73475853D01*
X187865106Y-73472330D01*
X187865298Y-73471927D01*
X187935874Y-73471927D01*
X187937594Y-73474349D01*
X187942398Y-73479740D01*
X187949748Y-73487562D01*
X187959108Y-73497280D01*
X187969941Y-73508355D01*
X187981709Y-73520253D01*
X187993876Y-73532434D01*
X188005906Y-73544364D01*
X188017261Y-73555504D01*
X188027404Y-73565319D01*
X188035798Y-73573271D01*
X188041908Y-73578823D01*
X188045195Y-73581440D01*
X188045531Y-73581573D01*
X188047903Y-73579851D01*
X188053352Y-73574980D01*
X188061420Y-73567397D01*
X188071647Y-73557543D01*
X188083574Y-73545856D01*
X188096743Y-73532778D01*
X188101614Y-73527898D01*
X188115023Y-73514364D01*
X188127200Y-73501934D01*
X188137709Y-73491066D01*
X188146113Y-73482216D01*
X188151974Y-73475842D01*
X188154855Y-73472401D01*
X188155078Y-73471971D01*
X188153360Y-73469592D01*
X188148563Y-73464240D01*
X188141224Y-73456449D01*
X188131878Y-73446758D01*
X188121062Y-73435702D01*
X188109311Y-73423818D01*
X188097162Y-73411642D01*
X188085150Y-73399712D01*
X188073812Y-73388563D01*
X188063684Y-73378732D01*
X188055302Y-73370756D01*
X188049202Y-73365172D01*
X188045920Y-73362515D01*
X188045575Y-73362369D01*
X188043157Y-73364088D01*
X188037769Y-73368887D01*
X188029946Y-73376231D01*
X188020226Y-73385583D01*
X188009147Y-73396406D01*
X187997244Y-73408164D01*
X187985056Y-73420321D01*
X187973120Y-73432340D01*
X187961972Y-73443684D01*
X187952150Y-73453818D01*
X187944190Y-73462204D01*
X187938631Y-73468307D01*
X187936008Y-73471590D01*
X187935874Y-73471927D01*
X187865298Y-73471927D01*
X187865325Y-73471871D01*
X187863612Y-73469538D01*
X187858831Y-73464222D01*
X187851517Y-73456461D01*
X187842207Y-73446794D01*
X187831435Y-73435758D01*
X187819737Y-73423892D01*
X187807650Y-73411736D01*
X187795709Y-73399826D01*
X187784450Y-73388702D01*
X187774408Y-73378902D01*
X187766120Y-73370964D01*
X187760120Y-73365428D01*
X187756945Y-73362830D01*
X187756722Y-73362719D01*
X187754391Y-73364205D01*
X187749072Y-73368757D01*
X187741304Y-73375842D01*
X187731631Y-73384930D01*
X187720594Y-73395490D01*
X187708733Y-73406992D01*
X187696590Y-73418903D01*
X187684707Y-73430693D01*
X187673626Y-73441832D01*
X187663887Y-73451787D01*
X187656033Y-73460029D01*
X187650604Y-73466027D01*
X187648202Y-73469131D01*
X187647849Y-73470879D01*
X187575550Y-73470879D01*
X187575572Y-73470814D01*
X187573861Y-73468064D01*
X187569085Y-73462416D01*
X187561781Y-73454409D01*
X187552485Y-73444579D01*
X187541736Y-73433463D01*
X187530068Y-73421599D01*
X187518020Y-73409524D01*
X187506127Y-73397775D01*
X187494927Y-73386889D01*
X187484956Y-73377405D01*
X187476751Y-73369858D01*
X187470849Y-73364786D01*
X187467786Y-73362726D01*
X187467574Y-73362718D01*
X187464901Y-73364773D01*
X187459311Y-73369851D01*
X187451343Y-73377417D01*
X187441532Y-73386931D01*
X187430415Y-73397855D01*
X187418531Y-73409652D01*
X187406415Y-73421783D01*
X187394604Y-73433711D01*
X187383636Y-73444897D01*
X187374048Y-73454804D01*
X187366376Y-73462893D01*
X187361158Y-73468626D01*
X187358930Y-73471466D01*
X187358887Y-73471612D01*
X187300955Y-73471612D01*
X187301041Y-73469510D01*
X187301564Y-73466985D01*
X187302823Y-73464110D01*
X187305134Y-73460525D01*
X187308815Y-73455869D01*
X187314180Y-73449782D01*
X187321548Y-73441905D01*
X187331233Y-73431876D01*
X187343554Y-73419337D01*
X187358826Y-73403926D01*
X187375894Y-73386764D01*
X187393252Y-73369435D01*
X187409373Y-73353561D01*
X187423894Y-73339488D01*
X187436448Y-73327561D01*
X187446671Y-73318127D01*
X187454197Y-73311531D01*
X187458660Y-73308121D01*
X187459226Y-73307818D01*
X187466409Y-73305786D01*
X187472656Y-73305702D01*
X187473084Y-73305812D01*
X187476119Y-73307921D01*
X187482254Y-73313182D01*
X187491036Y-73321170D01*
X187502013Y-73331463D01*
X187514732Y-73343637D01*
X187528741Y-73357269D01*
X187540298Y-73368667D01*
X187555004Y-73383147D01*
X187568778Y-73396500D01*
X187581168Y-73408304D01*
X187591719Y-73418135D01*
X187599979Y-73425569D01*
X187605495Y-73430183D01*
X187607602Y-73431552D01*
X187614186Y-73431723D01*
X187618940Y-73430271D01*
X187622062Y-73427840D01*
X187628281Y-73422281D01*
X187637136Y-73414034D01*
X187648163Y-73403537D01*
X187660900Y-73391229D01*
X187674884Y-73377549D01*
X187685174Y-73367386D01*
X187699721Y-73353069D01*
X187713326Y-73339885D01*
X187725531Y-73328259D01*
X187735878Y-73318620D01*
X187743912Y-73311395D01*
X187749175Y-73307012D01*
X187750981Y-73305859D01*
X187757207Y-73305581D01*
X187763579Y-73307010D01*
G37*
%TD*%
%LPC*%
%TO.C,U102*%
D12*
X178655000Y-74755000D02*
X188055000Y-74755000D01*
X188055000Y-84985000D01*
X178655000Y-84985000D01*
X178655000Y-74755000D01*
G36*
X178655000Y-74755000D02*
G01*
X188055000Y-74755000D01*
X188055000Y-84985000D01*
X178655000Y-84985000D01*
X178655000Y-74755000D01*
G37*
D13*
%TO.C,G\u002A\u002A\u002A*%
X189326134Y-72615432D02*
X189326524Y-72619852D01*
X189325832Y-72627724D01*
X189324015Y-72639461D01*
X189321028Y-72655476D01*
X189319207Y-72664596D01*
X189305683Y-72720969D01*
X189288053Y-72776679D01*
X189266197Y-72831951D01*
X189239999Y-72887014D01*
X189209338Y-72942095D01*
X189174097Y-72997422D01*
X189134157Y-73053223D01*
X189089400Y-73109724D01*
X189084382Y-73115748D01*
X189072268Y-73129710D01*
X189057249Y-73146213D01*
X189040154Y-73164411D01*
X189021809Y-73183459D01*
X189003043Y-73202511D01*
X188984681Y-73220722D01*
X188967552Y-73237245D01*
X188952484Y-73251235D01*
X188947191Y-73255957D01*
X188938188Y-73263715D01*
X188926898Y-73273211D01*
X188914161Y-73283762D01*
X188900815Y-73294689D01*
X188887699Y-73305307D01*
X188875651Y-73314938D01*
X188865511Y-73322897D01*
X188858117Y-73328505D01*
X188856478Y-73329684D01*
X188854947Y-73331111D01*
X188853589Y-73333429D01*
X188852309Y-73337176D01*
X188851012Y-73342886D01*
X188849602Y-73351097D01*
X188847983Y-73362344D01*
X188846060Y-73377163D01*
X188843737Y-73396092D01*
X188841890Y-73411501D01*
X188839536Y-73431144D01*
X188837316Y-73449474D01*
X188835314Y-73465809D01*
X188833614Y-73479469D01*
X188832301Y-73489771D01*
X188831459Y-73496037D01*
X188831266Y-73497301D01*
X188829216Y-73501981D01*
X188824186Y-73510171D01*
X188816425Y-73521512D01*
X188806179Y-73535643D01*
X188793696Y-73552205D01*
X188792327Y-73553992D01*
X188782457Y-73566848D01*
X188770089Y-73582968D01*
X188755788Y-73601613D01*
X188740119Y-73622045D01*
X188723648Y-73643528D01*
X188706940Y-73665324D01*
X188690562Y-73686694D01*
X188684801Y-73694212D01*
X188670446Y-73712904D01*
X188657014Y-73730312D01*
X188644817Y-73746038D01*
X188634167Y-73759683D01*
X188625376Y-73770850D01*
X188618755Y-73779141D01*
X188614616Y-73784156D01*
X188613285Y-73785547D01*
X188612458Y-73783260D01*
X188611537Y-73777011D01*
X188610658Y-73767872D01*
X188610185Y-73761094D01*
X188609790Y-73752620D01*
X188609354Y-73739910D01*
X188608896Y-73723765D01*
X188608437Y-73704989D01*
X188607996Y-73684383D01*
X188607594Y-73662749D01*
X188607361Y-73648342D01*
X188606993Y-73626194D01*
X188606573Y-73604304D01*
X188606120Y-73583522D01*
X188605656Y-73564699D01*
X188605201Y-73548689D01*
X188604775Y-73536341D01*
X188604536Y-73530927D01*
X188603053Y-73501697D01*
X188559846Y-73518795D01*
X188516639Y-73535893D01*
X188502947Y-73520309D01*
X188495794Y-73512451D01*
X188486220Y-73502338D01*
X188474910Y-73490654D01*
X188462548Y-73478084D01*
X188449818Y-73465312D01*
X188437407Y-73453022D01*
X188425997Y-73441898D01*
X188416273Y-73432625D01*
X188408922Y-73425886D01*
X188405851Y-73423278D01*
X188395847Y-73415310D01*
X188413740Y-73371202D01*
X188419172Y-73357459D01*
X188423641Y-73345458D01*
X188426904Y-73335915D01*
X188428717Y-73329543D01*
X188428838Y-73327058D01*
X188428784Y-73327048D01*
X188425790Y-73326949D01*
X188418235Y-73326682D01*
X188406592Y-73326264D01*
X188391334Y-73325713D01*
X188372935Y-73325045D01*
X188351870Y-73324277D01*
X188328611Y-73323428D01*
X188303634Y-73322513D01*
X188291136Y-73322055D01*
X188265431Y-73321114D01*
X188241161Y-73320230D01*
X188218809Y-73319420D01*
X188198857Y-73318702D01*
X188181787Y-73318092D01*
X188168080Y-73317608D01*
X188158219Y-73317267D01*
X188152686Y-73317087D01*
X188151719Y-73317062D01*
X188148271Y-73316081D01*
X188147939Y-73314863D01*
X188150100Y-73312901D01*
X188155916Y-73308248D01*
X188164990Y-73301199D01*
X188176929Y-73292050D01*
X188191337Y-73281094D01*
X188207817Y-73268626D01*
X188225976Y-73254943D01*
X188245418Y-73240338D01*
X188265747Y-73225107D01*
X188286568Y-73209545D01*
X188307486Y-73193947D01*
X188328106Y-73178607D01*
X188348032Y-73163820D01*
X188366869Y-73149882D01*
X188384222Y-73137088D01*
X188399695Y-73125732D01*
X188412893Y-73116110D01*
X188423421Y-73108516D01*
X188430884Y-73103245D01*
X188434886Y-73100593D01*
X188435439Y-73100331D01*
X188439994Y-73100049D01*
X188448544Y-73099259D01*
X188460378Y-73098045D01*
X188474783Y-73096489D01*
X188491048Y-73094676D01*
X188508458Y-73092689D01*
X188526304Y-73090611D01*
X188543871Y-73088525D01*
X188560448Y-73086516D01*
X188575322Y-73084666D01*
X188587782Y-73083060D01*
X188597115Y-73081780D01*
X188602608Y-73080910D01*
X188603781Y-73080606D01*
X188605839Y-73078080D01*
X188610369Y-73072430D01*
X188616712Y-73064483D01*
X188624208Y-73055062D01*
X188624554Y-73054626D01*
X188648963Y-73025098D01*
X188676463Y-72993907D01*
X188705988Y-72962163D01*
X188736470Y-72930974D01*
X188739557Y-72927973D01*
X188932130Y-72927973D01*
X188933331Y-72944392D01*
X188937553Y-72958972D01*
X188937809Y-72959542D01*
X188948280Y-72976525D01*
X188962519Y-72990647D01*
X188979750Y-73001220D01*
X188989063Y-73004901D01*
X188999287Y-73006554D01*
X189012173Y-73006216D01*
X189025856Y-73004109D01*
X189038471Y-73000454D01*
X189043108Y-72998459D01*
X189058899Y-72988057D01*
X189071192Y-72974245D01*
X189079659Y-72957533D01*
X189083969Y-72938429D01*
X189084273Y-72934853D01*
X189083262Y-72915089D01*
X189077859Y-72897226D01*
X189068508Y-72881769D01*
X189055654Y-72869224D01*
X189039741Y-72860095D01*
X189021213Y-72854887D01*
X189013168Y-72854014D01*
X188993204Y-72855089D01*
X188975161Y-72860747D01*
X188959390Y-72870782D01*
X188946243Y-72884990D01*
X188938677Y-72897532D01*
X188933921Y-72911694D01*
X188932130Y-72927973D01*
X188739557Y-72927973D01*
X188766844Y-72901448D01*
X188796043Y-72874694D01*
X188806392Y-72865670D01*
X188832669Y-72843867D01*
X188861658Y-72821139D01*
X188892156Y-72798362D01*
X188922958Y-72776411D01*
X188952862Y-72756159D01*
X188980662Y-72738483D01*
X188985283Y-72735683D01*
X189037214Y-72706644D01*
X189090458Y-72681055D01*
X189144172Y-72659272D01*
X189197509Y-72641651D01*
X189229202Y-72633169D01*
X189241795Y-72630221D01*
X189256103Y-72627052D01*
X189271176Y-72623852D01*
X189286064Y-72620812D01*
X189299817Y-72618121D01*
X189311484Y-72615970D01*
X189320115Y-72614550D01*
X189324709Y-72614050D01*
X189326134Y-72615432D01*
G36*
X189326134Y-72615432D02*
G01*
X189326524Y-72619852D01*
X189325832Y-72627724D01*
X189324015Y-72639461D01*
X189321028Y-72655476D01*
X189319207Y-72664596D01*
X189305683Y-72720969D01*
X189288053Y-72776679D01*
X189266197Y-72831951D01*
X189239999Y-72887014D01*
X189209338Y-72942095D01*
X189174097Y-72997422D01*
X189134157Y-73053223D01*
X189089400Y-73109724D01*
X189084382Y-73115748D01*
X189072268Y-73129710D01*
X189057249Y-73146213D01*
X189040154Y-73164411D01*
X189021809Y-73183459D01*
X189003043Y-73202511D01*
X188984681Y-73220722D01*
X188967552Y-73237245D01*
X188952484Y-73251235D01*
X188947191Y-73255957D01*
X188938188Y-73263715D01*
X188926898Y-73273211D01*
X188914161Y-73283762D01*
X188900815Y-73294689D01*
X188887699Y-73305307D01*
X188875651Y-73314938D01*
X188865511Y-73322897D01*
X188858117Y-73328505D01*
X188856478Y-73329684D01*
X188854947Y-73331111D01*
X188853589Y-73333429D01*
X188852309Y-73337176D01*
X188851012Y-73342886D01*
X188849602Y-73351097D01*
X188847983Y-73362344D01*
X188846060Y-73377163D01*
X188843737Y-73396092D01*
X188841890Y-73411501D01*
X188839536Y-73431144D01*
X188837316Y-73449474D01*
X188835314Y-73465809D01*
X188833614Y-73479469D01*
X188832301Y-73489771D01*
X188831459Y-73496037D01*
X188831266Y-73497301D01*
X188829216Y-73501981D01*
X188824186Y-73510171D01*
X188816425Y-73521512D01*
X188806179Y-73535643D01*
X188793696Y-73552205D01*
X188792327Y-73553992D01*
X188782457Y-73566848D01*
X188770089Y-73582968D01*
X188755788Y-73601613D01*
X188740119Y-73622045D01*
X188723648Y-73643528D01*
X188706940Y-73665324D01*
X188690562Y-73686694D01*
X188684801Y-73694212D01*
X188670446Y-73712904D01*
X188657014Y-73730312D01*
X188644817Y-73746038D01*
X188634167Y-73759683D01*
X188625376Y-73770850D01*
X188618755Y-73779141D01*
X188614616Y-73784156D01*
X188613285Y-73785547D01*
X188612458Y-73783260D01*
X188611537Y-73777011D01*
X188610658Y-73767872D01*
X188610185Y-73761094D01*
X188609790Y-73752620D01*
X188609354Y-73739910D01*
X188608896Y-73723765D01*
X188608437Y-73704989D01*
X188607996Y-73684383D01*
X188607594Y-73662749D01*
X188607361Y-73648342D01*
X188606993Y-73626194D01*
X188606573Y-73604304D01*
X188606120Y-73583522D01*
X188605656Y-73564699D01*
X188605201Y-73548689D01*
X188604775Y-73536341D01*
X188604536Y-73530927D01*
X188603053Y-73501697D01*
X188559846Y-73518795D01*
X188516639Y-73535893D01*
X188502947Y-73520309D01*
X188495794Y-73512451D01*
X188486220Y-73502338D01*
X188474910Y-73490654D01*
X188462548Y-73478084D01*
X188449818Y-73465312D01*
X188437407Y-73453022D01*
X188425997Y-73441898D01*
X188416273Y-73432625D01*
X188408922Y-73425886D01*
X188405851Y-73423278D01*
X188395847Y-73415310D01*
X188413740Y-73371202D01*
X188419172Y-73357459D01*
X188423641Y-73345458D01*
X188426904Y-73335915D01*
X188428717Y-73329543D01*
X188428838Y-73327058D01*
X188428784Y-73327048D01*
X188425790Y-73326949D01*
X188418235Y-73326682D01*
X188406592Y-73326264D01*
X188391334Y-73325713D01*
X188372935Y-73325045D01*
X188351870Y-73324277D01*
X188328611Y-73323428D01*
X188303634Y-73322513D01*
X188291136Y-73322055D01*
X188265431Y-73321114D01*
X188241161Y-73320230D01*
X188218809Y-73319420D01*
X188198857Y-73318702D01*
X188181787Y-73318092D01*
X188168080Y-73317608D01*
X188158219Y-73317267D01*
X188152686Y-73317087D01*
X188151719Y-73317062D01*
X188148271Y-73316081D01*
X188147939Y-73314863D01*
X188150100Y-73312901D01*
X188155916Y-73308248D01*
X188164990Y-73301199D01*
X188176929Y-73292050D01*
X188191337Y-73281094D01*
X188207817Y-73268626D01*
X188225976Y-73254943D01*
X188245418Y-73240338D01*
X188265747Y-73225107D01*
X188286568Y-73209545D01*
X188307486Y-73193947D01*
X188328106Y-73178607D01*
X188348032Y-73163820D01*
X188366869Y-73149882D01*
X188384222Y-73137088D01*
X188399695Y-73125732D01*
X188412893Y-73116110D01*
X188423421Y-73108516D01*
X188430884Y-73103245D01*
X188434886Y-73100593D01*
X188435439Y-73100331D01*
X188439994Y-73100049D01*
X188448544Y-73099259D01*
X188460378Y-73098045D01*
X188474783Y-73096489D01*
X188491048Y-73094676D01*
X188508458Y-73092689D01*
X188526304Y-73090611D01*
X188543871Y-73088525D01*
X188560448Y-73086516D01*
X188575322Y-73084666D01*
X188587782Y-73083060D01*
X188597115Y-73081780D01*
X188602608Y-73080910D01*
X188603781Y-73080606D01*
X188605839Y-73078080D01*
X188610369Y-73072430D01*
X188616712Y-73064483D01*
X188624208Y-73055062D01*
X188624554Y-73054626D01*
X188648963Y-73025098D01*
X188676463Y-72993907D01*
X188705988Y-72962163D01*
X188736470Y-72930974D01*
X188739557Y-72927973D01*
X188932130Y-72927973D01*
X188933331Y-72944392D01*
X188937553Y-72958972D01*
X188937809Y-72959542D01*
X188948280Y-72976525D01*
X188962519Y-72990647D01*
X188979750Y-73001220D01*
X188989063Y-73004901D01*
X188999287Y-73006554D01*
X189012173Y-73006216D01*
X189025856Y-73004109D01*
X189038471Y-73000454D01*
X189043108Y-72998459D01*
X189058899Y-72988057D01*
X189071192Y-72974245D01*
X189079659Y-72957533D01*
X189083969Y-72938429D01*
X189084273Y-72934853D01*
X189083262Y-72915089D01*
X189077859Y-72897226D01*
X189068508Y-72881769D01*
X189055654Y-72869224D01*
X189039741Y-72860095D01*
X189021213Y-72854887D01*
X189013168Y-72854014D01*
X188993204Y-72855089D01*
X188975161Y-72860747D01*
X188959390Y-72870782D01*
X188946243Y-72884990D01*
X188938677Y-72897532D01*
X188933921Y-72911694D01*
X188932130Y-72927973D01*
X188739557Y-72927973D01*
X188766844Y-72901448D01*
X188796043Y-72874694D01*
X188806392Y-72865670D01*
X188832669Y-72843867D01*
X188861658Y-72821139D01*
X188892156Y-72798362D01*
X188922958Y-72776411D01*
X188952862Y-72756159D01*
X188980662Y-72738483D01*
X188985283Y-72735683D01*
X189037214Y-72706644D01*
X189090458Y-72681055D01*
X189144172Y-72659272D01*
X189197509Y-72641651D01*
X189229202Y-72633169D01*
X189241795Y-72630221D01*
X189256103Y-72627052D01*
X189271176Y-72623852D01*
X189286064Y-72620812D01*
X189299817Y-72618121D01*
X189311484Y-72615970D01*
X189320115Y-72614550D01*
X189324709Y-72614050D01*
X189326134Y-72615432D01*
G37*
%TD*%
D14*
%TO.C,U102*%
X183355000Y-79885000D03*
D15*
X185855000Y-82985000D03*
X185855000Y-79885000D03*
X185855000Y-76785000D03*
X180855000Y-76785000D03*
X180855000Y-79885000D03*
X180855000Y-82985000D03*
%TD*%
%LPD*%
M02*
