%TF.GenerationSoftware,KiCad,Pcbnew,9.0.4*%
%TF.CreationDate,2026-03-30T12:24:38-04:00*%
%TF.ProjectId,V3_COB_Original,56335f43-4f42-45f4-9f72-6967696e616c,rev?*%
%TF.SameCoordinates,Original*%
%TF.FileFunction,Legend,Bot*%
%TF.FilePolarity,Positive*%
%FSLAX46Y46*%
G04 Gerber Fmt 4.6, Leading zero omitted, Abs format (unit mm)*
G04 Created by KiCad (PCBNEW 9.0.4) date 2026-03-30 12:24:38*
%MOMM*%
%LPD*%
G01*
G04 APERTURE LIST*
%ADD10C,0.150000*%
%ADD11C,0.254000*%
%ADD12C,0.500000*%
%ADD13R,0.660000X0.200000*%
%ADD14R,0.660000X0.350000*%
G04 APERTURE END LIST*
D10*
G36*
X178597962Y-77122159D02*
G01*
X179360000Y-76923346D01*
X179360000Y-76804522D01*
X178772595Y-76608456D01*
X179360000Y-76413794D01*
X179360000Y-76295581D01*
X178597962Y-76094752D01*
X178597962Y-76228658D01*
X179188053Y-76368670D01*
X178597962Y-76559302D01*
X178597962Y-76665181D01*
X179188053Y-76860514D01*
X178597962Y-76993077D01*
X178597962Y-77122159D01*
G37*
G36*
X179189352Y-77243108D02*
G01*
X179234740Y-77256647D01*
X179275162Y-77278805D01*
X179311456Y-77310104D01*
X179341268Y-77347979D01*
X179362335Y-77389228D01*
X179375138Y-77434568D01*
X179379539Y-77484982D01*
X179376710Y-77539139D01*
X179368975Y-77582679D01*
X179356830Y-77622826D01*
X179342780Y-77656441D01*
X179309747Y-77712800D01*
X179277384Y-77758901D01*
X179360000Y-77758901D01*
X179360000Y-77886640D01*
X178842144Y-77886640D01*
X178771927Y-77880560D01*
X178718496Y-77864108D01*
X178673087Y-77836341D01*
X178637163Y-77798529D01*
X178610088Y-77751568D01*
X178591734Y-77695031D01*
X178581996Y-77632590D01*
X178578422Y-77554652D01*
X178581443Y-77485508D01*
X178590635Y-77414579D01*
X178612983Y-77306013D01*
X178742554Y-77306013D01*
X178742554Y-77312852D01*
X178720497Y-77378960D01*
X178704818Y-77441263D01*
X178694824Y-77502213D01*
X178691751Y-77553981D01*
X178697247Y-77633848D01*
X178705534Y-77670242D01*
X178718435Y-77699488D01*
X178737974Y-77724888D01*
X178763558Y-77743513D01*
X178794650Y-77754754D01*
X178836038Y-77758901D01*
X178855882Y-77758901D01*
X178961395Y-77758901D01*
X179173093Y-77758901D01*
X179207162Y-77709185D01*
X179236107Y-77655036D01*
X179255609Y-77596821D01*
X179262302Y-77531449D01*
X179257988Y-77478100D01*
X179246518Y-77438922D01*
X179229330Y-77410549D01*
X179204716Y-77389147D01*
X179172686Y-77375768D01*
X179130900Y-77370921D01*
X179093739Y-77375028D01*
X179064012Y-77386525D01*
X179040041Y-77405054D01*
X179011942Y-77443463D01*
X178991376Y-77494569D01*
X178980617Y-77545225D01*
X178971653Y-77620537D01*
X178961395Y-77758901D01*
X178855882Y-77758901D01*
X178872247Y-77549157D01*
X178888755Y-77455745D01*
X178913768Y-77381851D01*
X178937437Y-77338321D01*
X178965454Y-77303272D01*
X178997909Y-77275605D01*
X179035267Y-77255701D01*
X179081209Y-77242994D01*
X179137800Y-77238419D01*
X179189352Y-77243108D01*
G37*
G36*
X178422107Y-78544447D02*
G01*
X178422107Y-78537608D01*
X178409223Y-78482287D01*
X178402568Y-78422203D01*
X178407390Y-78368232D01*
X178420133Y-78329548D01*
X178439265Y-78302280D01*
X178466460Y-78283377D01*
X178508688Y-78270240D01*
X178571889Y-78265094D01*
X178597962Y-78265094D01*
X178597962Y-78496636D01*
X178707383Y-78496636D01*
X178707383Y-78269185D01*
X179360000Y-78269185D01*
X179360000Y-78140774D01*
X178707383Y-78140774D01*
X178707383Y-78054007D01*
X178597962Y-78054007D01*
X178597962Y-78140774D01*
X178572500Y-78140774D01*
X178503812Y-78145620D01*
X178447276Y-78159107D01*
X178400744Y-78180149D01*
X178362512Y-78208368D01*
X178331494Y-78244402D01*
X178308773Y-78287872D01*
X178294380Y-78340305D01*
X178289239Y-78403763D01*
X178293391Y-78481249D01*
X178303100Y-78544447D01*
X178422107Y-78544447D01*
G37*
G36*
X179059292Y-78576197D02*
G01*
X179124971Y-78589867D01*
X179181743Y-78611533D01*
X179230917Y-78640835D01*
X179273476Y-78677925D01*
X179316643Y-78733924D01*
X179348386Y-78800510D01*
X179368480Y-78879778D01*
X179375631Y-78974436D01*
X179370984Y-79047683D01*
X179357313Y-79116463D01*
X179336745Y-79183403D01*
X179311762Y-79249026D01*
X179172421Y-79249026D01*
X179172421Y-79242187D01*
X179199464Y-79202025D01*
X179232016Y-79129836D01*
X179254880Y-79050413D01*
X179262302Y-78973032D01*
X179258139Y-78915879D01*
X179246182Y-78865443D01*
X179225777Y-78819572D01*
X179197761Y-78781118D01*
X179160787Y-78748581D01*
X179113375Y-78723049D01*
X179059129Y-78707456D01*
X178992658Y-78701861D01*
X178992658Y-79264047D01*
X178923293Y-79264047D01*
X178840466Y-79258087D01*
X178771939Y-79241454D01*
X178715193Y-79215407D01*
X178668243Y-79180333D01*
X178630100Y-79135807D01*
X178602252Y-79082575D01*
X178584679Y-79018873D01*
X178578422Y-78942318D01*
X178579031Y-78935479D01*
X178683935Y-78935479D01*
X178687912Y-78986740D01*
X178698910Y-79028075D01*
X178716026Y-79061391D01*
X178739073Y-79088131D01*
X178778703Y-79115053D01*
X178829604Y-79132422D01*
X178894961Y-79139056D01*
X178894961Y-78701861D01*
X178837627Y-78713415D01*
X178787980Y-78736402D01*
X178744508Y-78771165D01*
X178718584Y-78803474D01*
X178699798Y-78840913D01*
X178688067Y-78884473D01*
X178683935Y-78935479D01*
X178579031Y-78935479D01*
X178585696Y-78860633D01*
X178606536Y-78789871D01*
X178640360Y-78727970D01*
X178687782Y-78673468D01*
X178745099Y-78630081D01*
X178812099Y-78598365D01*
X178890640Y-78578426D01*
X178983133Y-78571374D01*
X179059292Y-78576197D01*
G37*
G36*
X178738646Y-79934799D02*
G01*
X178738646Y-79927960D01*
X178729731Y-79872273D01*
X178726922Y-79808403D01*
X178733423Y-79750222D01*
X178753117Y-79693670D01*
X178782824Y-79639852D01*
X178820772Y-79587119D01*
X179360000Y-79587119D01*
X179360000Y-79458709D01*
X178597962Y-79458709D01*
X178597962Y-79587119D01*
X178710558Y-79587119D01*
X178655640Y-79662925D01*
X178623546Y-79722002D01*
X178604282Y-79781371D01*
X178597962Y-79841193D01*
X178599672Y-79889736D01*
X178606205Y-79934799D01*
X178738646Y-79934799D01*
G37*
G36*
X179360000Y-80066995D02*
G01*
X179360000Y-79903719D01*
X179164605Y-79903719D01*
X179164605Y-80066995D01*
X179360000Y-80066995D01*
G37*
G36*
X179138044Y-80911404D02*
G01*
X179187982Y-80905960D01*
X179232323Y-80890072D01*
X179272382Y-80863533D01*
X179308953Y-80825003D01*
X179336758Y-80780608D01*
X179357566Y-80727616D01*
X179370875Y-80664401D01*
X179375631Y-80589003D01*
X179370445Y-80506429D01*
X179355603Y-80433604D01*
X179333719Y-80366132D01*
X179311823Y-80315085D01*
X179168513Y-80315085D01*
X179168513Y-80321924D01*
X179208542Y-80385730D01*
X179239771Y-80457112D01*
X179259838Y-80531359D01*
X179266210Y-80599933D01*
X179262727Y-80656080D01*
X179253345Y-80699391D01*
X179239282Y-80732435D01*
X179217824Y-80759019D01*
X179190197Y-80774710D01*
X179154347Y-80780246D01*
X179125511Y-80777055D01*
X179103341Y-80768266D01*
X179086264Y-80754295D01*
X179066880Y-80721397D01*
X179046819Y-80654583D01*
X179032531Y-80583142D01*
X179014823Y-80502908D01*
X178992415Y-80438057D01*
X178966196Y-80391977D01*
X178936849Y-80360514D01*
X178900597Y-80337474D01*
X178858977Y-80323405D01*
X178810575Y-80318505D01*
X178764851Y-80323402D01*
X178722098Y-80337983D01*
X178683253Y-80362080D01*
X178647848Y-80397029D01*
X178619878Y-80439172D01*
X178597168Y-80494359D01*
X178583305Y-80555596D01*
X178578422Y-80626556D01*
X178582568Y-80694862D01*
X178595214Y-80764858D01*
X178614675Y-80831461D01*
X178636003Y-80881362D01*
X178773817Y-80881362D01*
X178773817Y-80874523D01*
X178741269Y-80821600D01*
X178712756Y-80754966D01*
X178693921Y-80684476D01*
X178687843Y-80617030D01*
X178691061Y-80570754D01*
X178700131Y-80531513D01*
X178714466Y-80498145D01*
X178735542Y-80470768D01*
X178761363Y-80455069D01*
X178793539Y-80449663D01*
X178823469Y-80453231D01*
X178846529Y-80463118D01*
X178864370Y-80479033D01*
X178884488Y-80513131D01*
X178903143Y-80571906D01*
X178919508Y-80651469D01*
X178934467Y-80724925D01*
X178952390Y-80782610D01*
X178975937Y-80827883D01*
X179004626Y-80862922D01*
X179040857Y-80889334D01*
X179084625Y-80905632D01*
X179138044Y-80911404D01*
G37*
G36*
X179641367Y-81223546D02*
G01*
X179322508Y-81223546D01*
X179346500Y-81273800D01*
X179362686Y-81321549D01*
X179372249Y-81371338D01*
X179375631Y-81429138D01*
X179368700Y-81495810D01*
X179348032Y-81558587D01*
X179314759Y-81615690D01*
X179269996Y-81664832D01*
X179211959Y-81707290D01*
X179140242Y-81739937D01*
X179060945Y-81759730D01*
X178970921Y-81766620D01*
X178877362Y-81761053D01*
X178799727Y-81745564D01*
X178735444Y-81721542D01*
X178682348Y-81689745D01*
X178636841Y-81647468D01*
X178604861Y-81598575D01*
X178585274Y-81541764D01*
X178578422Y-81474933D01*
X178581819Y-81442144D01*
X178699567Y-81442144D01*
X178704239Y-81489882D01*
X178717343Y-81528819D01*
X178738294Y-81560792D01*
X178767588Y-81586980D01*
X178815432Y-81611326D01*
X178881982Y-81627856D01*
X178972875Y-81634119D01*
X179044725Y-81629662D01*
X179102684Y-81617408D01*
X179149212Y-81598626D01*
X179186343Y-81573974D01*
X179217484Y-81541488D01*
X179239738Y-81503569D01*
X179253537Y-81459137D01*
X179258394Y-81406606D01*
X179256073Y-81358171D01*
X179249602Y-81317458D01*
X179237697Y-81276782D01*
X179216263Y-81223546D01*
X178785907Y-81223546D01*
X178750682Y-81276322D01*
X178723381Y-81330769D01*
X178705381Y-81387296D01*
X178699567Y-81442144D01*
X178581819Y-81442144D01*
X178585730Y-81404388D01*
X178607426Y-81338646D01*
X178640073Y-81277603D01*
X178679295Y-81223546D01*
X178597962Y-81223546D01*
X178597962Y-81095136D01*
X179641367Y-81095136D01*
X179641367Y-81223546D01*
G37*
G36*
X179189352Y-81915963D02*
G01*
X179234740Y-81929501D01*
X179275162Y-81951659D01*
X179311456Y-81982958D01*
X179341268Y-82020833D01*
X179362335Y-82062082D01*
X179375138Y-82107422D01*
X179379539Y-82157836D01*
X179376710Y-82211993D01*
X179368975Y-82255533D01*
X179356830Y-82295680D01*
X179342780Y-82329295D01*
X179309747Y-82385654D01*
X179277384Y-82431755D01*
X179360000Y-82431755D01*
X179360000Y-82559494D01*
X178842144Y-82559494D01*
X178771927Y-82553414D01*
X178718496Y-82536962D01*
X178673087Y-82509195D01*
X178637163Y-82471383D01*
X178610088Y-82424422D01*
X178591734Y-82367885D01*
X178581996Y-82305445D01*
X178578422Y-82227507D01*
X178581443Y-82158363D01*
X178590635Y-82087433D01*
X178612983Y-81978867D01*
X178742554Y-81978867D01*
X178742554Y-81985706D01*
X178720497Y-82051815D01*
X178704818Y-82114117D01*
X178694824Y-82175067D01*
X178691751Y-82226835D01*
X178697247Y-82306702D01*
X178705534Y-82343096D01*
X178718435Y-82372343D01*
X178737974Y-82397742D01*
X178763558Y-82416367D01*
X178794650Y-82427609D01*
X178836038Y-82431755D01*
X178855882Y-82431755D01*
X178961395Y-82431755D01*
X179173093Y-82431755D01*
X179207162Y-82382039D01*
X179236107Y-82327890D01*
X179255609Y-82269675D01*
X179262302Y-82204304D01*
X179257988Y-82150954D01*
X179246518Y-82111776D01*
X179229330Y-82083403D01*
X179204716Y-82062001D01*
X179172686Y-82048623D01*
X179130900Y-82043775D01*
X179093739Y-82047882D01*
X179064012Y-82059379D01*
X179040041Y-82077908D01*
X179011942Y-82116317D01*
X178991376Y-82167423D01*
X178980617Y-82218079D01*
X178971653Y-82293391D01*
X178961395Y-82431755D01*
X178855882Y-82431755D01*
X178872247Y-82222011D01*
X178888755Y-82128599D01*
X178913768Y-82054705D01*
X178937437Y-82011175D01*
X178965454Y-81976127D01*
X178997909Y-81948459D01*
X179035267Y-81928555D01*
X179081209Y-81915848D01*
X179137800Y-81911273D01*
X179189352Y-81915963D01*
G37*
G36*
X179310479Y-83371052D02*
G01*
X179338425Y-83307101D01*
X179358473Y-83249113D01*
X179371263Y-83190171D01*
X179375631Y-83126503D01*
X179369386Y-83046099D01*
X179351390Y-82974829D01*
X179332247Y-82930612D01*
X179307845Y-82891406D01*
X179278056Y-82856676D01*
X179243175Y-82826484D01*
X179202050Y-82800722D01*
X179153859Y-82779434D01*
X179103075Y-82764733D01*
X179044938Y-82755421D01*
X178978370Y-82752140D01*
X178885354Y-82759287D01*
X178807067Y-82779422D01*
X178740916Y-82811340D01*
X178684912Y-82854905D01*
X178638931Y-82909535D01*
X178605961Y-82971907D01*
X178585560Y-83043534D01*
X178578422Y-83126503D01*
X178583058Y-83191453D01*
X178596985Y-83255281D01*
X178617861Y-83316624D01*
X178642231Y-83371052D01*
X178785540Y-83371052D01*
X178785540Y-83364213D01*
X178745152Y-83303785D01*
X178716053Y-83242946D01*
X178697646Y-83180286D01*
X178691751Y-83121008D01*
X178696639Y-83067476D01*
X178710567Y-83021818D01*
X178733077Y-82982514D01*
X178764596Y-82948512D01*
X178802320Y-82922448D01*
X178849157Y-82902734D01*
X178907047Y-82889947D01*
X178978370Y-82885314D01*
X179047520Y-82889797D01*
X179104285Y-82902233D01*
X179150793Y-82921509D01*
X179188785Y-82947107D01*
X179220450Y-82980501D01*
X179243169Y-83019748D01*
X179257310Y-83066020D01*
X179262302Y-83121008D01*
X179259808Y-83159990D01*
X179252166Y-83200265D01*
X179240277Y-83239183D01*
X179225849Y-83272683D01*
X179195868Y-83325256D01*
X179168513Y-83364213D01*
X179168513Y-83371052D01*
X179310479Y-83371052D01*
G37*
G36*
X179059292Y-83486455D02*
G01*
X179124971Y-83500125D01*
X179181743Y-83521791D01*
X179230917Y-83551093D01*
X179273476Y-83588184D01*
X179316643Y-83644182D01*
X179348386Y-83710768D01*
X179368480Y-83790036D01*
X179375631Y-83884694D01*
X179370984Y-83957941D01*
X179357313Y-84026722D01*
X179336745Y-84093661D01*
X179311762Y-84159284D01*
X179172421Y-84159284D01*
X179172421Y-84152446D01*
X179199464Y-84112283D01*
X179232016Y-84040094D01*
X179254880Y-83960671D01*
X179262302Y-83883290D01*
X179258139Y-83826137D01*
X179246182Y-83775701D01*
X179225777Y-83729831D01*
X179197761Y-83691376D01*
X179160787Y-83658839D01*
X179113375Y-83633307D01*
X179059129Y-83617714D01*
X178992658Y-83612119D01*
X178992658Y-84174305D01*
X178923293Y-84174305D01*
X178840466Y-84168346D01*
X178771939Y-84151712D01*
X178715193Y-84125665D01*
X178668243Y-84090591D01*
X178630100Y-84046065D01*
X178602252Y-83992833D01*
X178584679Y-83929132D01*
X178578422Y-83852576D01*
X178579031Y-83845738D01*
X178683935Y-83845738D01*
X178687912Y-83896998D01*
X178698910Y-83938333D01*
X178716026Y-83971650D01*
X178739073Y-83998389D01*
X178778703Y-84025311D01*
X178829604Y-84042681D01*
X178894961Y-84049314D01*
X178894961Y-83612119D01*
X178837627Y-83623673D01*
X178787980Y-83646660D01*
X178744508Y-83681423D01*
X178718584Y-83713732D01*
X178699798Y-83751171D01*
X178688067Y-83794731D01*
X178683935Y-83845738D01*
X178579031Y-83845738D01*
X178585696Y-83770891D01*
X178606536Y-83700130D01*
X178640360Y-83638229D01*
X178687782Y-83583726D01*
X178745099Y-83540339D01*
X178812099Y-83508623D01*
X178890640Y-83488684D01*
X178983133Y-83481633D01*
X179059292Y-83486455D01*
G37*
G36*
X180964590Y-75198992D02*
G01*
X180999870Y-75113123D01*
X181031207Y-75016909D01*
X181052642Y-74918590D01*
X181059539Y-74826033D01*
X181055730Y-74747295D01*
X181044664Y-74674888D01*
X181026749Y-74608107D01*
X181000788Y-74544397D01*
X180968028Y-74488446D01*
X180928442Y-74439397D01*
X180881321Y-74396624D01*
X180826440Y-74360434D01*
X180762845Y-74330770D01*
X180695520Y-74310162D01*
X180618484Y-74297133D01*
X180530265Y-74292546D01*
X180432108Y-74298864D01*
X180346193Y-74316898D01*
X180270714Y-74345702D01*
X180204177Y-74384948D01*
X180145460Y-74434939D01*
X180096134Y-74494075D01*
X180057277Y-74561390D01*
X180028669Y-74638066D01*
X180010713Y-74725660D01*
X180004410Y-74826033D01*
X180009500Y-74913004D01*
X180025109Y-75003292D01*
X180051949Y-75094487D01*
X180095207Y-75198320D01*
X180254515Y-75198320D01*
X180254515Y-75186047D01*
X180212688Y-75124559D01*
X180169457Y-75045302D01*
X180151012Y-74996226D01*
X180135263Y-74938385D01*
X180125242Y-74876472D01*
X180121646Y-74802769D01*
X180126412Y-74734580D01*
X180140064Y-74674622D01*
X180162005Y-74621617D01*
X180192153Y-74574532D01*
X180230945Y-74532636D01*
X180288088Y-74490513D01*
X180355103Y-74459610D01*
X180433882Y-74440130D01*
X180526845Y-74433230D01*
X180606892Y-74437958D01*
X180676098Y-74451360D01*
X180736020Y-74472560D01*
X180787977Y-74501113D01*
X180833004Y-74537033D01*
X180871577Y-74580535D01*
X180901714Y-74629633D01*
X180923742Y-74685120D01*
X180937493Y-74748088D01*
X180942302Y-74819866D01*
X180939106Y-74885302D01*
X180929480Y-74950719D01*
X180914246Y-75013601D01*
X180896263Y-75065147D01*
X180649211Y-75065147D01*
X180649211Y-74792572D01*
X180528066Y-74792572D01*
X180528066Y-75198992D01*
X180964590Y-75198992D01*
G37*
G36*
X180145094Y-76085654D02*
G01*
X180145094Y-75571279D01*
X180430369Y-75571279D01*
X180430369Y-76013236D01*
X180551514Y-76013236D01*
X180551514Y-75571279D01*
X181040000Y-75571279D01*
X181040000Y-75436030D01*
X180023949Y-75436030D01*
X180023949Y-76085654D01*
X180145094Y-76085654D01*
G37*
G36*
X181040000Y-76843906D02*
G01*
X181040000Y-76293322D01*
X180934487Y-76293322D01*
X180934487Y-76505081D01*
X180258422Y-76505081D01*
X180258422Y-76293322D01*
X180164633Y-76293322D01*
X180157550Y-76385524D01*
X180148057Y-76431439D01*
X180136912Y-76460018D01*
X180117409Y-76488436D01*
X180093986Y-76509477D01*
X180064918Y-76523315D01*
X180023949Y-76530360D01*
X180023949Y-76636239D01*
X180934487Y-76636239D01*
X180934487Y-76843906D01*
X181040000Y-76843906D01*
G37*
G36*
X180821997Y-77083108D02*
G01*
X180878529Y-77101419D01*
X180929132Y-77131631D01*
X180974848Y-77174794D01*
X181010657Y-77225801D01*
X181037010Y-77285530D01*
X181053646Y-77355624D01*
X181059539Y-77438149D01*
X181053725Y-77515264D01*
X181037040Y-77583090D01*
X181010103Y-77643163D01*
X180972833Y-77696680D01*
X180925839Y-77742341D01*
X180874655Y-77773991D01*
X180818306Y-77792996D01*
X180755273Y-77799507D01*
X180695694Y-77793517D01*
X180645763Y-77776509D01*
X180603476Y-77748948D01*
X180567481Y-77712260D01*
X180533998Y-77664227D01*
X180503215Y-77602769D01*
X180499124Y-77602769D01*
X180470228Y-77655136D01*
X180435844Y-77696793D01*
X180395809Y-77729165D01*
X180350268Y-77753590D01*
X180305673Y-77767625D01*
X180261231Y-77772212D01*
X180207522Y-77766474D01*
X180159733Y-77749731D01*
X180116491Y-77721800D01*
X180076950Y-77681354D01*
X180046443Y-77634456D01*
X180023835Y-77579357D01*
X180009499Y-77514541D01*
X180004410Y-77438149D01*
X180004458Y-77437478D01*
X180102107Y-77437478D01*
X180107303Y-77494332D01*
X180121954Y-77541635D01*
X180145399Y-77581276D01*
X180177637Y-77612671D01*
X180215701Y-77631214D01*
X180261536Y-77637635D01*
X180322119Y-77630915D01*
X180373278Y-77611684D01*
X180403056Y-77591485D01*
X180434056Y-77561067D01*
X180466578Y-77518078D01*
X180433911Y-77425510D01*
X180401854Y-77352786D01*
X180400576Y-77350710D01*
X180528921Y-77350710D01*
X180564459Y-77452499D01*
X180591936Y-77522840D01*
X180619882Y-77575597D01*
X180644686Y-77610175D01*
X180666735Y-77631162D01*
X180692886Y-77645967D01*
X180725313Y-77655414D01*
X180765593Y-77658823D01*
X180821389Y-77651807D01*
X180866617Y-77631898D01*
X180903773Y-77599044D01*
X180930849Y-77556569D01*
X180947909Y-77504270D01*
X180954026Y-77439554D01*
X180947132Y-77376744D01*
X180927412Y-77323704D01*
X180895041Y-77278292D01*
X180852232Y-77243042D01*
X180803068Y-77222040D01*
X180745504Y-77214789D01*
X180699246Y-77219018D01*
X180657080Y-77231408D01*
X180618131Y-77251975D01*
X180583265Y-77279412D01*
X180553633Y-77312150D01*
X180528921Y-77350710D01*
X180400576Y-77350710D01*
X180370630Y-77302073D01*
X180338168Y-77269072D01*
X180299505Y-77248468D01*
X180253354Y-77241412D01*
X180209777Y-77247651D01*
X180173623Y-77265698D01*
X180143018Y-77296366D01*
X180120930Y-77334978D01*
X180107049Y-77381385D01*
X180102107Y-77437478D01*
X180004458Y-77437478D01*
X180009564Y-77365789D01*
X180024289Y-77302632D01*
X180047900Y-77247214D01*
X180080308Y-77198364D01*
X180121687Y-77156248D01*
X180166467Y-77127277D01*
X180215481Y-77109987D01*
X180270085Y-77104086D01*
X180320265Y-77108748D01*
X180362681Y-77121989D01*
X180398862Y-77143348D01*
X180430301Y-77172152D01*
X180461903Y-77211831D01*
X180493689Y-77264615D01*
X180497780Y-77264615D01*
X180528463Y-77208031D01*
X180564463Y-77162272D01*
X180605858Y-77125946D01*
X180653187Y-77098562D01*
X180703526Y-77082294D01*
X180757960Y-77076792D01*
X180821997Y-77083108D01*
G37*
G36*
X180671483Y-77983632D02*
G01*
X180780622Y-78001375D01*
X180865336Y-78027863D01*
X180930212Y-78061396D01*
X180976110Y-78098435D01*
X181011571Y-78142466D01*
X181037463Y-78194420D01*
X181053760Y-78255858D01*
X181059539Y-78328842D01*
X181053868Y-78400682D01*
X181037836Y-78461513D01*
X181012306Y-78513280D01*
X180977283Y-78557461D01*
X180931922Y-78594944D01*
X180882126Y-78622628D01*
X180819732Y-78645995D01*
X180742335Y-78664262D01*
X180647201Y-78676299D01*
X180531303Y-78680674D01*
X180394509Y-78674163D01*
X180286116Y-78656492D01*
X180201193Y-78629993D01*
X180135446Y-78596288D01*
X180088854Y-78559181D01*
X180052919Y-78515104D01*
X180026721Y-78463143D01*
X180010248Y-78401745D01*
X180004415Y-78328903D01*
X180117739Y-78328903D01*
X180120989Y-78371443D01*
X180130046Y-78406369D01*
X180144239Y-78435088D01*
X180176364Y-78471419D01*
X180223007Y-78500361D01*
X180279459Y-78520318D01*
X180352028Y-78533456D01*
X180431416Y-78539700D01*
X180531303Y-78542005D01*
X180632145Y-78539682D01*
X180710272Y-78533456D01*
X180781596Y-78520612D01*
X180839598Y-78501033D01*
X180873245Y-78482809D01*
X180899630Y-78460966D01*
X180919771Y-78435393D01*
X180933987Y-78406067D01*
X180942997Y-78370990D01*
X180946210Y-78328903D01*
X180942748Y-78284073D01*
X180933196Y-78248093D01*
X180918367Y-78219238D01*
X180884975Y-78183178D01*
X180837583Y-78155368D01*
X180778712Y-78135346D01*
X180709905Y-78123250D01*
X180634240Y-78117806D01*
X180532646Y-78115740D01*
X180438135Y-78117975D01*
X180355448Y-78124288D01*
X180278935Y-78137318D01*
X180224351Y-78156040D01*
X180176613Y-78185730D01*
X180144239Y-78222657D01*
X180130002Y-78251794D01*
X180120965Y-78286779D01*
X180117739Y-78328903D01*
X180004415Y-78328903D01*
X180004410Y-78328842D01*
X180010140Y-78256806D01*
X180026335Y-78195868D01*
X180052129Y-78144052D01*
X180087533Y-78099871D01*
X180133431Y-78062434D01*
X180198177Y-78028523D01*
X180283036Y-78001711D01*
X180392717Y-77983729D01*
X180532646Y-77977071D01*
X180671483Y-77983632D01*
G37*
G36*
X181040000Y-79815914D02*
G01*
X181040000Y-79680665D01*
X180164206Y-79680665D01*
X180758632Y-79397832D01*
X180758632Y-79317232D01*
X180164206Y-79036474D01*
X181040000Y-79036474D01*
X181040000Y-78910140D01*
X180023949Y-78910140D01*
X180023949Y-79094543D01*
X180588394Y-79365775D01*
X180023949Y-79628092D01*
X180023949Y-79815914D01*
X181040000Y-79815914D01*
G37*
G36*
X180967520Y-80874890D02*
G01*
X180998234Y-80806930D01*
X181028215Y-80727368D01*
X181050319Y-80636815D01*
X181057133Y-80586659D01*
X181059539Y-80529226D01*
X181055910Y-80455963D01*
X181045407Y-80389143D01*
X181028459Y-80328031D01*
X181003666Y-80270082D01*
X180971279Y-80217813D01*
X180931006Y-80170616D01*
X180884918Y-80130920D01*
X180830245Y-80096735D01*
X180765837Y-80068156D01*
X180698064Y-80048256D01*
X180620911Y-80035691D01*
X180533012Y-80031276D01*
X180449664Y-80035466D01*
X180375009Y-80047499D01*
X180308004Y-80066752D01*
X180244290Y-80094473D01*
X180188757Y-80128640D01*
X180140514Y-80169273D01*
X180100046Y-80215167D01*
X180066350Y-80267183D01*
X180039275Y-80326016D01*
X180020223Y-80388181D01*
X180008463Y-80455898D01*
X180004410Y-80529958D01*
X180009341Y-80611581D01*
X180024255Y-80693540D01*
X180050270Y-80776306D01*
X180093925Y-80874890D01*
X180254515Y-80874890D01*
X180254515Y-80864632D01*
X180211013Y-80806738D01*
X180177654Y-80751300D01*
X180153337Y-80697936D01*
X180135859Y-80642086D01*
X180125249Y-80583291D01*
X180121646Y-80521044D01*
X180128103Y-80446433D01*
X180146559Y-80382008D01*
X180178037Y-80324006D01*
X180223984Y-80271672D01*
X180260026Y-80243272D01*
X180302804Y-80218738D01*
X180353250Y-80198216D01*
X180434908Y-80178893D01*
X180533684Y-80171959D01*
X180604752Y-80175488D01*
X180665699Y-80185421D01*
X180717904Y-80200963D01*
X180789481Y-80235218D01*
X180843384Y-80275824D01*
X180887398Y-80327770D01*
X180918122Y-80387504D01*
X180936200Y-80452841D01*
X180942302Y-80522387D01*
X180938525Y-80586877D01*
X180927403Y-80647717D01*
X180909085Y-80705447D01*
X180883622Y-80760486D01*
X180850584Y-80813682D01*
X180809434Y-80865304D01*
X180809434Y-80874890D01*
X180967520Y-80874890D01*
G37*
G36*
X180631015Y-81832078D02*
G01*
X180737471Y-81825611D01*
X180823478Y-81807837D01*
X180876011Y-81787795D01*
X180921233Y-81761269D01*
X180960071Y-81728214D01*
X180991508Y-81691160D01*
X181016641Y-81650322D01*
X181035725Y-81605238D01*
X181053226Y-81531514D01*
X181059539Y-81441290D01*
X181052844Y-81349268D01*
X181034321Y-81274594D01*
X181014500Y-81229062D01*
X180989765Y-81189449D01*
X180960071Y-81155098D01*
X180920505Y-81121816D01*
X180875775Y-81095331D01*
X180825188Y-81075475D01*
X180771932Y-81062633D01*
X180707791Y-81054255D01*
X180631015Y-81051234D01*
X180023949Y-81051234D01*
X180023949Y-81186544D01*
X180636877Y-81186544D01*
X180714861Y-81189745D01*
X180766814Y-81197779D01*
X180812437Y-81212999D01*
X180853215Y-81235698D01*
X180891782Y-81270907D01*
X180919893Y-81317336D01*
X180936332Y-81372137D01*
X180942302Y-81441351D01*
X180936386Y-81511129D01*
X180920198Y-81565670D01*
X180892297Y-81611913D01*
X180853215Y-81647675D01*
X180812098Y-81670251D01*
X180764433Y-81685532D01*
X180711403Y-81693723D01*
X180640296Y-81696829D01*
X180023949Y-81696829D01*
X180023949Y-81832078D01*
X180631015Y-81832078D01*
G37*
G36*
X181040000Y-82716848D02*
G01*
X180637487Y-82716848D01*
X180637487Y-82907418D01*
X181040000Y-83247649D01*
X181040000Y-83423198D01*
X180597126Y-83040653D01*
X180567242Y-83101940D01*
X180530032Y-83152250D01*
X180485324Y-83192999D01*
X180433301Y-83223104D01*
X180372555Y-83241760D01*
X180300982Y-83248320D01*
X180247444Y-83244507D01*
X180203193Y-83233873D01*
X180166587Y-83217240D01*
X180118406Y-83180426D01*
X180078660Y-83130839D01*
X180052786Y-83079070D01*
X180035917Y-83020136D01*
X180027253Y-82954884D01*
X180024307Y-82876033D01*
X180141186Y-82876033D01*
X180143274Y-82928890D01*
X180148941Y-82970982D01*
X180159899Y-83009205D01*
X180176235Y-83040653D01*
X180202302Y-83071585D01*
X180232594Y-83091516D01*
X180267672Y-83102901D01*
X180309164Y-83106904D01*
X180362989Y-83102871D01*
X180402526Y-83092188D01*
X180436961Y-83073669D01*
X180467616Y-83046820D01*
X180492959Y-83010138D01*
X180509138Y-82965487D01*
X180517272Y-82915555D01*
X180520251Y-82853441D01*
X180520251Y-82716848D01*
X180141186Y-82716848D01*
X180141186Y-82876033D01*
X180024307Y-82876033D01*
X180023949Y-82866447D01*
X180023949Y-82581598D01*
X181040000Y-82581598D01*
X181040000Y-82716848D01*
G37*
G36*
X181040000Y-84163254D02*
G01*
X181040000Y-84034843D01*
X180954026Y-84034843D01*
X181000313Y-83969406D01*
X181032306Y-83910524D01*
X181052574Y-83848779D01*
X181059539Y-83779365D01*
X181054512Y-83719988D01*
X181040315Y-83670091D01*
X181017659Y-83627907D01*
X180986388Y-83592153D01*
X180948244Y-83564420D01*
X180901083Y-83543569D01*
X180842990Y-83530100D01*
X180771577Y-83525231D01*
X180277962Y-83525231D01*
X180277962Y-83653641D01*
X180711432Y-83653641D01*
X180810594Y-83659076D01*
X180849690Y-83667924D01*
X180881120Y-83682340D01*
X180907287Y-83703767D01*
X180924778Y-83730150D01*
X180934475Y-83763108D01*
X180938394Y-83815574D01*
X180932344Y-83865916D01*
X180912505Y-83924507D01*
X180883065Y-83981581D01*
X180846376Y-84034843D01*
X180277962Y-84034843D01*
X180277962Y-84163254D01*
X181040000Y-84163254D01*
G37*
G36*
X181040000Y-85053885D02*
G01*
X181040000Y-84925475D01*
X180606530Y-84925475D01*
X180508039Y-84919308D01*
X180465124Y-84910001D01*
X180436109Y-84896776D01*
X180411316Y-84876080D01*
X180393550Y-84847561D01*
X180383423Y-84812792D01*
X180379567Y-84764275D01*
X180385752Y-84711685D01*
X180405457Y-84654243D01*
X180434734Y-84598385D01*
X180471585Y-84544273D01*
X181040000Y-84544273D01*
X181040000Y-84415862D01*
X180277962Y-84415862D01*
X180277962Y-84544273D01*
X180363935Y-84544273D01*
X180319162Y-84606259D01*
X180286327Y-84668592D01*
X180265339Y-84733952D01*
X180258422Y-84800422D01*
X180263599Y-84861626D01*
X180278112Y-84912193D01*
X180301106Y-84954154D01*
X180332672Y-84988978D01*
X180371167Y-85015910D01*
X180418350Y-85036143D01*
X180476017Y-85049184D01*
X180546385Y-85053885D01*
X181040000Y-85053885D01*
G37*
G36*
X181040000Y-86406502D02*
G01*
X181040000Y-85855918D01*
X180934487Y-85855918D01*
X180934487Y-86067676D01*
X180258422Y-86067676D01*
X180258422Y-85855918D01*
X180164633Y-85855918D01*
X180157550Y-85948120D01*
X180148057Y-85994035D01*
X180136912Y-86022614D01*
X180117409Y-86051032D01*
X180093986Y-86072073D01*
X180064918Y-86085911D01*
X180023949Y-86092956D01*
X180023949Y-86198835D01*
X180934487Y-86198835D01*
X180934487Y-86406502D01*
X181040000Y-86406502D01*
G37*
G36*
X185452204Y-74653113D02*
G01*
X186233000Y-74238700D01*
X186233000Y-74107139D01*
X185424067Y-74547985D01*
X185424067Y-74026630D01*
X185318554Y-74026630D01*
X185318554Y-74653113D01*
X185452204Y-74653113D01*
G37*
G36*
X185901335Y-74823113D02*
G01*
X185999560Y-74839081D01*
X186075802Y-74862920D01*
X186134191Y-74893100D01*
X186175499Y-74926435D01*
X186207414Y-74966063D01*
X186230717Y-75012822D01*
X186245384Y-75068116D01*
X186250585Y-75133801D01*
X186245481Y-75198458D01*
X186231053Y-75253205D01*
X186208075Y-75299796D01*
X186176555Y-75339558D01*
X186135730Y-75373294D01*
X186090914Y-75398209D01*
X186034759Y-75419239D01*
X185965102Y-75435680D01*
X185879481Y-75446513D01*
X185775172Y-75450450D01*
X185652058Y-75444591D01*
X185554504Y-75428687D01*
X185478074Y-75404837D01*
X185418901Y-75374503D01*
X185376968Y-75341107D01*
X185344627Y-75301437D01*
X185321049Y-75254673D01*
X185306223Y-75199415D01*
X185300973Y-75133856D01*
X185402965Y-75133856D01*
X185405890Y-75172143D01*
X185414041Y-75203576D01*
X185426815Y-75229423D01*
X185455728Y-75262121D01*
X185497706Y-75288169D01*
X185548513Y-75306130D01*
X185613826Y-75317954D01*
X185685275Y-75323574D01*
X185775172Y-75325648D01*
X185865931Y-75323557D01*
X185936244Y-75317954D01*
X186000436Y-75306394D01*
X186052638Y-75288774D01*
X186082920Y-75272372D01*
X186106667Y-75252713D01*
X186124794Y-75229697D01*
X186137588Y-75203304D01*
X186145697Y-75171735D01*
X186148589Y-75133856D01*
X186145474Y-75093510D01*
X186136877Y-75061127D01*
X186123530Y-75035158D01*
X186093477Y-75002704D01*
X186050825Y-74977675D01*
X185997841Y-74959655D01*
X185935915Y-74948769D01*
X185867816Y-74943869D01*
X185776381Y-74942010D01*
X185691321Y-74944021D01*
X185616903Y-74949703D01*
X185548041Y-74961430D01*
X185498915Y-74978280D01*
X185455951Y-75005000D01*
X185426815Y-75038235D01*
X185414001Y-75064459D01*
X185405869Y-75095945D01*
X185402965Y-75133856D01*
X185300973Y-75133856D01*
X185300969Y-75133801D01*
X185306126Y-75068969D01*
X185320701Y-75014125D01*
X185343916Y-74967491D01*
X185375780Y-74927728D01*
X185417088Y-74894034D01*
X185475360Y-74863515D01*
X185551732Y-74839384D01*
X185650445Y-74823200D01*
X185776381Y-74817208D01*
X185901335Y-74823113D01*
G37*
G36*
X186233000Y-76220969D02*
G01*
X185891841Y-76220969D01*
X185891841Y-76342694D01*
X185888867Y-76408230D01*
X185880680Y-76461914D01*
X185868211Y-76505579D01*
X185849703Y-76546955D01*
X185826129Y-76584127D01*
X185797319Y-76617522D01*
X185756013Y-76651247D01*
X185707413Y-76676818D01*
X185653868Y-76692622D01*
X185594756Y-76698030D01*
X185542150Y-76694510D01*
X185498694Y-76684713D01*
X185462810Y-76669454D01*
X185430136Y-76647938D01*
X185401170Y-76621152D01*
X185375652Y-76588616D01*
X185350378Y-76541729D01*
X185332403Y-76487169D01*
X185322333Y-76426807D01*
X185318554Y-76347585D01*
X185318554Y-76341485D01*
X185424067Y-76341485D01*
X185426351Y-76396756D01*
X185432310Y-76437051D01*
X185443344Y-76473240D01*
X185459403Y-76504425D01*
X185484647Y-76534062D01*
X185516006Y-76554819D01*
X185552722Y-76567055D01*
X185597614Y-76571415D01*
X185636506Y-76568303D01*
X185670044Y-76559435D01*
X185700861Y-76543677D01*
X185731538Y-76518549D01*
X185755853Y-76486109D01*
X185773249Y-76443535D01*
X185782674Y-76393907D01*
X185786328Y-76323624D01*
X185786328Y-76220969D01*
X185424067Y-76220969D01*
X185424067Y-76341485D01*
X185318554Y-76341485D01*
X185318554Y-76099245D01*
X186233000Y-76099245D01*
X186233000Y-76220969D01*
G37*
G36*
X186233000Y-77181686D02*
G01*
X186233000Y-76820195D01*
X186138038Y-76820195D01*
X186138038Y-76940051D01*
X185413516Y-76940051D01*
X185413516Y-76820195D01*
X185318554Y-76820195D01*
X185318554Y-77181686D01*
X185413516Y-77181686D01*
X185413516Y-77061775D01*
X186138038Y-77061775D01*
X186138038Y-77181686D01*
X186233000Y-77181686D01*
G37*
G36*
X186233000Y-78087558D02*
G01*
X186233000Y-77936928D01*
X185415000Y-77502841D01*
X186233000Y-77502841D01*
X186233000Y-77389140D01*
X185318554Y-77389140D01*
X185318554Y-77577854D01*
X186065333Y-77973802D01*
X185318554Y-77973802D01*
X185318554Y-78087558D01*
X186233000Y-78087558D01*
G37*
G36*
X186233000Y-79588315D02*
G01*
X186233000Y-79466590D01*
X185444785Y-79466590D01*
X185979769Y-79212040D01*
X185979769Y-79139500D01*
X185444785Y-78886819D01*
X186233000Y-78886819D01*
X186233000Y-78773118D01*
X185318554Y-78773118D01*
X185318554Y-78939081D01*
X185826555Y-79183189D01*
X185318554Y-79419274D01*
X185318554Y-79588315D01*
X186233000Y-79588315D01*
G37*
G36*
X186233000Y-80437474D02*
G01*
X186233000Y-79834402D01*
X185318554Y-79834402D01*
X185318554Y-80437474D01*
X185427584Y-80437474D01*
X185427584Y-79956126D01*
X185677298Y-79956126D01*
X185677298Y-80437474D01*
X185786328Y-80437474D01*
X185786328Y-79956126D01*
X186123969Y-79956126D01*
X186123969Y-80437474D01*
X186233000Y-80437474D01*
G37*
G36*
X186233000Y-81299932D02*
G01*
X186233000Y-80585522D01*
X186120452Y-80585522D01*
X185427584Y-81146828D01*
X185427584Y-80606404D01*
X185318554Y-80606404D01*
X185318554Y-81286358D01*
X185431101Y-81286358D01*
X186123969Y-80719556D01*
X186123969Y-81299932D01*
X186233000Y-81299932D01*
G37*
G36*
X186233000Y-82156345D02*
G01*
X186233000Y-81441935D01*
X186120452Y-81441935D01*
X185427584Y-82003241D01*
X185427584Y-81462818D01*
X185318554Y-81462818D01*
X185318554Y-82142771D01*
X185431101Y-82142771D01*
X186123969Y-81575969D01*
X186123969Y-82156345D01*
X186233000Y-82156345D01*
G37*
G36*
X186233000Y-82366602D02*
G01*
X185979769Y-82456342D01*
X185979769Y-82852291D01*
X186233000Y-82942032D01*
X186233000Y-83071780D01*
X185318554Y-82738535D01*
X185318554Y-82654289D01*
X185424782Y-82654289D01*
X185874256Y-82814757D01*
X185874256Y-82493217D01*
X185424782Y-82654289D01*
X185318554Y-82654289D01*
X185318554Y-82576254D01*
X186233000Y-82243009D01*
X186233000Y-82366602D01*
G37*
G36*
X186233000Y-83909233D02*
G01*
X186233000Y-83758603D01*
X185415000Y-83324516D01*
X186233000Y-83324516D01*
X186233000Y-83210815D01*
X185318554Y-83210815D01*
X185318554Y-83399529D01*
X186065333Y-83795477D01*
X185318554Y-83795477D01*
X185318554Y-83909233D01*
X186233000Y-83909233D01*
G37*
G36*
X186233000Y-84475266D02*
G01*
X186233000Y-84113774D01*
X186138038Y-84113774D01*
X186138038Y-84233631D01*
X185413516Y-84233631D01*
X185413516Y-84113774D01*
X185318554Y-84113774D01*
X185318554Y-84475266D01*
X185413516Y-84475266D01*
X185413516Y-84355355D01*
X186138038Y-84355355D01*
X186138038Y-84475266D01*
X186233000Y-84475266D01*
G37*
G36*
X186233000Y-85381138D02*
G01*
X186233000Y-85230508D01*
X185415000Y-84796421D01*
X186233000Y-84796421D01*
X186233000Y-84682720D01*
X185318554Y-84682720D01*
X185318554Y-84871434D01*
X186065333Y-85267382D01*
X185318554Y-85267382D01*
X185318554Y-85381138D01*
X186233000Y-85381138D01*
G37*
G36*
X186233000Y-86227495D02*
G01*
X186233000Y-85624423D01*
X185318554Y-85624423D01*
X185318554Y-86227495D01*
X185427584Y-86227495D01*
X185427584Y-85746147D01*
X185677298Y-85746147D01*
X185677298Y-86227495D01*
X185786328Y-86227495D01*
X185786328Y-85746147D01*
X186123969Y-85746147D01*
X186123969Y-86227495D01*
X186233000Y-86227495D01*
G37*
G36*
X186964204Y-75534585D02*
G01*
X187745000Y-75120172D01*
X187745000Y-74988611D01*
X186936067Y-75429457D01*
X186936067Y-74908102D01*
X186830554Y-74908102D01*
X186830554Y-75534585D01*
X186964204Y-75534585D01*
G37*
G36*
X187488251Y-76100123D02*
G01*
X187745000Y-76100123D01*
X187745000Y-76218166D01*
X187488251Y-76218166D01*
X187488251Y-76354069D01*
X187386256Y-76354069D01*
X187386256Y-76218166D01*
X186830554Y-76218166D01*
X186830554Y-76105069D01*
X186836314Y-76100123D01*
X186976844Y-76100123D01*
X187386256Y-76100123D01*
X187386256Y-75745391D01*
X186976844Y-76100123D01*
X186836314Y-76100123D01*
X187346853Y-75661750D01*
X187488251Y-75661750D01*
X187488251Y-76100123D01*
G37*
G36*
X187745000Y-77102441D02*
G01*
X187403841Y-77102441D01*
X187403841Y-77224166D01*
X187400867Y-77289702D01*
X187392680Y-77343386D01*
X187380211Y-77387051D01*
X187361703Y-77428427D01*
X187338129Y-77465599D01*
X187309319Y-77498994D01*
X187268013Y-77532719D01*
X187219413Y-77558290D01*
X187165868Y-77574094D01*
X187106756Y-77579502D01*
X187054150Y-77575982D01*
X187010694Y-77566185D01*
X186974810Y-77550926D01*
X186942136Y-77529410D01*
X186913170Y-77502624D01*
X186887652Y-77470088D01*
X186862378Y-77423201D01*
X186844403Y-77368641D01*
X186834333Y-77308279D01*
X186830554Y-77229057D01*
X186830554Y-77222957D01*
X186936067Y-77222957D01*
X186938351Y-77278228D01*
X186944310Y-77318523D01*
X186955344Y-77354712D01*
X186971403Y-77385897D01*
X186996647Y-77415534D01*
X187028006Y-77436291D01*
X187064722Y-77448527D01*
X187109614Y-77452887D01*
X187148506Y-77449775D01*
X187182044Y-77440907D01*
X187212861Y-77425149D01*
X187243538Y-77400021D01*
X187267853Y-77367581D01*
X187285249Y-77325007D01*
X187294674Y-77275379D01*
X187298328Y-77205096D01*
X187298328Y-77102441D01*
X186936067Y-77102441D01*
X186936067Y-77222957D01*
X186830554Y-77222957D01*
X186830554Y-76980717D01*
X187745000Y-76980717D01*
X187745000Y-77102441D01*
G37*
G36*
X187745000Y-78063158D02*
G01*
X187745000Y-77701667D01*
X187650038Y-77701667D01*
X187650038Y-77821523D01*
X186925516Y-77821523D01*
X186925516Y-77701667D01*
X186830554Y-77701667D01*
X186830554Y-78063158D01*
X186925516Y-78063158D01*
X186925516Y-77943247D01*
X187650038Y-77943247D01*
X187650038Y-78063158D01*
X187745000Y-78063158D01*
G37*
G36*
X187745000Y-78969030D02*
G01*
X187745000Y-78818400D01*
X186927000Y-78384313D01*
X187745000Y-78384313D01*
X187745000Y-78270612D01*
X186830554Y-78270612D01*
X186830554Y-78459326D01*
X187577333Y-78855274D01*
X186830554Y-78855274D01*
X186830554Y-78969030D01*
X187745000Y-78969030D01*
G37*
G36*
X187745000Y-79776314D02*
G01*
X187403841Y-79776314D01*
X187403841Y-79898039D01*
X187400867Y-79963575D01*
X187392680Y-80017259D01*
X187380211Y-80060924D01*
X187361703Y-80102300D01*
X187338129Y-80139472D01*
X187309319Y-80172867D01*
X187268013Y-80206592D01*
X187219413Y-80232163D01*
X187165868Y-80247967D01*
X187106756Y-80253375D01*
X187054150Y-80249855D01*
X187010694Y-80240058D01*
X186974810Y-80224799D01*
X186942136Y-80203283D01*
X186913170Y-80176497D01*
X186887652Y-80143961D01*
X186862378Y-80097074D01*
X186844403Y-80042514D01*
X186834333Y-79982152D01*
X186830554Y-79902930D01*
X186830554Y-79896830D01*
X186936067Y-79896830D01*
X186938351Y-79952101D01*
X186944310Y-79992396D01*
X186955344Y-80028585D01*
X186971403Y-80059770D01*
X186996647Y-80089407D01*
X187028006Y-80110164D01*
X187064722Y-80122400D01*
X187109614Y-80126760D01*
X187148506Y-80123648D01*
X187182044Y-80114780D01*
X187212861Y-80099022D01*
X187243538Y-80073894D01*
X187267853Y-80041454D01*
X187285249Y-79998880D01*
X187294674Y-79949252D01*
X187298328Y-79878969D01*
X187298328Y-79776314D01*
X186936067Y-79776314D01*
X186936067Y-79896830D01*
X186830554Y-79896830D01*
X186830554Y-79654590D01*
X187745000Y-79654590D01*
X187745000Y-79776314D01*
G37*
G36*
X187745000Y-80400104D02*
G01*
X187491769Y-80489845D01*
X187491769Y-80885793D01*
X187745000Y-80975534D01*
X187745000Y-81105282D01*
X186830554Y-80772037D01*
X186830554Y-80687792D01*
X186936782Y-80687792D01*
X187386256Y-80848259D01*
X187386256Y-80526720D01*
X186936782Y-80687792D01*
X186830554Y-80687792D01*
X186830554Y-80609756D01*
X187745000Y-80276511D01*
X187745000Y-80400104D01*
G37*
G36*
X187745000Y-81475457D02*
G01*
X187740159Y-81595424D01*
X187727799Y-81678624D01*
X187704987Y-81752765D01*
X187671910Y-81818484D01*
X187630098Y-81874201D01*
X187578082Y-81922332D01*
X187514685Y-81963289D01*
X187445336Y-81993248D01*
X187370412Y-82011462D01*
X187288711Y-82017694D01*
X187201141Y-82011484D01*
X187124978Y-81993776D01*
X187058396Y-81965432D01*
X186997857Y-81925904D01*
X186946323Y-81877577D01*
X186903039Y-81819747D01*
X186873664Y-81760961D01*
X186849898Y-81685988D01*
X186836042Y-81600141D01*
X186830874Y-81480403D01*
X186936067Y-81480403D01*
X186939301Y-81562261D01*
X186947992Y-81626087D01*
X186964585Y-81685263D01*
X186990527Y-81741052D01*
X187022491Y-81786934D01*
X187060873Y-81823950D01*
X187106262Y-81852940D01*
X187156600Y-81873079D01*
X187216201Y-81885906D01*
X187286843Y-81890474D01*
X187357330Y-81886261D01*
X187415870Y-81874538D01*
X187464401Y-81856347D01*
X187508609Y-81829854D01*
X187546580Y-81795951D01*
X187578872Y-81753967D01*
X187608176Y-81696789D01*
X187626627Y-81633781D01*
X187636032Y-81565509D01*
X187639487Y-81480403D01*
X187639487Y-81366042D01*
X186936067Y-81366042D01*
X186936067Y-81480403D01*
X186830874Y-81480403D01*
X186830554Y-81472984D01*
X186830554Y-81244317D01*
X187745000Y-81244317D01*
X187745000Y-81475457D01*
G37*
G36*
X187745000Y-82336761D02*
G01*
X187382739Y-82336761D01*
X187382739Y-82508274D01*
X187745000Y-82814481D01*
X187745000Y-82972476D01*
X187346413Y-82628185D01*
X187319517Y-82683344D01*
X187286029Y-82728623D01*
X187245792Y-82765297D01*
X187198970Y-82792391D01*
X187144300Y-82809182D01*
X187079883Y-82815086D01*
X187031699Y-82811654D01*
X186991873Y-82802083D01*
X186958928Y-82787114D01*
X186915566Y-82753981D01*
X186879794Y-82709353D01*
X186856507Y-82662761D01*
X186841325Y-82609720D01*
X186833528Y-82550993D01*
X186830876Y-82480028D01*
X186936067Y-82480028D01*
X186937947Y-82527599D01*
X186943046Y-82565482D01*
X186952909Y-82599882D01*
X186967611Y-82628185D01*
X186991072Y-82656024D01*
X187018334Y-82673962D01*
X187049904Y-82684209D01*
X187087247Y-82687811D01*
X187135690Y-82684181D01*
X187171273Y-82674567D01*
X187202265Y-82657900D01*
X187229855Y-82633736D01*
X187252663Y-82600722D01*
X187267224Y-82560536D01*
X187274544Y-82515598D01*
X187277226Y-82459694D01*
X187277226Y-82336761D01*
X186936067Y-82336761D01*
X186936067Y-82480028D01*
X186830876Y-82480028D01*
X186830554Y-82471400D01*
X186830554Y-82215036D01*
X187745000Y-82215036D01*
X187745000Y-82336761D01*
G37*
G36*
X187745000Y-83413542D02*
G01*
X187745000Y-83052050D01*
X187650038Y-83052050D01*
X187650038Y-83171906D01*
X186925516Y-83171906D01*
X186925516Y-83052050D01*
X186830554Y-83052050D01*
X186830554Y-83413542D01*
X186925516Y-83413542D01*
X186925516Y-83293631D01*
X187650038Y-83293631D01*
X187650038Y-83413542D01*
X187745000Y-83413542D01*
G37*
G36*
X187745000Y-84319414D02*
G01*
X187745000Y-84168784D01*
X186927000Y-83734697D01*
X187745000Y-83734697D01*
X187745000Y-83620996D01*
X186830554Y-83620996D01*
X186830554Y-83809710D01*
X187577333Y-84205658D01*
X186830554Y-84205658D01*
X186830554Y-84319414D01*
X187745000Y-84319414D01*
G37*
G36*
X187677131Y-85326238D02*
G01*
X187708883Y-85248956D01*
X187737086Y-85162364D01*
X187756378Y-85073876D01*
X187762585Y-84990575D01*
X187759157Y-84919711D01*
X187749197Y-84854545D01*
X187733074Y-84794442D01*
X187709709Y-84737103D01*
X187680226Y-84686747D01*
X187644597Y-84642603D01*
X187602189Y-84604107D01*
X187552796Y-84571536D01*
X187495560Y-84544838D01*
X187434968Y-84526292D01*
X187365635Y-84514565D01*
X187286238Y-84510437D01*
X187197897Y-84516123D01*
X187120573Y-84532354D01*
X187052643Y-84558277D01*
X186992759Y-84593599D01*
X186939914Y-84638591D01*
X186895521Y-84691813D01*
X186860549Y-84752397D01*
X186834802Y-84821405D01*
X186818641Y-84900239D01*
X186812969Y-84990575D01*
X186817550Y-85068849D01*
X186831598Y-85150109D01*
X186855754Y-85232184D01*
X186894686Y-85325634D01*
X187038063Y-85325634D01*
X187038063Y-85314588D01*
X187000419Y-85259249D01*
X186961511Y-85187917D01*
X186944911Y-85143749D01*
X186930737Y-85091692D01*
X186921718Y-85035971D01*
X186918482Y-84969638D01*
X186922771Y-84908267D01*
X186935057Y-84854306D01*
X186954804Y-84806601D01*
X186981938Y-84764224D01*
X187016851Y-84726518D01*
X187068279Y-84688607D01*
X187128593Y-84660795D01*
X187199494Y-84643263D01*
X187283161Y-84637052D01*
X187355203Y-84641308D01*
X187417488Y-84653370D01*
X187471418Y-84672449D01*
X187518179Y-84698148D01*
X187558703Y-84730475D01*
X187593420Y-84769627D01*
X187620542Y-84813815D01*
X187640368Y-84863754D01*
X187652744Y-84920425D01*
X187657072Y-84985025D01*
X187654196Y-85043918D01*
X187645532Y-85102793D01*
X187631822Y-85159386D01*
X187615636Y-85205778D01*
X187393290Y-85205778D01*
X187393290Y-84960460D01*
X187284260Y-84960460D01*
X187284260Y-85326238D01*
X187677131Y-85326238D01*
G37*
G36*
X188342554Y-75968562D02*
G01*
X189257000Y-75635317D01*
X189257000Y-75473036D01*
X188342554Y-75139791D01*
X188342554Y-75270144D01*
X189147090Y-75557227D01*
X188342554Y-75844365D01*
X188342554Y-75968562D01*
G37*
G36*
X189257000Y-76710670D02*
G01*
X189257000Y-76107597D01*
X188342554Y-76107597D01*
X188342554Y-76710670D01*
X188451584Y-76710670D01*
X188451584Y-76229322D01*
X188701298Y-76229322D01*
X188701298Y-76710670D01*
X188810328Y-76710670D01*
X188810328Y-76229322D01*
X189147969Y-76229322D01*
X189147969Y-76710670D01*
X189257000Y-76710670D01*
G37*
G36*
X189257000Y-77025944D02*
G01*
X188894739Y-77025944D01*
X188894739Y-77197458D01*
X189257000Y-77503665D01*
X189257000Y-77661660D01*
X188858413Y-77317369D01*
X188831517Y-77372528D01*
X188798029Y-77417806D01*
X188757792Y-77454481D01*
X188710970Y-77481575D01*
X188656300Y-77498365D01*
X188591883Y-77504270D01*
X188543699Y-77500838D01*
X188503873Y-77491267D01*
X188470928Y-77476298D01*
X188427566Y-77443165D01*
X188391794Y-77398537D01*
X188368507Y-77351944D01*
X188353325Y-77298904D01*
X188345528Y-77240177D01*
X188342876Y-77169211D01*
X188448067Y-77169211D01*
X188449947Y-77216782D01*
X188455046Y-77254666D01*
X188464909Y-77289066D01*
X188479611Y-77317369D01*
X188503072Y-77345208D01*
X188530334Y-77363146D01*
X188561904Y-77373393D01*
X188599247Y-77376995D01*
X188647690Y-77373365D01*
X188683273Y-77363751D01*
X188714265Y-77347084D01*
X188741855Y-77322919D01*
X188764663Y-77289906D01*
X188779224Y-77249720D01*
X188786544Y-77204781D01*
X188789226Y-77148878D01*
X188789226Y-77025944D01*
X188448067Y-77025944D01*
X188448067Y-77169211D01*
X188342876Y-77169211D01*
X188342554Y-77160583D01*
X188342554Y-76904220D01*
X189257000Y-76904220D01*
X189257000Y-77025944D01*
G37*
G36*
X188996405Y-78445148D02*
G01*
X189049114Y-78439045D01*
X189102247Y-78420254D01*
X189150583Y-78390345D01*
X189190889Y-78350461D01*
X189225628Y-78297847D01*
X189252438Y-78235771D01*
X189268623Y-78166592D01*
X189274585Y-78078106D01*
X189269742Y-77981827D01*
X189256175Y-77900108D01*
X189233660Y-77821417D01*
X189201605Y-77739366D01*
X189049491Y-77739366D01*
X189049491Y-77747993D01*
X189084518Y-77796214D01*
X189114003Y-77849509D01*
X189137968Y-77908406D01*
X189155689Y-77969720D01*
X189165821Y-78026511D01*
X189169072Y-78079370D01*
X189163651Y-78153872D01*
X189148976Y-78211404D01*
X189126702Y-78255500D01*
X189102980Y-78283786D01*
X189076669Y-78303085D01*
X189047233Y-78314587D01*
X189013660Y-78318533D01*
X188974126Y-78314707D01*
X188945028Y-78304441D01*
X188923810Y-78288692D01*
X188899362Y-78253596D01*
X188878857Y-78198017D01*
X188858578Y-78098110D01*
X188838245Y-77984079D01*
X188821646Y-77922998D01*
X188801080Y-77873741D01*
X188777098Y-77834454D01*
X188749933Y-77803608D01*
X188717090Y-77778398D01*
X188679642Y-77760189D01*
X188636717Y-77748877D01*
X188587157Y-77744916D01*
X188532091Y-77751014D01*
X188483183Y-77768826D01*
X188438960Y-77798635D01*
X188398553Y-77842021D01*
X188367253Y-77892097D01*
X188344335Y-77949047D01*
X188329996Y-78014061D01*
X188324969Y-78088602D01*
X188329756Y-78182862D01*
X188343379Y-78265611D01*
X188364541Y-78343420D01*
X188388826Y-78408274D01*
X188532478Y-78408274D01*
X188532478Y-78399646D01*
X188506033Y-78363086D01*
X188481616Y-78317746D01*
X188459498Y-78262204D01*
X188443347Y-78204871D01*
X188433703Y-78146894D01*
X188430482Y-78087943D01*
X188435511Y-78023851D01*
X188449410Y-77972294D01*
X188471038Y-77930828D01*
X188501608Y-77897102D01*
X188535886Y-77877966D01*
X188575452Y-77871532D01*
X188612507Y-77875151D01*
X188641903Y-77885181D01*
X188665303Y-77901042D01*
X188683606Y-77922955D01*
X188700431Y-77956367D01*
X188715147Y-78004961D01*
X188736084Y-78116849D01*
X188761309Y-78239783D01*
X188783949Y-78305692D01*
X188811435Y-78355966D01*
X188843191Y-78393491D01*
X188871881Y-78415249D01*
X188906183Y-78431310D01*
X188947214Y-78441510D01*
X188996405Y-78445148D01*
G37*
G36*
X189257000Y-78963535D02*
G01*
X189257000Y-78602044D01*
X189162038Y-78602044D01*
X189162038Y-78721900D01*
X188437516Y-78721900D01*
X188437516Y-78602044D01*
X188342554Y-78602044D01*
X188342554Y-78963535D01*
X188437516Y-78963535D01*
X188437516Y-78843624D01*
X189162038Y-78843624D01*
X189162038Y-78963535D01*
X189257000Y-78963535D01*
G37*
G36*
X188875221Y-79122268D02*
G01*
X188942032Y-79132395D01*
X189001515Y-79148513D01*
X189058391Y-79171809D01*
X189107696Y-79200230D01*
X189150278Y-79233692D01*
X189187351Y-79273034D01*
X189218108Y-79317611D01*
X189242766Y-79368001D01*
X189260171Y-79421544D01*
X189270893Y-79479814D01*
X189274585Y-79543526D01*
X189270902Y-79608974D01*
X189260326Y-79667396D01*
X189243371Y-79719711D01*
X189219137Y-79768888D01*
X189188224Y-79813303D01*
X189150278Y-79853416D01*
X189108510Y-79886431D01*
X189059361Y-79914851D01*
X189001845Y-79938540D01*
X188941719Y-79955057D01*
X188874772Y-79965388D01*
X188800107Y-79968985D01*
X188725413Y-79965453D01*
X188658580Y-79955320D01*
X188598698Y-79939145D01*
X188541412Y-79915825D01*
X188491686Y-79887224D01*
X188448672Y-79853416D01*
X188412301Y-79814548D01*
X188381840Y-79770357D01*
X188357117Y-79720261D01*
X188339593Y-79667117D01*
X188328730Y-79608483D01*
X188325004Y-79544131D01*
X188430482Y-79544131D01*
X188436887Y-79611618D01*
X188455181Y-79669294D01*
X188484878Y-79719105D01*
X188526707Y-79762356D01*
X188576396Y-79795517D01*
X188636977Y-79820460D01*
X188710651Y-79836530D01*
X188800107Y-79842315D01*
X188890555Y-79836433D01*
X188964556Y-79820141D01*
X189024964Y-79794926D01*
X189074110Y-79761477D01*
X189115451Y-79717851D01*
X189144764Y-79668011D01*
X189162780Y-79610717D01*
X189169072Y-79544131D01*
X189162785Y-79477548D01*
X189144775Y-79420192D01*
X189115461Y-79370238D01*
X189074110Y-79326456D01*
X189024946Y-79292882D01*
X188964530Y-79267583D01*
X188890536Y-79251241D01*
X188800107Y-79245343D01*
X188710629Y-79251107D01*
X188636947Y-79267117D01*
X188576374Y-79291959D01*
X188526707Y-79324972D01*
X188484948Y-79368086D01*
X188455247Y-79417977D01*
X188436913Y-79475991D01*
X188430482Y-79544131D01*
X188325004Y-79544131D01*
X188324969Y-79543526D01*
X188328626Y-79481065D01*
X188339329Y-79422976D01*
X188356842Y-79368661D01*
X188381535Y-79317469D01*
X188412095Y-79272914D01*
X188448672Y-79234297D01*
X188492841Y-79200055D01*
X188543102Y-79171361D01*
X188600182Y-79148238D01*
X188659866Y-79132225D01*
X188726220Y-79122212D01*
X188800107Y-79118727D01*
X188875221Y-79122268D01*
G37*
G36*
X189257000Y-80860350D02*
G01*
X189257000Y-80709719D01*
X188439000Y-80275632D01*
X189257000Y-80275632D01*
X189257000Y-80161931D01*
X188342554Y-80161931D01*
X188342554Y-80350645D01*
X189089333Y-80746593D01*
X188342554Y-80746593D01*
X188342554Y-80860350D01*
X189257000Y-80860350D01*
G37*
G36*
X188747020Y-81340323D02*
G01*
X188747020Y-81193375D01*
X188571166Y-81193375D01*
X188571166Y-81340323D01*
X188747020Y-81340323D01*
G37*
G36*
X189257000Y-81340323D02*
G01*
X189257000Y-81193375D01*
X189081145Y-81193375D01*
X189081145Y-81340323D01*
X189257000Y-81340323D01*
G37*
G36*
X188451584Y-82770353D02*
G01*
X188451584Y-82443263D01*
X189257000Y-82443263D01*
X189257000Y-82321539D01*
X188451584Y-82321539D01*
X188451584Y-81994448D01*
X188342554Y-81994448D01*
X188342554Y-82770353D01*
X188451584Y-82770353D01*
G37*
G36*
X188451584Y-83503668D02*
G01*
X188451584Y-83176578D01*
X189257000Y-83176578D01*
X189257000Y-83054853D01*
X188451584Y-83054853D01*
X188451584Y-82727763D01*
X188342554Y-82727763D01*
X188342554Y-83503668D01*
X188451584Y-83503668D01*
G37*
G36*
X188925335Y-83594313D02*
G01*
X189023560Y-83610281D01*
X189099802Y-83634120D01*
X189158191Y-83664300D01*
X189199499Y-83697635D01*
X189231414Y-83737263D01*
X189254717Y-83784022D01*
X189269384Y-83839316D01*
X189274585Y-83905002D01*
X189269481Y-83969658D01*
X189255053Y-84024405D01*
X189232075Y-84070996D01*
X189200555Y-84110758D01*
X189159730Y-84144494D01*
X189114914Y-84169409D01*
X189058759Y-84190439D01*
X188989102Y-84206880D01*
X188903481Y-84217713D01*
X188799172Y-84221650D01*
X188676058Y-84215791D01*
X188578504Y-84199887D01*
X188502074Y-84176037D01*
X188442901Y-84145703D01*
X188400968Y-84112307D01*
X188368627Y-84072637D01*
X188345049Y-84025873D01*
X188330223Y-83970615D01*
X188324973Y-83905056D01*
X188426965Y-83905056D01*
X188429890Y-83943343D01*
X188438041Y-83974776D01*
X188450815Y-84000623D01*
X188479728Y-84033321D01*
X188521706Y-84059369D01*
X188572513Y-84077330D01*
X188637826Y-84089155D01*
X188709275Y-84094774D01*
X188799172Y-84096848D01*
X188889931Y-84094757D01*
X188960244Y-84089155D01*
X189024436Y-84077594D01*
X189076638Y-84059974D01*
X189106920Y-84043572D01*
X189130667Y-84023913D01*
X189148794Y-84000897D01*
X189161588Y-83974504D01*
X189169697Y-83942935D01*
X189172589Y-83905056D01*
X189169474Y-83864710D01*
X189160877Y-83832327D01*
X189147530Y-83806358D01*
X189117477Y-83773904D01*
X189074825Y-83748875D01*
X189021841Y-83730855D01*
X188959915Y-83719969D01*
X188891816Y-83715069D01*
X188800381Y-83713210D01*
X188715321Y-83715221D01*
X188640903Y-83720903D01*
X188572041Y-83732630D01*
X188522915Y-83749480D01*
X188479951Y-83776200D01*
X188450815Y-83809435D01*
X188438001Y-83835659D01*
X188429869Y-83867145D01*
X188426965Y-83905056D01*
X188324973Y-83905056D01*
X188324969Y-83905002D01*
X188330126Y-83840169D01*
X188344701Y-83785325D01*
X188367916Y-83738691D01*
X188399780Y-83698928D01*
X188441088Y-83665234D01*
X188499360Y-83634715D01*
X188575732Y-83610584D01*
X188674445Y-83594400D01*
X188800381Y-83588408D01*
X188925335Y-83594313D01*
G37*
G36*
X189257000Y-84971616D02*
G01*
X189257000Y-84476090D01*
X189162038Y-84476090D01*
X189162038Y-84666673D01*
X188553580Y-84666673D01*
X188553580Y-84476090D01*
X188469170Y-84476090D01*
X188462795Y-84559072D01*
X188454252Y-84600395D01*
X188444220Y-84626116D01*
X188426668Y-84651693D01*
X188405587Y-84670630D01*
X188379426Y-84683084D01*
X188342554Y-84689424D01*
X188342554Y-84784715D01*
X189162038Y-84784715D01*
X189162038Y-84971616D01*
X189257000Y-84971616D01*
G37*
D11*
%TO.C,J101*%
X182440000Y-72095000D02*
X184290000Y-72095000D01*
X182440000Y-72247000D02*
X182440000Y-72095000D01*
X182440000Y-87615000D02*
X182440000Y-87463000D01*
X183111000Y-74775000D02*
X183111000Y-77442000D01*
X183111000Y-77442000D02*
X183619000Y-77442000D01*
X183111000Y-82332000D02*
X183111000Y-84998000D01*
X183111000Y-84998000D02*
X183619000Y-84998000D01*
X183619000Y-74775000D02*
X183111000Y-74775000D01*
X183619000Y-77442000D02*
X183619000Y-74775000D01*
X183619000Y-82332000D02*
X183111000Y-82332000D01*
X183619000Y-84998000D02*
X183619000Y-82332000D01*
X184290000Y-72247000D02*
X184290000Y-72095000D01*
X184290000Y-87615000D02*
X182440000Y-87615000D01*
X184290000Y-87615000D02*
X184290000Y-87463000D01*
%TD*%
%LPC*%
D12*
%TO.C,U102*%
X185855000Y-82985000D03*
X185855000Y-79885000D03*
X185855000Y-76785000D03*
X180855000Y-76785000D03*
X180855000Y-79885000D03*
X180855000Y-82985000D03*
%TD*%
D13*
%TO.C,J101*%
X184720000Y-73055000D03*
X184720000Y-73455000D03*
X184720000Y-73855000D03*
X184720000Y-74255000D03*
X184720000Y-74655000D03*
X184720000Y-75055000D03*
X184720000Y-75455000D03*
X184720000Y-75855000D03*
X184720000Y-76255000D03*
X184720000Y-76655000D03*
X184720000Y-77055000D03*
X184720000Y-77455000D03*
X184720000Y-77855000D03*
X184720000Y-78255000D03*
X184720000Y-78655000D03*
X184720000Y-79055000D03*
X184720000Y-79455000D03*
X184720000Y-79855000D03*
X184720000Y-80255000D03*
X184720000Y-80655000D03*
X184720000Y-81055000D03*
X184720000Y-81455000D03*
X184720000Y-81855000D03*
X184720000Y-82255000D03*
X184720000Y-82655000D03*
X184720000Y-83055000D03*
X184720000Y-83455000D03*
X184720000Y-83855000D03*
X184720000Y-84255000D03*
X184720000Y-84655000D03*
X184720000Y-85055000D03*
X184720000Y-85455000D03*
X184720000Y-85855000D03*
X184720000Y-86255000D03*
X184720000Y-86655000D03*
X182010000Y-86655000D03*
X182010000Y-86255000D03*
X182010000Y-85855000D03*
X182010000Y-85455000D03*
X182010000Y-85055000D03*
X182010000Y-84655000D03*
X182010000Y-84255000D03*
X182010000Y-83855000D03*
X182010000Y-83455000D03*
X182010000Y-83055000D03*
X182010000Y-82655000D03*
X182010000Y-82255000D03*
X182010000Y-81855000D03*
X182010000Y-81455000D03*
X182010000Y-81055000D03*
X182010000Y-80655000D03*
X182010000Y-80255000D03*
X182010000Y-79855000D03*
X182010000Y-79455000D03*
X182010000Y-79055000D03*
X182010000Y-78655000D03*
X182010000Y-78255000D03*
X182010000Y-77855000D03*
X182010000Y-77455000D03*
X182010000Y-77055000D03*
X182010000Y-76655000D03*
X182010000Y-76255000D03*
X182010000Y-75855000D03*
X182010000Y-75455000D03*
X182010000Y-75055000D03*
X182010000Y-74655000D03*
X182010000Y-74255000D03*
X182010000Y-73855000D03*
X182010000Y-73455000D03*
X182010000Y-73055000D03*
D14*
X184720000Y-72580000D03*
X182010000Y-72580000D03*
X184720000Y-87130000D03*
X182010000Y-87130000D03*
%TD*%
%LPD*%
M02*
