%TF.GenerationSoftware,KiCad,Pcbnew,9.0.4*%
%TF.CreationDate,2026-03-27T20:09:31-04:00*%
%TF.ProjectId,V3_COB_Original,56335f43-4f42-45f4-9f72-6967696e616c,rev?*%
%TF.SameCoordinates,Original*%
%TF.FileFunction,Soldermask,Top*%
%TF.FilePolarity,Negative*%
%FSLAX46Y46*%
G04 Gerber Fmt 4.6, Leading zero omitted, Abs format (unit mm)*
G04 Created by KiCad (PCBNEW 9.0.4) date 2026-03-27 20:09:31*
%MOMM*%
%LPD*%
G01*
G04 APERTURE LIST*
G04 Aperture macros list*
%AMRoundRect*
0 Rectangle with rounded corners*
0 $1 Rounding radius*
0 $2 $3 $4 $5 $6 $7 $8 $9 X,Y pos of 4 corners*
0 Add a 4 corners polygon primitive as box body*
4,1,4,$2,$3,$4,$5,$6,$7,$8,$9,$2,$3,0*
0 Add four circle primitives for the rounded corners*
1,1,$1+$1,$2,$3*
1,1,$1+$1,$4,$5*
1,1,$1+$1,$6,$7*
1,1,$1+$1,$8,$9*
0 Add four rect primitives between the rounded corners*
20,1,$1+$1,$2,$3,$4,$5,0*
20,1,$1+$1,$4,$5,$6,$7,0*
20,1,$1+$1,$6,$7,$8,$9,0*
20,1,$1+$1,$8,$9,$2,$3,0*%
G04 Aperture macros list end*
%ADD10C,0.100000*%
%ADD11C,0.040000*%
%ADD12RoundRect,0.040000X1.960000X2.560000X-1.960000X2.560000X-1.960000X-2.560000X1.960000X-2.560000X0*%
%ADD13C,0.500000*%
G04 APERTURE END LIST*
%TO.C,U102*%
D10*
X178655000Y-74755000D02*
X188055000Y-74755000D01*
X188055000Y-84985000D01*
X178655000Y-84985000D01*
X178655000Y-74755000D01*
G36*
X178655000Y-74755000D02*
G01*
X188055000Y-74755000D01*
X188055000Y-84985000D01*
X178655000Y-84985000D01*
X178655000Y-74755000D01*
G37*
D11*
%TO.C,G\u002A\u002A\u002A*%
X189326134Y-72615432D02*
X189326524Y-72619852D01*
X189325832Y-72627724D01*
X189324015Y-72639461D01*
X189321028Y-72655476D01*
X189319207Y-72664596D01*
X189305683Y-72720969D01*
X189288053Y-72776679D01*
X189266197Y-72831951D01*
X189239999Y-72887014D01*
X189209338Y-72942095D01*
X189174097Y-72997422D01*
X189134157Y-73053223D01*
X189089400Y-73109724D01*
X189084382Y-73115748D01*
X189072268Y-73129710D01*
X189057249Y-73146213D01*
X189040154Y-73164411D01*
X189021809Y-73183459D01*
X189003043Y-73202511D01*
X188984681Y-73220722D01*
X188967552Y-73237245D01*
X188952484Y-73251235D01*
X188947191Y-73255957D01*
X188938188Y-73263715D01*
X188926898Y-73273211D01*
X188914161Y-73283762D01*
X188900815Y-73294689D01*
X188887699Y-73305307D01*
X188875651Y-73314938D01*
X188865511Y-73322897D01*
X188858117Y-73328505D01*
X188856478Y-73329684D01*
X188854947Y-73331111D01*
X188853589Y-73333429D01*
X188852309Y-73337176D01*
X188851012Y-73342886D01*
X188849602Y-73351097D01*
X188847983Y-73362344D01*
X188846060Y-73377163D01*
X188843737Y-73396092D01*
X188841890Y-73411501D01*
X188839536Y-73431144D01*
X188837316Y-73449474D01*
X188835314Y-73465809D01*
X188833614Y-73479469D01*
X188832301Y-73489771D01*
X188831459Y-73496037D01*
X188831266Y-73497301D01*
X188829216Y-73501981D01*
X188824186Y-73510171D01*
X188816425Y-73521512D01*
X188806179Y-73535643D01*
X188793696Y-73552205D01*
X188792327Y-73553992D01*
X188782457Y-73566848D01*
X188770089Y-73582968D01*
X188755788Y-73601613D01*
X188740119Y-73622045D01*
X188723648Y-73643528D01*
X188706940Y-73665324D01*
X188690562Y-73686694D01*
X188684801Y-73694212D01*
X188670446Y-73712904D01*
X188657014Y-73730312D01*
X188644817Y-73746038D01*
X188634167Y-73759683D01*
X188625376Y-73770850D01*
X188618755Y-73779141D01*
X188614616Y-73784156D01*
X188613285Y-73785547D01*
X188612458Y-73783260D01*
X188611537Y-73777011D01*
X188610658Y-73767872D01*
X188610185Y-73761094D01*
X188609790Y-73752620D01*
X188609354Y-73739910D01*
X188608896Y-73723765D01*
X188608437Y-73704989D01*
X188607996Y-73684383D01*
X188607594Y-73662749D01*
X188607361Y-73648342D01*
X188606993Y-73626194D01*
X188606573Y-73604304D01*
X188606120Y-73583522D01*
X188605656Y-73564699D01*
X188605201Y-73548689D01*
X188604775Y-73536341D01*
X188604536Y-73530927D01*
X188603053Y-73501697D01*
X188559846Y-73518795D01*
X188516639Y-73535893D01*
X188502947Y-73520309D01*
X188495794Y-73512451D01*
X188486220Y-73502338D01*
X188474910Y-73490654D01*
X188462548Y-73478084D01*
X188449818Y-73465312D01*
X188437407Y-73453022D01*
X188425997Y-73441898D01*
X188416273Y-73432625D01*
X188408922Y-73425886D01*
X188405851Y-73423278D01*
X188395847Y-73415310D01*
X188413740Y-73371202D01*
X188419172Y-73357459D01*
X188423641Y-73345458D01*
X188426904Y-73335915D01*
X188428717Y-73329543D01*
X188428838Y-73327058D01*
X188428784Y-73327048D01*
X188425790Y-73326949D01*
X188418235Y-73326682D01*
X188406592Y-73326264D01*
X188391334Y-73325713D01*
X188372935Y-73325045D01*
X188351870Y-73324277D01*
X188328611Y-73323428D01*
X188303634Y-73322513D01*
X188291136Y-73322055D01*
X188265431Y-73321114D01*
X188241161Y-73320230D01*
X188218809Y-73319420D01*
X188198857Y-73318702D01*
X188181787Y-73318092D01*
X188168080Y-73317608D01*
X188158219Y-73317267D01*
X188152686Y-73317087D01*
X188151719Y-73317062D01*
X188148271Y-73316081D01*
X188147939Y-73314863D01*
X188150100Y-73312901D01*
X188155916Y-73308248D01*
X188164990Y-73301199D01*
X188176929Y-73292050D01*
X188191337Y-73281094D01*
X188207817Y-73268626D01*
X188225976Y-73254943D01*
X188245418Y-73240338D01*
X188265747Y-73225107D01*
X188286568Y-73209545D01*
X188307486Y-73193947D01*
X188328106Y-73178607D01*
X188348032Y-73163820D01*
X188366869Y-73149882D01*
X188384222Y-73137088D01*
X188399695Y-73125732D01*
X188412893Y-73116110D01*
X188423421Y-73108516D01*
X188430884Y-73103245D01*
X188434886Y-73100593D01*
X188435439Y-73100331D01*
X188439994Y-73100049D01*
X188448544Y-73099259D01*
X188460378Y-73098045D01*
X188474783Y-73096489D01*
X188491048Y-73094676D01*
X188508458Y-73092689D01*
X188526304Y-73090611D01*
X188543871Y-73088525D01*
X188560448Y-73086516D01*
X188575322Y-73084666D01*
X188587782Y-73083060D01*
X188597115Y-73081780D01*
X188602608Y-73080910D01*
X188603781Y-73080606D01*
X188605839Y-73078080D01*
X188610369Y-73072430D01*
X188616712Y-73064483D01*
X188624208Y-73055062D01*
X188624554Y-73054626D01*
X188648963Y-73025098D01*
X188676463Y-72993907D01*
X188705988Y-72962163D01*
X188736470Y-72930974D01*
X188739557Y-72927973D01*
X188932130Y-72927973D01*
X188933331Y-72944392D01*
X188937553Y-72958972D01*
X188937809Y-72959542D01*
X188948280Y-72976525D01*
X188962519Y-72990647D01*
X188979750Y-73001220D01*
X188989063Y-73004901D01*
X188999287Y-73006554D01*
X189012173Y-73006216D01*
X189025856Y-73004109D01*
X189038471Y-73000454D01*
X189043108Y-72998459D01*
X189058899Y-72988057D01*
X189071192Y-72974245D01*
X189079659Y-72957533D01*
X189083969Y-72938429D01*
X189084273Y-72934853D01*
X189083262Y-72915089D01*
X189077859Y-72897226D01*
X189068508Y-72881769D01*
X189055654Y-72869224D01*
X189039741Y-72860095D01*
X189021213Y-72854887D01*
X189013168Y-72854014D01*
X188993204Y-72855089D01*
X188975161Y-72860747D01*
X188959390Y-72870782D01*
X188946243Y-72884990D01*
X188938677Y-72897532D01*
X188933921Y-72911694D01*
X188932130Y-72927973D01*
X188739557Y-72927973D01*
X188766844Y-72901448D01*
X188796043Y-72874694D01*
X188806392Y-72865670D01*
X188832669Y-72843867D01*
X188861658Y-72821139D01*
X188892156Y-72798362D01*
X188922958Y-72776411D01*
X188952862Y-72756159D01*
X188980662Y-72738483D01*
X188985283Y-72735683D01*
X189037214Y-72706644D01*
X189090458Y-72681055D01*
X189144172Y-72659272D01*
X189197509Y-72641651D01*
X189229202Y-72633169D01*
X189241795Y-72630221D01*
X189256103Y-72627052D01*
X189271176Y-72623852D01*
X189286064Y-72620812D01*
X189299817Y-72618121D01*
X189311484Y-72615970D01*
X189320115Y-72614550D01*
X189324709Y-72614050D01*
X189326134Y-72615432D01*
G36*
X189326134Y-72615432D02*
G01*
X189326524Y-72619852D01*
X189325832Y-72627724D01*
X189324015Y-72639461D01*
X189321028Y-72655476D01*
X189319207Y-72664596D01*
X189305683Y-72720969D01*
X189288053Y-72776679D01*
X189266197Y-72831951D01*
X189239999Y-72887014D01*
X189209338Y-72942095D01*
X189174097Y-72997422D01*
X189134157Y-73053223D01*
X189089400Y-73109724D01*
X189084382Y-73115748D01*
X189072268Y-73129710D01*
X189057249Y-73146213D01*
X189040154Y-73164411D01*
X189021809Y-73183459D01*
X189003043Y-73202511D01*
X188984681Y-73220722D01*
X188967552Y-73237245D01*
X188952484Y-73251235D01*
X188947191Y-73255957D01*
X188938188Y-73263715D01*
X188926898Y-73273211D01*
X188914161Y-73283762D01*
X188900815Y-73294689D01*
X188887699Y-73305307D01*
X188875651Y-73314938D01*
X188865511Y-73322897D01*
X188858117Y-73328505D01*
X188856478Y-73329684D01*
X188854947Y-73331111D01*
X188853589Y-73333429D01*
X188852309Y-73337176D01*
X188851012Y-73342886D01*
X188849602Y-73351097D01*
X188847983Y-73362344D01*
X188846060Y-73377163D01*
X188843737Y-73396092D01*
X188841890Y-73411501D01*
X188839536Y-73431144D01*
X188837316Y-73449474D01*
X188835314Y-73465809D01*
X188833614Y-73479469D01*
X188832301Y-73489771D01*
X188831459Y-73496037D01*
X188831266Y-73497301D01*
X188829216Y-73501981D01*
X188824186Y-73510171D01*
X188816425Y-73521512D01*
X188806179Y-73535643D01*
X188793696Y-73552205D01*
X188792327Y-73553992D01*
X188782457Y-73566848D01*
X188770089Y-73582968D01*
X188755788Y-73601613D01*
X188740119Y-73622045D01*
X188723648Y-73643528D01*
X188706940Y-73665324D01*
X188690562Y-73686694D01*
X188684801Y-73694212D01*
X188670446Y-73712904D01*
X188657014Y-73730312D01*
X188644817Y-73746038D01*
X188634167Y-73759683D01*
X188625376Y-73770850D01*
X188618755Y-73779141D01*
X188614616Y-73784156D01*
X188613285Y-73785547D01*
X188612458Y-73783260D01*
X188611537Y-73777011D01*
X188610658Y-73767872D01*
X188610185Y-73761094D01*
X188609790Y-73752620D01*
X188609354Y-73739910D01*
X188608896Y-73723765D01*
X188608437Y-73704989D01*
X188607996Y-73684383D01*
X188607594Y-73662749D01*
X188607361Y-73648342D01*
X188606993Y-73626194D01*
X188606573Y-73604304D01*
X188606120Y-73583522D01*
X188605656Y-73564699D01*
X188605201Y-73548689D01*
X188604775Y-73536341D01*
X188604536Y-73530927D01*
X188603053Y-73501697D01*
X188559846Y-73518795D01*
X188516639Y-73535893D01*
X188502947Y-73520309D01*
X188495794Y-73512451D01*
X188486220Y-73502338D01*
X188474910Y-73490654D01*
X188462548Y-73478084D01*
X188449818Y-73465312D01*
X188437407Y-73453022D01*
X188425997Y-73441898D01*
X188416273Y-73432625D01*
X188408922Y-73425886D01*
X188405851Y-73423278D01*
X188395847Y-73415310D01*
X188413740Y-73371202D01*
X188419172Y-73357459D01*
X188423641Y-73345458D01*
X188426904Y-73335915D01*
X188428717Y-73329543D01*
X188428838Y-73327058D01*
X188428784Y-73327048D01*
X188425790Y-73326949D01*
X188418235Y-73326682D01*
X188406592Y-73326264D01*
X188391334Y-73325713D01*
X188372935Y-73325045D01*
X188351870Y-73324277D01*
X188328611Y-73323428D01*
X188303634Y-73322513D01*
X188291136Y-73322055D01*
X188265431Y-73321114D01*
X188241161Y-73320230D01*
X188218809Y-73319420D01*
X188198857Y-73318702D01*
X188181787Y-73318092D01*
X188168080Y-73317608D01*
X188158219Y-73317267D01*
X188152686Y-73317087D01*
X188151719Y-73317062D01*
X188148271Y-73316081D01*
X188147939Y-73314863D01*
X188150100Y-73312901D01*
X188155916Y-73308248D01*
X188164990Y-73301199D01*
X188176929Y-73292050D01*
X188191337Y-73281094D01*
X188207817Y-73268626D01*
X188225976Y-73254943D01*
X188245418Y-73240338D01*
X188265747Y-73225107D01*
X188286568Y-73209545D01*
X188307486Y-73193947D01*
X188328106Y-73178607D01*
X188348032Y-73163820D01*
X188366869Y-73149882D01*
X188384222Y-73137088D01*
X188399695Y-73125732D01*
X188412893Y-73116110D01*
X188423421Y-73108516D01*
X188430884Y-73103245D01*
X188434886Y-73100593D01*
X188435439Y-73100331D01*
X188439994Y-73100049D01*
X188448544Y-73099259D01*
X188460378Y-73098045D01*
X188474783Y-73096489D01*
X188491048Y-73094676D01*
X188508458Y-73092689D01*
X188526304Y-73090611D01*
X188543871Y-73088525D01*
X188560448Y-73086516D01*
X188575322Y-73084666D01*
X188587782Y-73083060D01*
X188597115Y-73081780D01*
X188602608Y-73080910D01*
X188603781Y-73080606D01*
X188605839Y-73078080D01*
X188610369Y-73072430D01*
X188616712Y-73064483D01*
X188624208Y-73055062D01*
X188624554Y-73054626D01*
X188648963Y-73025098D01*
X188676463Y-72993907D01*
X188705988Y-72962163D01*
X188736470Y-72930974D01*
X188739557Y-72927973D01*
X188932130Y-72927973D01*
X188933331Y-72944392D01*
X188937553Y-72958972D01*
X188937809Y-72959542D01*
X188948280Y-72976525D01*
X188962519Y-72990647D01*
X188979750Y-73001220D01*
X188989063Y-73004901D01*
X188999287Y-73006554D01*
X189012173Y-73006216D01*
X189025856Y-73004109D01*
X189038471Y-73000454D01*
X189043108Y-72998459D01*
X189058899Y-72988057D01*
X189071192Y-72974245D01*
X189079659Y-72957533D01*
X189083969Y-72938429D01*
X189084273Y-72934853D01*
X189083262Y-72915089D01*
X189077859Y-72897226D01*
X189068508Y-72881769D01*
X189055654Y-72869224D01*
X189039741Y-72860095D01*
X189021213Y-72854887D01*
X189013168Y-72854014D01*
X188993204Y-72855089D01*
X188975161Y-72860747D01*
X188959390Y-72870782D01*
X188946243Y-72884990D01*
X188938677Y-72897532D01*
X188933921Y-72911694D01*
X188932130Y-72927973D01*
X188739557Y-72927973D01*
X188766844Y-72901448D01*
X188796043Y-72874694D01*
X188806392Y-72865670D01*
X188832669Y-72843867D01*
X188861658Y-72821139D01*
X188892156Y-72798362D01*
X188922958Y-72776411D01*
X188952862Y-72756159D01*
X188980662Y-72738483D01*
X188985283Y-72735683D01*
X189037214Y-72706644D01*
X189090458Y-72681055D01*
X189144172Y-72659272D01*
X189197509Y-72641651D01*
X189229202Y-72633169D01*
X189241795Y-72630221D01*
X189256103Y-72627052D01*
X189271176Y-72623852D01*
X189286064Y-72620812D01*
X189299817Y-72618121D01*
X189311484Y-72615970D01*
X189320115Y-72614550D01*
X189324709Y-72614050D01*
X189326134Y-72615432D01*
G37*
%TD*%
D12*
%TO.C,U102*%
X183355000Y-79885000D03*
D13*
X185855000Y-82985000D03*
X185855000Y-79885000D03*
X185855000Y-76785000D03*
X180855000Y-76785000D03*
X180855000Y-79885000D03*
X180855000Y-82985000D03*
%TD*%
M02*
