M48
INCH
T1C0.0118
T2C0.0118
%
G90
G05
T1
X6.9768Y-3.1028
X6.9768Y-3.1591
X6.9803Y-2.9449
X6.9843Y-3.3701
X6.9915Y-3.2484
X6.9921Y-3.1846
X6.9941Y-3.0425
X6.9942Y-3.2743
X6.9961Y-2.8819
X6.9961Y-2.987
X6.9969Y-3.2264
X6.9988Y-3.0161
X7.0008Y-3.0658
X7.002Y-3.3276
X7.0024Y-3.137
X7.0051Y-3.0886
X7.0051Y-3.2039
X7.0065Y-3.1147
X7.0071Y-3.2929
X7.011Y-2.9417
X7.0115Y-3.1685
X7.0193Y-3.3567
X7.0354Y-3.3768
X7.038Y-2.9237
X7.0402Y-2.8981
X7.0609Y-2.886
X7.0612Y-2.8583
X7.0655Y-3.3846
X7.0701Y-3.4248
X7.085Y-3.0472
X7.085Y-3.1528
X7.0865Y-2.877
X7.0894Y-3.0811
X7.0906Y-3.4016
X7.0909Y-3.1992
X7.1036Y-3.4201
X7.1102Y-2.8727
X7.1331Y-3.4193
X7.1341Y-2.8701
X7.1957Y-3.4303
X7.1963Y-3.2657
X7.203Y-3.3652
X7.2159Y-3.3872
X7.2187Y-2.8781
X7.2187Y-2.998
X7.2187Y-3.0508
X7.2187Y-3.1287
X7.2187Y-3.1772
X7.2187Y-3.237
X7.2346Y-3.4043
X7.2366Y-2.8969
X7.2392Y-3.2657
X7.3033Y-2.8681
X7.3093Y-3.4173
X7.3273Y-2.8703
X7.3336Y-3.4085
X7.3431Y-3.2087
X7.3435Y-3.2327
X7.3445Y-3.0898
X7.3484Y-3.1217
X7.3506Y-2.878
X7.3557Y-3.3992
X7.3718Y-2.8939
X7.3762Y-2.8583
X7.3793Y-3.3915
X7.3935Y-2.9043
X7.403Y-3.3877
X7.4099Y-2.9218
X7.4175Y-2.9449
X7.419Y-3.3698
X7.4224Y-3.0561
X7.4234Y-3.3307
X7.4244Y-3.3081
X7.4244Y-3.4205
X7.4254Y-3.0951
X7.4271Y-3.2146
X7.4274Y-3.1873
X7.4343Y-3.2622
X7.4347Y-3.1157
X7.4354Y-3.024
X7.437Y-3.1449
X7.4391Y-3.0714
X7.4413Y-2.9953
X7.4461Y-3.1689
X7.4488Y-3.2909
X7.4522Y-3.0451
X7.4579Y-3.2083
X7.4583Y-3.3768
X7.4602Y-2.9654
X7.4648Y-3.2547
T2
X7.1203Y-3.023
X7.1203Y-3.1451
X7.1203Y-3.2671
X7.3171Y-3.023
X7.3171Y-3.1451
X7.3171Y-3.2671
M30
