%TF.GenerationSoftware,KiCad,Pcbnew,9.0.4*%
%TF.CreationDate,2026-04-01T21:26:16-04:00*%
%TF.ProjectId,V3_COB_Original,56335f43-4f42-45f4-9f72-6967696e616c,rev?*%
%TF.SameCoordinates,Original*%
%TF.FileFunction,Other,Comment*%
%FSLAX46Y46*%
G04 Gerber Fmt 4.6, Leading zero omitted, Abs format (unit mm)*
G04 Created by KiCad (PCBNEW 9.0.4) date 2026-04-01 21:26:16*
%MOMM*%
%LPD*%
G01*
G04 APERTURE LIST*
%ADD10C,0.025000*%
G04 APERTURE END LIST*
D10*
%TO.C,U102*%
X180155000Y-75485000D02*
X181505000Y-77375938D01*
X180555000Y-75485000D02*
X181736250Y-77378125D01*
X180955000Y-75485000D02*
X181967500Y-77377813D01*
X181355000Y-75485000D02*
X182198750Y-77375625D01*
X181405000Y-77685000D02*
X179355000Y-76085000D01*
X181405000Y-77920263D02*
X179355000Y-76485000D01*
X181405000Y-78155526D02*
X179355000Y-76885000D01*
X181405000Y-78390789D02*
X179355000Y-77285000D01*
X181405000Y-78626053D02*
X179355000Y-77685000D01*
X181405000Y-78861316D02*
X179355000Y-78085000D01*
X181405000Y-79096579D02*
X179355000Y-78485000D01*
X181405000Y-79331842D02*
X179355000Y-78885000D01*
X181405000Y-79567105D02*
X179355000Y-79285000D01*
X181405000Y-79802368D02*
X179355000Y-79685000D01*
X181405000Y-80037632D02*
X179355000Y-80085000D01*
X181405000Y-80272895D02*
X179355000Y-80485000D01*
X181405000Y-80508158D02*
X179355000Y-80885000D01*
X181405000Y-80743421D02*
X179355000Y-81285000D01*
X181405000Y-80978684D02*
X179355000Y-81685000D01*
X181405000Y-81213947D02*
X179355000Y-82085000D01*
X181405000Y-81449211D02*
X179355000Y-82485000D01*
X181405000Y-81684474D02*
X179355000Y-82885000D01*
X181405000Y-81919737D02*
X179355000Y-83285000D01*
X181405000Y-82155000D02*
X179355000Y-83685000D01*
X181505000Y-82435000D02*
X180155000Y-84285000D01*
X181735000Y-82434687D02*
X180555000Y-84285000D01*
X181755000Y-75485000D02*
X182425000Y-77385000D01*
X181965000Y-82435000D02*
X180955000Y-84285000D01*
X182155000Y-75485000D02*
X182661250Y-77374375D01*
X182195000Y-82425000D02*
X181355000Y-84285000D01*
X182425000Y-82425000D02*
X181755000Y-84285000D01*
X182555000Y-75485000D02*
X182892500Y-77375000D01*
X182655000Y-82425000D02*
X182155000Y-84285000D01*
X182885000Y-82432812D02*
X182555000Y-84285000D01*
X182955000Y-75485000D02*
X183123750Y-77375313D01*
X183125000Y-82431875D02*
X182955000Y-84285000D01*
X183355000Y-75485000D02*
X183355000Y-77376563D01*
X183355000Y-82435000D02*
X183355000Y-84285000D01*
X183585000Y-82435000D02*
X183755000Y-84285000D01*
X183755000Y-75485000D02*
X183586250Y-77373438D01*
X183815000Y-82435000D02*
X184155000Y-84285000D01*
X184045000Y-82435000D02*
X184555000Y-84285000D01*
X184155000Y-75485000D02*
X183817500Y-77374688D01*
X184275000Y-82435000D02*
X184955000Y-84285000D01*
X184505000Y-82430625D02*
X185355000Y-84285000D01*
X184555000Y-75485000D02*
X184048750Y-77373750D01*
X184735000Y-82435000D02*
X185755000Y-84285000D01*
X184955000Y-75485000D02*
X184280000Y-77377188D01*
X184975000Y-82435000D02*
X186155000Y-84285000D01*
X185205000Y-82431562D02*
X186555000Y-84285000D01*
X185355000Y-75485000D02*
X184511250Y-77374063D01*
X185755000Y-75485000D02*
X184742500Y-77377500D01*
X186155000Y-75485000D02*
X184973750Y-77378438D01*
X186555000Y-75485000D02*
X185205000Y-77375000D01*
X187330000Y-82485000D02*
X185251500Y-81449210D01*
X187355000Y-76085000D02*
X185255000Y-77685000D01*
X187355000Y-76485000D02*
X185255000Y-77920263D01*
X187355000Y-76885000D02*
X185251500Y-78155526D01*
X187355000Y-77285000D02*
X185251500Y-78390789D01*
X187355000Y-77685000D02*
X185251500Y-78626052D01*
X187355000Y-78085000D02*
X185251500Y-78861316D01*
X187355000Y-78485000D02*
X185251500Y-79096579D01*
X187355000Y-78885000D02*
X185251500Y-79331842D01*
X187355000Y-79285000D02*
X185251500Y-79567105D01*
X187355000Y-79685000D02*
X185251500Y-79802368D01*
X187355000Y-80085000D02*
X185251500Y-80037631D01*
X187355000Y-80485000D02*
X185251500Y-80272895D01*
X187355000Y-80885000D02*
X185251500Y-80508158D01*
X187355000Y-81285000D02*
X185245000Y-80743421D01*
X187355000Y-81685000D02*
X185251500Y-80978684D01*
X187355000Y-82085000D02*
X185251500Y-81213947D01*
X187355000Y-82885000D02*
X185251500Y-81684474D01*
X187355000Y-83285000D02*
X185251500Y-81919737D01*
X187355000Y-83685000D02*
X185251500Y-82155000D01*
%TD*%
M02*
