M48
; DRILL file {KiCad 9.0.4} date 2026-03-12T22:10:51-0700
; FORMAT={-:-/ absolute / metric / decimal}
; #@! TF.CreationDate,2026-03-12T22:10:51-07:00
; #@! TF.GenerationSoftware,Kicad,Pcbnew,9.0.4
; #@! TF.FileFunction,Plated,1,4,PTH
FMAT,2
METRIC
; #@! TA.AperFunction,Plated,PTH,ViaDrill
T1C0.300
; #@! TA.AperFunction,Plated,PTH,ComponentDrill
T2C0.300
%
G90
G05
T1
X196.17Y-57.72
X196.37Y-69.21
X196.835Y-63.32
X196.835Y-64.24
X196.84Y-65.14
X196.95Y-66.12
X197.086Y-62.409
X197.21Y-67.27
X197.242Y-64.647
X197.27Y-56.61
X197.282Y-63.757
X197.296Y-61.366
X197.303Y-60.516
X197.34Y-65.54
X197.349Y-62.92
X197.48Y-70.31
X197.5Y-62.01
X197.56Y-66.4
X197.57Y-67.87
X197.74Y-61.0
X197.775Y-60.187
X197.84Y-59.615
X198.05Y-59.08
X198.27Y-58.06
X198.62Y-68.98
X198.85Y-67.7
X199.585Y-58.51
X199.625Y-57.262
X199.63Y-57.837
X200.11Y-68.86
X200.153Y-56.955
X200.22Y-69.83
X200.803Y-56.725
X200.99Y-69.67
X201.17Y-70.4
X201.404Y-56.617
X201.76Y-70.15
X202.01Y-56.55
X202.12Y-70.71
X203.61Y-56.9
X203.61Y-69.54
X204.048Y-57.299
X204.1Y-70.999
X204.25Y-56.225
X204.56Y-57.56
X204.63Y-70.01
X206.2Y-56.175
X206.26Y-70.68
X206.653Y-70.26
X206.775Y-56.175
X207.35Y-56.19
X207.48Y-69.81
X207.5Y-70.54
X207.57Y-56.76
X208.05Y-57.156
X208.09Y-69.97
X208.42Y-69.14
X208.6Y-57.419
X209.47Y-58.41
X209.515Y-67.7
X209.55Y-69.07
X210.315Y-59.08
X210.45Y-58.22
X210.49Y-70.51
X210.525Y-59.615
X210.59Y-60.187
X210.79Y-61.04
X210.795Y-67.84
X210.905Y-62.03
X211.025Y-65.54
X211.06Y-62.94
X211.06Y-66.64
X211.062Y-60.516
X211.083Y-63.757
X211.123Y-64.647
X211.155Y-67.27
X211.415Y-66.12
X211.44Y-62.43
X211.5Y-61.43
X211.525Y-65.14
X211.53Y-63.32
X211.53Y-64.24
X212.06Y-69.97
T2
X201.68Y-61.95
X201.68Y-64.93
X206.68Y-61.95
X206.68Y-64.93
M30
