M48
; DRILL file KiCad 10.0.0 date 2026-04-19T18:03:19
; FORMAT={-:-/ absolute / metric / decimal}
; #@! TF.CreationDate,2026-04-19T18:03:19+08:00
; #@! TF.GenerationSoftware,Kicad,Pcbnew,10.0.0
; #@! TF.FileFunction,Plated,1,4,PTH
FMAT,2
METRIC
; #@! TA.AperFunction,Plated,PTH,ViaDrill
T1C0.300
; #@! TA.AperFunction,Plated,PTH,ComponentDrill
T2C0.300
%
G90
G05
T1
X0.86Y-6.95
X0.86Y-8.38
X0.86Y-22.95
X0.86Y-24.38
X0.86Y-38.95
X0.86Y-40.38
X0.86Y-54.95
X0.86Y-56.38
X0.95Y-2.94
X0.95Y-18.94
X0.95Y-34.94
X0.95Y-50.94
X1.05Y-13.74
X1.05Y-29.74
X1.05Y-45.74
X1.05Y-61.74
X1.234Y-10.65
X1.234Y-26.65
X1.234Y-42.65
X1.234Y-58.65
X1.25Y-9.03
X1.25Y-25.03
X1.25Y-41.03
X1.25Y-57.03
X1.3Y-5.42
X1.3Y-21.42
X1.3Y-37.42
X1.3Y-53.42
X1.302Y-11.308
X1.302Y-27.308
X1.302Y-43.308
X1.302Y-59.308
X1.35Y-1.34
X1.35Y-4.01
X1.35Y-17.34
X1.35Y-20.01
X1.35Y-33.34
X1.35Y-36.01
X1.35Y-49.34
X1.35Y-52.01
X1.37Y-10.091
X1.37Y-26.091
X1.37Y-42.091
X1.37Y-58.091
X1.42Y-4.75
X1.42Y-20.75
X1.42Y-36.75
X1.42Y-52.75
X1.47Y-6.01
X1.47Y-22.01
X1.47Y-38.01
X1.47Y-54.01
X1.5Y-12.66
X1.5Y-28.66
X1.5Y-44.66
X1.5Y-60.66
X1.51Y-7.82
X1.51Y-23.82
X1.51Y-39.82
X1.51Y-55.82
X1.58Y-6.59
X1.58Y-9.52
X1.58Y-22.59
X1.58Y-25.52
X1.58Y-38.59
X1.58Y-41.52
X1.58Y-54.59
X1.58Y-57.52
X1.615Y-7.255
X1.615Y-23.255
X1.615Y-39.255
X1.615Y-55.255
X1.63Y-11.78
X1.63Y-27.78
X1.63Y-43.78
X1.63Y-59.78
X1.73Y-2.86
X1.73Y-18.86
X1.73Y-34.86
X1.73Y-50.86
X1.741Y-8.621
X1.741Y-24.621
X1.741Y-40.621
X1.741Y-56.621
X1.94Y-13.4
X1.94Y-29.4
X1.94Y-45.4
X1.94Y-61.4
X2.35Y-13.91
X2.35Y-29.91
X2.35Y-45.91
X2.35Y-61.91
X2.415Y-2.401
X2.415Y-18.401
X2.415Y-34.401
X2.415Y-50.401
X2.47Y-1.752
X2.47Y-17.752
X2.47Y-33.752
X2.47Y-49.752
X2.998Y-1.445
X2.998Y-17.445
X2.998Y-33.445
X2.998Y-49.445
X3.005Y-0.74
X3.005Y-16.74
X3.005Y-32.74
X3.005Y-48.74
X3.113Y-14.11
X3.113Y-30.11
X3.113Y-46.11
X3.113Y-62.11
X3.23Y-15.13
X3.23Y-31.13
X3.23Y-47.13
X3.23Y-63.13
X3.61Y-5.54
X3.61Y-8.22
X3.61Y-21.54
X3.61Y-24.22
X3.61Y-37.54
X3.61Y-40.22
X3.61Y-53.54
X3.61Y-56.22
X3.648Y-1.215
X3.648Y-17.215
X3.648Y-33.215
X3.648Y-49.215
X3.72Y-6.4
X3.72Y-22.4
X3.72Y-38.4
X3.72Y-54.4
X3.75Y-14.54
X3.75Y-30.54
X3.75Y-46.54
X3.75Y-62.54
X3.76Y-9.4
X3.76Y-25.4
X3.76Y-41.4
X3.76Y-57.4
X4.082Y-15.009
X4.082Y-31.009
X4.082Y-47.009
X4.082Y-63.009
X4.249Y-1.107
X4.249Y-17.107
X4.249Y-33.107
X4.249Y-49.107
X4.83Y-14.99
X4.83Y-30.99
X4.83Y-46.99
X4.83Y-62.99
X4.855Y-1.04
X4.855Y-17.04
X4.855Y-33.04
X4.855Y-49.04
X6.42Y-15.27
X6.42Y-31.27
X6.42Y-47.27
X6.42Y-63.27
X6.435Y-11.09
X6.435Y-27.09
X6.435Y-43.09
X6.435Y-59.09
X6.605Y-13.615
X6.605Y-29.615
X6.605Y-45.615
X6.605Y-61.615
X6.935Y-14.175
X6.935Y-30.175
X6.935Y-46.175
X6.935Y-62.175
X7.005Y-1.245
X7.005Y-4.29
X7.005Y-5.63
X7.005Y-7.61
X7.005Y-8.84
X7.005Y-10.36
X7.005Y-17.245
X7.005Y-20.29
X7.005Y-21.63
X7.005Y-23.61
X7.005Y-24.84
X7.005Y-26.36
X7.005Y-33.245
X7.005Y-36.29
X7.005Y-37.63
X7.005Y-39.61
X7.005Y-40.84
X7.005Y-42.36
X7.005Y-49.245
X7.005Y-52.29
X7.005Y-53.63
X7.005Y-55.61
X7.005Y-56.84
X7.005Y-58.36
X7.41Y-14.61
X7.41Y-30.61
X7.41Y-46.61
X7.41Y-62.61
X7.46Y-1.72
X7.46Y-17.72
X7.46Y-33.72
X7.46Y-49.72
X7.525Y-11.09
X7.525Y-27.09
X7.525Y-43.09
X7.525Y-59.09
X9.155Y-0.99
X9.155Y-16.99
X9.155Y-32.99
X9.155Y-48.99
X9.305Y-14.94
X9.305Y-30.94
X9.305Y-46.94
X9.305Y-62.94
X9.762Y-1.045
X9.762Y-17.045
X9.762Y-33.045
X9.762Y-49.045
X9.923Y-14.716
X9.923Y-30.716
X9.923Y-46.716
X9.923Y-62.716
X10.165Y-9.64
X10.165Y-25.64
X10.165Y-41.64
X10.165Y-57.64
X10.175Y-10.25
X10.175Y-26.25
X10.175Y-42.25
X10.175Y-58.25
X10.2Y-6.62
X10.2Y-22.62
X10.2Y-38.62
X10.2Y-54.62
X10.3Y-7.43
X10.3Y-23.43
X10.3Y-39.43
X10.3Y-55.43
X10.355Y-1.24
X10.355Y-17.24
X10.355Y-33.24
X10.355Y-49.24
X10.485Y-14.48
X10.485Y-30.48
X10.485Y-46.48
X10.485Y-62.48
X10.895Y-1.646
X10.895Y-17.646
X10.895Y-33.646
X10.895Y-49.646
X11.005Y-0.74
X11.005Y-16.74
X11.005Y-32.74
X11.005Y-48.74
X11.084Y-14.283
X11.084Y-30.283
X11.084Y-46.283
X11.084Y-62.283
X11.445Y-1.909
X11.445Y-17.909
X11.445Y-33.909
X11.445Y-49.909
X11.686Y-14.187
X11.686Y-30.187
X11.686Y-46.187
X11.686Y-62.187
X11.862Y-2.354
X11.862Y-18.354
X11.862Y-34.354
X11.862Y-50.354
X12.055Y-2.94
X12.055Y-18.94
X12.055Y-34.94
X12.055Y-50.94
X12.093Y-13.732
X12.093Y-29.732
X12.093Y-45.732
X12.093Y-61.732
X12.18Y-5.765
X12.18Y-21.765
X12.18Y-37.765
X12.18Y-53.765
X12.205Y-12.74
X12.205Y-28.74
X12.205Y-44.74
X12.205Y-60.74
X12.229Y-12.166
X12.229Y-28.166
X12.229Y-44.166
X12.229Y-60.166
X12.23Y-15.02
X12.23Y-31.02
X12.23Y-47.02
X12.23Y-63.02
X12.255Y-6.755
X12.255Y-22.755
X12.255Y-38.755
X12.255Y-54.755
X12.298Y-9.79
X12.298Y-25.79
X12.298Y-41.79
X12.298Y-57.79
X12.306Y-9.097
X12.306Y-25.097
X12.306Y-41.097
X12.306Y-57.097
X12.48Y-11.0
X12.48Y-27.0
X12.48Y-43.0
X12.48Y-59.0
X12.491Y-7.28
X12.491Y-23.28
X12.491Y-39.28
X12.491Y-55.28
X12.51Y-4.95
X12.51Y-20.95
X12.51Y-36.95
X12.51Y-52.95
X12.55Y-8.02
X12.55Y-24.02
X12.55Y-40.02
X12.55Y-56.02
X12.604Y-6.153
X12.604Y-22.153
X12.604Y-38.153
X12.604Y-54.153
X12.66Y-4.22
X12.66Y-20.22
X12.66Y-36.22
X12.66Y-52.22
X12.78Y-8.63
X12.78Y-24.63
X12.78Y-40.63
X12.78Y-56.63
X12.85Y-11.73
X12.85Y-27.73
X12.85Y-43.73
X12.85Y-59.73
X12.935Y-5.485
X12.935Y-21.485
X12.935Y-37.485
X12.935Y-53.485
X13.08Y-9.63
X13.08Y-25.63
X13.08Y-41.63
X13.08Y-57.63
X13.09Y-13.91
X13.09Y-29.91
X13.09Y-45.91
X13.09Y-61.91
X13.14Y-3.46
X13.14Y-19.46
X13.14Y-35.46
X13.14Y-51.46
X13.255Y-10.81
X13.255Y-26.81
X13.255Y-42.81
X13.255Y-58.81
X14.86Y-6.95
X14.86Y-8.38
X14.86Y-22.95
X14.86Y-24.38
X14.86Y-38.95
X14.86Y-40.38
X14.86Y-54.95
X14.86Y-56.38
X14.95Y-2.94
X14.95Y-18.94
X14.95Y-34.94
X14.95Y-50.94
X15.05Y-13.74
X15.05Y-29.74
X15.05Y-45.74
X15.05Y-61.74
X15.234Y-10.65
X15.234Y-26.65
X15.234Y-42.65
X15.234Y-58.65
X15.25Y-9.03
X15.25Y-25.03
X15.25Y-41.03
X15.25Y-57.03
X15.3Y-5.42
X15.3Y-21.42
X15.3Y-37.42
X15.3Y-53.42
X15.302Y-11.308
X15.302Y-27.308
X15.302Y-43.308
X15.302Y-59.308
X15.35Y-1.34
X15.35Y-4.01
X15.35Y-17.34
X15.35Y-20.01
X15.35Y-33.34
X15.35Y-36.01
X15.35Y-49.34
X15.35Y-52.01
X15.37Y-10.091
X15.37Y-26.091
X15.37Y-42.091
X15.37Y-58.091
X15.42Y-4.75
X15.42Y-20.75
X15.42Y-36.75
X15.42Y-52.75
X15.47Y-6.01
X15.47Y-22.01
X15.47Y-38.01
X15.47Y-54.01
X15.5Y-12.66
X15.5Y-28.66
X15.5Y-44.66
X15.5Y-60.66
X15.51Y-7.82
X15.51Y-23.82
X15.51Y-39.82
X15.51Y-55.82
X15.58Y-6.59
X15.58Y-9.52
X15.58Y-22.59
X15.58Y-25.52
X15.58Y-38.59
X15.58Y-41.52
X15.58Y-54.59
X15.58Y-57.52
X15.615Y-7.255
X15.615Y-23.255
X15.615Y-39.255
X15.615Y-55.255
X15.63Y-11.78
X15.63Y-27.78
X15.63Y-43.78
X15.63Y-59.78
X15.73Y-2.86
X15.73Y-18.86
X15.73Y-34.86
X15.73Y-50.86
X15.741Y-8.621
X15.741Y-24.621
X15.741Y-40.621
X15.741Y-56.621
X15.94Y-13.4
X15.94Y-29.4
X15.94Y-45.4
X15.94Y-61.4
X16.35Y-13.91
X16.35Y-29.91
X16.35Y-45.91
X16.35Y-61.91
X16.415Y-2.401
X16.415Y-18.401
X16.415Y-34.401
X16.415Y-50.401
X16.47Y-1.752
X16.47Y-17.752
X16.47Y-33.752
X16.47Y-49.752
X16.998Y-1.445
X16.998Y-17.445
X16.998Y-33.445
X16.998Y-49.445
X17.005Y-0.74
X17.005Y-16.74
X17.005Y-32.74
X17.005Y-48.74
X17.113Y-14.11
X17.113Y-30.11
X17.113Y-46.11
X17.113Y-62.11
X17.23Y-15.13
X17.23Y-31.13
X17.23Y-47.13
X17.23Y-63.13
X17.61Y-5.54
X17.61Y-8.22
X17.61Y-21.54
X17.61Y-24.22
X17.61Y-37.54
X17.61Y-40.22
X17.61Y-53.54
X17.61Y-56.22
X17.648Y-1.215
X17.648Y-17.215
X17.648Y-33.215
X17.648Y-49.215
X17.72Y-6.4
X17.72Y-22.4
X17.72Y-38.4
X17.72Y-54.4
X17.75Y-14.54
X17.75Y-30.54
X17.75Y-46.54
X17.75Y-62.54
X17.76Y-9.4
X17.76Y-25.4
X17.76Y-41.4
X17.76Y-57.4
X18.082Y-15.009
X18.082Y-31.009
X18.082Y-47.009
X18.082Y-63.009
X18.249Y-1.107
X18.249Y-17.107
X18.249Y-33.107
X18.249Y-49.107
X18.83Y-14.99
X18.83Y-30.99
X18.83Y-46.99
X18.83Y-62.99
X18.855Y-1.04
X18.855Y-17.04
X18.855Y-33.04
X18.855Y-49.04
X20.42Y-15.27
X20.42Y-31.27
X20.42Y-47.27
X20.42Y-63.27
X20.435Y-11.09
X20.435Y-27.09
X20.435Y-43.09
X20.435Y-59.09
X20.605Y-13.615
X20.605Y-29.615
X20.605Y-45.615
X20.605Y-61.615
X20.935Y-14.175
X20.935Y-30.175
X20.935Y-46.175
X20.935Y-62.175
X21.005Y-1.245
X21.005Y-4.29
X21.005Y-5.63
X21.005Y-7.61
X21.005Y-8.84
X21.005Y-10.36
X21.005Y-17.245
X21.005Y-20.29
X21.005Y-21.63
X21.005Y-23.61
X21.005Y-24.84
X21.005Y-26.36
X21.005Y-33.245
X21.005Y-36.29
X21.005Y-37.63
X21.005Y-39.61
X21.005Y-40.84
X21.005Y-42.36
X21.005Y-49.245
X21.005Y-52.29
X21.005Y-53.63
X21.005Y-55.61
X21.005Y-56.84
X21.005Y-58.36
X21.41Y-14.61
X21.41Y-30.61
X21.41Y-46.61
X21.41Y-62.61
X21.46Y-1.72
X21.46Y-17.72
X21.46Y-33.72
X21.46Y-49.72
X21.525Y-11.09
X21.525Y-27.09
X21.525Y-43.09
X21.525Y-59.09
X23.155Y-0.99
X23.155Y-16.99
X23.155Y-32.99
X23.155Y-48.99
X23.305Y-14.94
X23.305Y-30.94
X23.305Y-46.94
X23.305Y-62.94
X23.762Y-1.045
X23.762Y-17.045
X23.762Y-33.045
X23.762Y-49.045
X23.923Y-14.716
X23.923Y-30.716
X23.923Y-46.716
X23.923Y-62.716
X24.165Y-9.64
X24.165Y-25.64
X24.165Y-41.64
X24.165Y-57.64
X24.175Y-10.25
X24.175Y-26.25
X24.175Y-42.25
X24.175Y-58.25
X24.2Y-6.62
X24.2Y-22.62
X24.2Y-38.62
X24.2Y-54.62
X24.3Y-7.43
X24.3Y-23.43
X24.3Y-39.43
X24.3Y-55.43
X24.355Y-1.24
X24.355Y-17.24
X24.355Y-33.24
X24.355Y-49.24
X24.485Y-14.48
X24.485Y-30.48
X24.485Y-46.48
X24.485Y-62.48
X24.895Y-1.646
X24.895Y-17.646
X24.895Y-33.646
X24.895Y-49.646
X25.005Y-0.74
X25.005Y-16.74
X25.005Y-32.74
X25.005Y-48.74
X25.084Y-14.283
X25.084Y-30.283
X25.084Y-46.283
X25.084Y-62.283
X25.445Y-1.909
X25.445Y-17.909
X25.445Y-33.909
X25.445Y-49.909
X25.686Y-14.187
X25.686Y-30.187
X25.686Y-46.187
X25.686Y-62.187
X25.862Y-2.354
X25.862Y-18.354
X25.862Y-34.354
X25.862Y-50.354
X26.055Y-2.94
X26.055Y-18.94
X26.055Y-34.94
X26.055Y-50.94
X26.093Y-13.732
X26.093Y-29.732
X26.093Y-45.732
X26.093Y-61.732
X26.18Y-5.765
X26.18Y-21.765
X26.18Y-37.765
X26.18Y-53.765
X26.205Y-12.74
X26.205Y-28.74
X26.205Y-44.74
X26.205Y-60.74
X26.229Y-12.166
X26.229Y-28.166
X26.229Y-44.166
X26.229Y-60.166
X26.23Y-15.02
X26.23Y-31.02
X26.23Y-47.02
X26.23Y-63.02
X26.255Y-6.755
X26.255Y-22.755
X26.255Y-38.755
X26.255Y-54.755
X26.298Y-9.79
X26.298Y-25.79
X26.298Y-41.79
X26.298Y-57.79
X26.306Y-9.097
X26.306Y-25.097
X26.306Y-41.097
X26.306Y-57.097
X26.48Y-11.0
X26.48Y-27.0
X26.48Y-43.0
X26.48Y-59.0
X26.491Y-7.28
X26.491Y-23.28
X26.491Y-39.28
X26.491Y-55.28
X26.51Y-4.95
X26.51Y-20.95
X26.51Y-36.95
X26.51Y-52.95
X26.55Y-8.02
X26.55Y-24.02
X26.55Y-40.02
X26.55Y-56.02
X26.604Y-6.153
X26.604Y-22.153
X26.604Y-38.153
X26.604Y-54.153
X26.66Y-4.22
X26.66Y-20.22
X26.66Y-36.22
X26.66Y-52.22
X26.78Y-8.63
X26.78Y-24.63
X26.78Y-40.63
X26.78Y-56.63
X26.85Y-11.73
X26.85Y-27.73
X26.85Y-43.73
X26.85Y-59.73
X26.935Y-5.485
X26.935Y-21.485
X26.935Y-37.485
X26.935Y-53.485
X27.08Y-9.63
X27.08Y-25.63
X27.08Y-41.63
X27.08Y-57.63
X27.09Y-13.91
X27.09Y-29.91
X27.09Y-45.91
X27.09Y-61.91
X27.14Y-3.46
X27.14Y-19.46
X27.14Y-35.46
X27.14Y-51.46
X27.255Y-10.81
X27.255Y-26.81
X27.255Y-42.81
X27.255Y-58.81
X28.86Y-6.95
X28.86Y-8.38
X28.86Y-22.95
X28.86Y-24.38
X28.86Y-38.95
X28.86Y-40.38
X28.86Y-54.95
X28.86Y-56.38
X28.95Y-2.94
X28.95Y-18.94
X28.95Y-34.94
X28.95Y-50.94
X29.05Y-13.74
X29.05Y-29.74
X29.05Y-45.74
X29.05Y-61.74
X29.234Y-10.65
X29.234Y-26.65
X29.234Y-42.65
X29.234Y-58.65
X29.25Y-9.03
X29.25Y-25.03
X29.25Y-41.03
X29.25Y-57.03
X29.3Y-5.42
X29.3Y-21.42
X29.3Y-37.42
X29.3Y-53.42
X29.302Y-11.308
X29.302Y-27.308
X29.302Y-43.308
X29.302Y-59.308
X29.35Y-1.34
X29.35Y-4.01
X29.35Y-17.34
X29.35Y-20.01
X29.35Y-33.34
X29.35Y-36.01
X29.35Y-49.34
X29.35Y-52.01
X29.37Y-10.091
X29.37Y-26.091
X29.37Y-42.091
X29.37Y-58.091
X29.42Y-4.75
X29.42Y-20.75
X29.42Y-36.75
X29.42Y-52.75
X29.47Y-6.01
X29.47Y-22.01
X29.47Y-38.01
X29.47Y-54.01
X29.5Y-12.66
X29.5Y-28.66
X29.5Y-44.66
X29.5Y-60.66
X29.51Y-7.82
X29.51Y-23.82
X29.51Y-39.82
X29.51Y-55.82
X29.58Y-6.59
X29.58Y-9.52
X29.58Y-22.59
X29.58Y-25.52
X29.58Y-38.59
X29.58Y-41.52
X29.58Y-54.59
X29.58Y-57.52
X29.615Y-7.255
X29.615Y-23.255
X29.615Y-39.255
X29.615Y-55.255
X29.63Y-11.78
X29.63Y-27.78
X29.63Y-43.78
X29.63Y-59.78
X29.73Y-2.86
X29.73Y-18.86
X29.73Y-34.86
X29.73Y-50.86
X29.741Y-8.621
X29.741Y-24.621
X29.741Y-40.621
X29.741Y-56.621
X29.94Y-13.4
X29.94Y-29.4
X29.94Y-45.4
X29.94Y-61.4
X30.35Y-13.91
X30.35Y-29.91
X30.35Y-45.91
X30.35Y-61.91
X30.415Y-2.401
X30.415Y-18.401
X30.415Y-34.401
X30.415Y-50.401
X30.47Y-1.752
X30.47Y-17.752
X30.47Y-33.752
X30.47Y-49.752
X30.998Y-1.445
X30.998Y-17.445
X30.998Y-33.445
X30.998Y-49.445
X31.005Y-0.74
X31.005Y-16.74
X31.005Y-32.74
X31.005Y-48.74
X31.113Y-14.11
X31.113Y-30.11
X31.113Y-46.11
X31.113Y-62.11
X31.23Y-15.13
X31.23Y-31.13
X31.23Y-47.13
X31.23Y-63.13
X31.61Y-5.54
X31.61Y-8.22
X31.61Y-21.54
X31.61Y-24.22
X31.61Y-37.54
X31.61Y-40.22
X31.61Y-53.54
X31.61Y-56.22
X31.648Y-1.215
X31.648Y-17.215
X31.648Y-33.215
X31.648Y-49.215
X31.72Y-6.4
X31.72Y-22.4
X31.72Y-38.4
X31.72Y-54.4
X31.75Y-14.54
X31.75Y-30.54
X31.75Y-46.54
X31.75Y-62.54
X31.76Y-9.4
X31.76Y-25.4
X31.76Y-41.4
X31.76Y-57.4
X32.082Y-15.009
X32.082Y-31.009
X32.082Y-47.009
X32.082Y-63.009
X32.249Y-1.107
X32.249Y-17.107
X32.249Y-33.107
X32.249Y-49.107
X32.83Y-14.99
X32.83Y-30.99
X32.83Y-46.99
X32.83Y-62.99
X32.855Y-1.04
X32.855Y-17.04
X32.855Y-33.04
X32.855Y-49.04
X34.42Y-15.27
X34.42Y-31.27
X34.42Y-47.27
X34.42Y-63.27
X34.435Y-11.09
X34.435Y-27.09
X34.435Y-43.09
X34.435Y-59.09
X34.605Y-13.615
X34.605Y-29.615
X34.605Y-45.615
X34.605Y-61.615
X34.935Y-14.175
X34.935Y-30.175
X34.935Y-46.175
X34.935Y-62.175
X35.005Y-1.245
X35.005Y-4.29
X35.005Y-5.63
X35.005Y-7.61
X35.005Y-8.84
X35.005Y-10.36
X35.005Y-17.245
X35.005Y-20.29
X35.005Y-21.63
X35.005Y-23.61
X35.005Y-24.84
X35.005Y-26.36
X35.005Y-33.245
X35.005Y-36.29
X35.005Y-37.63
X35.005Y-39.61
X35.005Y-40.84
X35.005Y-42.36
X35.005Y-49.245
X35.005Y-52.29
X35.005Y-53.63
X35.005Y-55.61
X35.005Y-56.84
X35.005Y-58.36
X35.41Y-14.61
X35.41Y-30.61
X35.41Y-46.61
X35.41Y-62.61
X35.46Y-1.72
X35.46Y-17.72
X35.46Y-33.72
X35.46Y-49.72
X35.525Y-11.09
X35.525Y-27.09
X35.525Y-43.09
X35.525Y-59.09
X37.155Y-0.99
X37.155Y-16.99
X37.155Y-32.99
X37.155Y-48.99
X37.305Y-14.94
X37.305Y-30.94
X37.305Y-46.94
X37.305Y-62.94
X37.762Y-1.045
X37.762Y-17.045
X37.762Y-33.045
X37.762Y-49.045
X37.923Y-14.716
X37.923Y-30.716
X37.923Y-46.716
X37.923Y-62.716
X38.165Y-9.64
X38.165Y-25.64
X38.165Y-41.64
X38.165Y-57.64
X38.175Y-10.25
X38.175Y-26.25
X38.175Y-42.25
X38.175Y-58.25
X38.2Y-6.62
X38.2Y-22.62
X38.2Y-38.62
X38.2Y-54.62
X38.3Y-7.43
X38.3Y-23.43
X38.3Y-39.43
X38.3Y-55.43
X38.355Y-1.24
X38.355Y-17.24
X38.355Y-33.24
X38.355Y-49.24
X38.485Y-14.48
X38.485Y-30.48
X38.485Y-46.48
X38.485Y-62.48
X38.895Y-1.646
X38.895Y-17.646
X38.895Y-33.646
X38.895Y-49.646
X39.005Y-0.74
X39.005Y-16.74
X39.005Y-32.74
X39.005Y-48.74
X39.084Y-14.283
X39.084Y-30.283
X39.084Y-46.283
X39.084Y-62.283
X39.445Y-1.909
X39.445Y-17.909
X39.445Y-33.909
X39.445Y-49.909
X39.686Y-14.187
X39.686Y-30.187
X39.686Y-46.187
X39.686Y-62.187
X39.862Y-2.354
X39.862Y-18.354
X39.862Y-34.354
X39.862Y-50.354
X40.055Y-2.94
X40.055Y-18.94
X40.055Y-34.94
X40.055Y-50.94
X40.093Y-13.732
X40.093Y-29.732
X40.093Y-45.732
X40.093Y-61.732
X40.18Y-5.765
X40.18Y-21.765
X40.18Y-37.765
X40.18Y-53.765
X40.205Y-12.74
X40.205Y-28.74
X40.205Y-44.74
X40.205Y-60.74
X40.229Y-12.166
X40.229Y-28.166
X40.229Y-44.166
X40.229Y-60.166
X40.23Y-15.02
X40.23Y-31.02
X40.23Y-47.02
X40.23Y-63.02
X40.255Y-6.755
X40.255Y-22.755
X40.255Y-38.755
X40.255Y-54.755
X40.298Y-9.79
X40.298Y-25.79
X40.298Y-41.79
X40.298Y-57.79
X40.306Y-9.097
X40.306Y-25.097
X40.306Y-41.097
X40.306Y-57.097
X40.48Y-11.0
X40.48Y-27.0
X40.48Y-43.0
X40.48Y-59.0
X40.491Y-7.28
X40.491Y-23.28
X40.491Y-39.28
X40.491Y-55.28
X40.51Y-4.95
X40.51Y-20.95
X40.51Y-36.95
X40.51Y-52.95
X40.55Y-8.02
X40.55Y-24.02
X40.55Y-40.02
X40.55Y-56.02
X40.604Y-6.153
X40.604Y-22.153
X40.604Y-38.153
X40.604Y-54.153
X40.66Y-4.22
X40.66Y-20.22
X40.66Y-36.22
X40.66Y-52.22
X40.78Y-8.63
X40.78Y-24.63
X40.78Y-40.63
X40.78Y-56.63
X40.85Y-11.73
X40.85Y-27.73
X40.85Y-43.73
X40.85Y-59.73
X40.935Y-5.485
X40.935Y-21.485
X40.935Y-37.485
X40.935Y-53.485
X41.08Y-9.63
X41.08Y-25.63
X41.08Y-41.63
X41.08Y-57.63
X41.09Y-13.91
X41.09Y-29.91
X41.09Y-45.91
X41.09Y-61.91
X41.14Y-3.46
X41.14Y-19.46
X41.14Y-35.46
X41.14Y-51.46
X41.255Y-10.81
X41.255Y-26.81
X41.255Y-42.81
X41.255Y-58.81
X42.86Y-6.95
X42.86Y-8.38
X42.86Y-22.95
X42.86Y-24.38
X42.86Y-38.95
X42.86Y-40.38
X42.86Y-54.95
X42.86Y-56.38
X42.95Y-2.94
X42.95Y-18.94
X42.95Y-34.94
X42.95Y-50.94
X43.05Y-13.74
X43.05Y-29.74
X43.05Y-45.74
X43.05Y-61.74
X43.234Y-10.65
X43.234Y-26.65
X43.234Y-42.65
X43.234Y-58.65
X43.25Y-9.03
X43.25Y-25.03
X43.25Y-41.03
X43.25Y-57.03
X43.3Y-5.42
X43.3Y-21.42
X43.3Y-37.42
X43.3Y-53.42
X43.302Y-11.308
X43.302Y-27.308
X43.302Y-43.308
X43.302Y-59.308
X43.35Y-1.34
X43.35Y-4.01
X43.35Y-17.34
X43.35Y-20.01
X43.35Y-33.34
X43.35Y-36.01
X43.35Y-49.34
X43.35Y-52.01
X43.37Y-10.091
X43.37Y-26.091
X43.37Y-42.091
X43.37Y-58.091
X43.42Y-4.75
X43.42Y-20.75
X43.42Y-36.75
X43.42Y-52.75
X43.47Y-6.01
X43.47Y-22.01
X43.47Y-38.01
X43.47Y-54.01
X43.5Y-12.66
X43.5Y-28.66
X43.5Y-44.66
X43.5Y-60.66
X43.51Y-7.82
X43.51Y-23.82
X43.51Y-39.82
X43.51Y-55.82
X43.58Y-6.59
X43.58Y-9.52
X43.58Y-22.59
X43.58Y-25.52
X43.58Y-38.59
X43.58Y-41.52
X43.58Y-54.59
X43.58Y-57.52
X43.615Y-7.255
X43.615Y-23.255
X43.615Y-39.255
X43.615Y-55.255
X43.63Y-11.78
X43.63Y-27.78
X43.63Y-43.78
X43.63Y-59.78
X43.73Y-2.86
X43.73Y-18.86
X43.73Y-34.86
X43.73Y-50.86
X43.741Y-8.621
X43.741Y-24.621
X43.741Y-40.621
X43.741Y-56.621
X43.94Y-13.4
X43.94Y-29.4
X43.94Y-45.4
X43.94Y-61.4
X44.35Y-13.91
X44.35Y-29.91
X44.35Y-45.91
X44.35Y-61.91
X44.415Y-2.401
X44.415Y-18.401
X44.415Y-34.401
X44.415Y-50.401
X44.47Y-1.752
X44.47Y-17.752
X44.47Y-33.752
X44.47Y-49.752
X44.998Y-1.445
X44.998Y-17.445
X44.998Y-33.445
X44.998Y-49.445
X45.005Y-0.74
X45.005Y-16.74
X45.005Y-32.74
X45.005Y-48.74
X45.113Y-14.11
X45.113Y-30.11
X45.113Y-46.11
X45.113Y-62.11
X45.23Y-15.13
X45.23Y-31.13
X45.23Y-47.13
X45.23Y-63.13
X45.61Y-5.54
X45.61Y-8.22
X45.61Y-21.54
X45.61Y-24.22
X45.61Y-37.54
X45.61Y-40.22
X45.61Y-53.54
X45.61Y-56.22
X45.648Y-1.215
X45.648Y-17.215
X45.648Y-33.215
X45.648Y-49.215
X45.72Y-6.4
X45.72Y-22.4
X45.72Y-38.4
X45.72Y-54.4
X45.75Y-14.54
X45.75Y-30.54
X45.75Y-46.54
X45.75Y-62.54
X45.76Y-9.4
X45.76Y-25.4
X45.76Y-41.4
X45.76Y-57.4
X46.082Y-15.009
X46.082Y-31.009
X46.082Y-47.009
X46.082Y-63.009
X46.249Y-1.107
X46.249Y-17.107
X46.249Y-33.107
X46.249Y-49.107
X46.83Y-14.99
X46.83Y-30.99
X46.83Y-46.99
X46.83Y-62.99
X46.855Y-1.04
X46.855Y-17.04
X46.855Y-33.04
X46.855Y-49.04
X48.42Y-15.27
X48.42Y-31.27
X48.42Y-47.27
X48.42Y-63.27
X48.435Y-11.09
X48.435Y-27.09
X48.435Y-43.09
X48.435Y-59.09
X48.605Y-13.615
X48.605Y-29.615
X48.605Y-45.615
X48.605Y-61.615
X48.935Y-14.175
X48.935Y-30.175
X48.935Y-46.175
X48.935Y-62.175
X49.005Y-1.245
X49.005Y-4.29
X49.005Y-5.63
X49.005Y-7.61
X49.005Y-8.84
X49.005Y-10.36
X49.005Y-17.245
X49.005Y-20.29
X49.005Y-21.63
X49.005Y-23.61
X49.005Y-24.84
X49.005Y-26.36
X49.005Y-33.245
X49.005Y-36.29
X49.005Y-37.63
X49.005Y-39.61
X49.005Y-40.84
X49.005Y-42.36
X49.005Y-49.245
X49.005Y-52.29
X49.005Y-53.63
X49.005Y-55.61
X49.005Y-56.84
X49.005Y-58.36
X49.41Y-14.61
X49.41Y-30.61
X49.41Y-46.61
X49.41Y-62.61
X49.46Y-1.72
X49.46Y-17.72
X49.46Y-33.72
X49.46Y-49.72
X49.525Y-11.09
X49.525Y-27.09
X49.525Y-43.09
X49.525Y-59.09
X51.155Y-0.99
X51.155Y-16.99
X51.155Y-32.99
X51.155Y-48.99
X51.305Y-14.94
X51.305Y-30.94
X51.305Y-46.94
X51.305Y-62.94
X51.762Y-1.045
X51.762Y-17.045
X51.762Y-33.045
X51.762Y-49.045
X51.923Y-14.716
X51.923Y-30.716
X51.923Y-46.716
X51.923Y-62.716
X52.165Y-9.64
X52.165Y-25.64
X52.165Y-41.64
X52.165Y-57.64
X52.175Y-10.25
X52.175Y-26.25
X52.175Y-42.25
X52.175Y-58.25
X52.2Y-6.62
X52.2Y-22.62
X52.2Y-38.62
X52.2Y-54.62
X52.3Y-7.43
X52.3Y-23.43
X52.3Y-39.43
X52.3Y-55.43
X52.355Y-1.24
X52.355Y-17.24
X52.355Y-33.24
X52.355Y-49.24
X52.485Y-14.48
X52.485Y-30.48
X52.485Y-46.48
X52.485Y-62.48
X52.895Y-1.646
X52.895Y-17.646
X52.895Y-33.646
X52.895Y-49.646
X53.005Y-0.74
X53.005Y-16.74
X53.005Y-32.74
X53.005Y-48.74
X53.084Y-14.283
X53.084Y-30.283
X53.084Y-46.283
X53.084Y-62.283
X53.445Y-1.909
X53.445Y-17.909
X53.445Y-33.909
X53.445Y-49.909
X53.686Y-14.187
X53.686Y-30.187
X53.686Y-46.187
X53.686Y-62.187
X53.862Y-2.354
X53.862Y-18.354
X53.862Y-34.354
X53.862Y-50.354
X54.055Y-2.94
X54.055Y-18.94
X54.055Y-34.94
X54.055Y-50.94
X54.093Y-13.732
X54.093Y-29.732
X54.093Y-45.732
X54.093Y-61.732
X54.18Y-5.765
X54.18Y-21.765
X54.18Y-37.765
X54.18Y-53.765
X54.205Y-12.74
X54.205Y-28.74
X54.205Y-44.74
X54.205Y-60.74
X54.229Y-12.166
X54.229Y-28.166
X54.229Y-44.166
X54.229Y-60.166
X54.23Y-15.02
X54.23Y-31.02
X54.23Y-47.02
X54.23Y-63.02
X54.255Y-6.755
X54.255Y-22.755
X54.255Y-38.755
X54.255Y-54.755
X54.298Y-9.79
X54.298Y-25.79
X54.298Y-41.79
X54.298Y-57.79
X54.306Y-9.097
X54.306Y-25.097
X54.306Y-41.097
X54.306Y-57.097
X54.48Y-11.0
X54.48Y-27.0
X54.48Y-43.0
X54.48Y-59.0
X54.491Y-7.28
X54.491Y-23.28
X54.491Y-39.28
X54.491Y-55.28
X54.51Y-4.95
X54.51Y-20.95
X54.51Y-36.95
X54.51Y-52.95
X54.55Y-8.02
X54.55Y-24.02
X54.55Y-40.02
X54.55Y-56.02
X54.604Y-6.153
X54.604Y-22.153
X54.604Y-38.153
X54.604Y-54.153
X54.66Y-4.22
X54.66Y-20.22
X54.66Y-36.22
X54.66Y-52.22
X54.78Y-8.63
X54.78Y-24.63
X54.78Y-40.63
X54.78Y-56.63
X54.85Y-11.73
X54.85Y-27.73
X54.85Y-43.73
X54.85Y-59.73
X54.935Y-5.485
X54.935Y-21.485
X54.935Y-37.485
X54.935Y-53.485
X55.08Y-9.63
X55.08Y-25.63
X55.08Y-41.63
X55.08Y-57.63
X55.09Y-13.91
X55.09Y-29.91
X55.09Y-45.91
X55.09Y-61.91
X55.14Y-3.46
X55.14Y-19.46
X55.14Y-35.46
X55.14Y-51.46
X55.255Y-10.81
X55.255Y-26.81
X55.255Y-42.81
X55.255Y-58.81
X56.86Y-6.95
X56.86Y-8.38
X56.86Y-22.95
X56.86Y-24.38
X56.86Y-38.95
X56.86Y-40.38
X56.86Y-54.95
X56.86Y-56.38
X56.95Y-2.94
X56.95Y-18.94
X56.95Y-34.94
X56.95Y-50.94
X57.05Y-13.74
X57.05Y-29.74
X57.05Y-45.74
X57.05Y-61.74
X57.234Y-10.65
X57.234Y-26.65
X57.234Y-42.65
X57.234Y-58.65
X57.25Y-9.03
X57.25Y-25.03
X57.25Y-41.03
X57.25Y-57.03
X57.3Y-5.42
X57.3Y-21.42
X57.3Y-37.42
X57.3Y-53.42
X57.302Y-11.308
X57.302Y-27.308
X57.302Y-43.308
X57.302Y-59.308
X57.35Y-1.34
X57.35Y-4.01
X57.35Y-17.34
X57.35Y-20.01
X57.35Y-33.34
X57.35Y-36.01
X57.35Y-49.34
X57.35Y-52.01
X57.37Y-10.091
X57.37Y-26.091
X57.37Y-42.091
X57.37Y-58.091
X57.42Y-4.75
X57.42Y-20.75
X57.42Y-36.75
X57.42Y-52.75
X57.47Y-6.01
X57.47Y-22.01
X57.47Y-38.01
X57.47Y-54.01
X57.5Y-12.66
X57.5Y-28.66
X57.5Y-44.66
X57.5Y-60.66
X57.51Y-7.82
X57.51Y-23.82
X57.51Y-39.82
X57.51Y-55.82
X57.58Y-6.59
X57.58Y-9.52
X57.58Y-22.59
X57.58Y-25.52
X57.58Y-38.59
X57.58Y-41.52
X57.58Y-54.59
X57.58Y-57.52
X57.615Y-7.255
X57.615Y-23.255
X57.615Y-39.255
X57.615Y-55.255
X57.63Y-11.78
X57.63Y-27.78
X57.63Y-43.78
X57.63Y-59.78
X57.73Y-2.86
X57.73Y-18.86
X57.73Y-34.86
X57.73Y-50.86
X57.741Y-8.621
X57.741Y-24.621
X57.741Y-40.621
X57.741Y-56.621
X57.94Y-13.4
X57.94Y-29.4
X57.94Y-45.4
X57.94Y-61.4
X58.35Y-13.91
X58.35Y-29.91
X58.35Y-45.91
X58.35Y-61.91
X58.415Y-2.401
X58.415Y-18.401
X58.415Y-34.401
X58.415Y-50.401
X58.47Y-1.752
X58.47Y-17.752
X58.47Y-33.752
X58.47Y-49.752
X58.998Y-1.445
X58.998Y-17.445
X58.998Y-33.445
X58.998Y-49.445
X59.005Y-0.74
X59.005Y-16.74
X59.005Y-32.74
X59.005Y-48.74
X59.113Y-14.11
X59.113Y-30.11
X59.113Y-46.11
X59.113Y-62.11
X59.23Y-15.13
X59.23Y-31.13
X59.23Y-47.13
X59.23Y-63.13
X59.61Y-5.54
X59.61Y-8.22
X59.61Y-21.54
X59.61Y-24.22
X59.61Y-37.54
X59.61Y-40.22
X59.61Y-53.54
X59.61Y-56.22
X59.648Y-1.215
X59.648Y-17.215
X59.648Y-33.215
X59.648Y-49.215
X59.72Y-6.4
X59.72Y-22.4
X59.72Y-38.4
X59.72Y-54.4
X59.75Y-14.54
X59.75Y-30.54
X59.75Y-46.54
X59.75Y-62.54
X59.76Y-9.4
X59.76Y-25.4
X59.76Y-41.4
X59.76Y-57.4
X60.082Y-15.009
X60.082Y-31.009
X60.082Y-47.009
X60.082Y-63.009
X60.249Y-1.107
X60.249Y-17.107
X60.249Y-33.107
X60.249Y-49.107
X60.83Y-14.99
X60.83Y-30.99
X60.83Y-46.99
X60.83Y-62.99
X60.855Y-1.04
X60.855Y-17.04
X60.855Y-33.04
X60.855Y-49.04
X62.42Y-15.27
X62.42Y-31.27
X62.42Y-47.27
X62.42Y-63.27
X62.435Y-11.09
X62.435Y-27.09
X62.435Y-43.09
X62.435Y-59.09
X62.605Y-13.615
X62.605Y-29.615
X62.605Y-45.615
X62.605Y-61.615
X62.935Y-14.175
X62.935Y-30.175
X62.935Y-46.175
X62.935Y-62.175
X63.005Y-1.245
X63.005Y-4.29
X63.005Y-5.63
X63.005Y-7.61
X63.005Y-8.84
X63.005Y-10.36
X63.005Y-17.245
X63.005Y-20.29
X63.005Y-21.63
X63.005Y-23.61
X63.005Y-24.84
X63.005Y-26.36
X63.005Y-33.245
X63.005Y-36.29
X63.005Y-37.63
X63.005Y-39.61
X63.005Y-40.84
X63.005Y-42.36
X63.005Y-49.245
X63.005Y-52.29
X63.005Y-53.63
X63.005Y-55.61
X63.005Y-56.84
X63.005Y-58.36
X63.41Y-14.61
X63.41Y-30.61
X63.41Y-46.61
X63.41Y-62.61
X63.46Y-1.72
X63.46Y-17.72
X63.46Y-33.72
X63.46Y-49.72
X63.525Y-11.09
X63.525Y-27.09
X63.525Y-43.09
X63.525Y-59.09
X65.155Y-0.99
X65.155Y-16.99
X65.155Y-32.99
X65.155Y-48.99
X65.305Y-14.94
X65.305Y-30.94
X65.305Y-46.94
X65.305Y-62.94
X65.762Y-1.045
X65.762Y-17.045
X65.762Y-33.045
X65.762Y-49.045
X65.923Y-14.716
X65.923Y-30.716
X65.923Y-46.716
X65.923Y-62.716
X66.165Y-9.64
X66.165Y-25.64
X66.165Y-41.64
X66.165Y-57.64
X66.175Y-10.25
X66.175Y-26.25
X66.175Y-42.25
X66.175Y-58.25
X66.2Y-6.62
X66.2Y-22.62
X66.2Y-38.62
X66.2Y-54.62
X66.3Y-7.43
X66.3Y-23.43
X66.3Y-39.43
X66.3Y-55.43
X66.355Y-1.24
X66.355Y-17.24
X66.355Y-33.24
X66.355Y-49.24
X66.485Y-14.48
X66.485Y-30.48
X66.485Y-46.48
X66.485Y-62.48
X66.895Y-1.646
X66.895Y-17.646
X66.895Y-33.646
X66.895Y-49.646
X67.005Y-0.74
X67.005Y-16.74
X67.005Y-32.74
X67.005Y-48.74
X67.084Y-14.283
X67.084Y-30.283
X67.084Y-46.283
X67.084Y-62.283
X67.445Y-1.909
X67.445Y-17.909
X67.445Y-33.909
X67.445Y-49.909
X67.686Y-14.187
X67.686Y-30.187
X67.686Y-46.187
X67.686Y-62.187
X67.862Y-2.354
X67.862Y-18.354
X67.862Y-34.354
X67.862Y-50.354
X68.055Y-2.94
X68.055Y-18.94
X68.055Y-34.94
X68.055Y-50.94
X68.093Y-13.732
X68.093Y-29.732
X68.093Y-45.732
X68.093Y-61.732
X68.18Y-5.765
X68.18Y-21.765
X68.18Y-37.765
X68.18Y-53.765
X68.205Y-12.74
X68.205Y-28.74
X68.205Y-44.74
X68.205Y-60.74
X68.229Y-12.166
X68.229Y-28.166
X68.229Y-44.166
X68.229Y-60.166
X68.23Y-15.02
X68.23Y-31.02
X68.23Y-47.02
X68.23Y-63.02
X68.255Y-6.755
X68.255Y-22.755
X68.255Y-38.755
X68.255Y-54.755
X68.298Y-9.79
X68.298Y-25.79
X68.298Y-41.79
X68.298Y-57.79
X68.306Y-9.097
X68.306Y-25.097
X68.306Y-41.097
X68.306Y-57.097
X68.48Y-11.0
X68.48Y-27.0
X68.48Y-43.0
X68.48Y-59.0
X68.491Y-7.28
X68.491Y-23.28
X68.491Y-39.28
X68.491Y-55.28
X68.51Y-4.95
X68.51Y-20.95
X68.51Y-36.95
X68.51Y-52.95
X68.55Y-8.02
X68.55Y-24.02
X68.55Y-40.02
X68.55Y-56.02
X68.604Y-6.153
X68.604Y-22.153
X68.604Y-38.153
X68.604Y-54.153
X68.66Y-4.22
X68.66Y-20.22
X68.66Y-36.22
X68.66Y-52.22
X68.78Y-8.63
X68.78Y-24.63
X68.78Y-40.63
X68.78Y-56.63
X68.85Y-11.73
X68.85Y-27.73
X68.85Y-43.73
X68.85Y-59.73
X68.935Y-5.485
X68.935Y-21.485
X68.935Y-37.485
X68.935Y-53.485
X69.08Y-9.63
X69.08Y-25.63
X69.08Y-41.63
X69.08Y-57.63
X69.09Y-13.91
X69.09Y-29.91
X69.09Y-45.91
X69.09Y-61.91
X69.14Y-3.46
X69.14Y-19.46
X69.14Y-35.46
X69.14Y-51.46
X69.255Y-10.81
X69.255Y-26.81
X69.255Y-42.81
X69.255Y-58.81
T2
X4.505Y-4.925
X4.505Y-8.025
X4.505Y-11.125
X4.505Y-20.925
X4.505Y-24.025
X4.505Y-27.125
X4.505Y-36.925
X4.505Y-40.025
X4.505Y-43.125
X4.505Y-52.925
X4.505Y-56.025
X4.505Y-59.125
X9.505Y-4.925
X9.505Y-8.025
X9.505Y-11.125
X9.505Y-20.925
X9.505Y-24.025
X9.505Y-27.125
X9.505Y-36.925
X9.505Y-40.025
X9.505Y-43.125
X9.505Y-52.925
X9.505Y-56.025
X9.505Y-59.125
X18.505Y-4.925
X18.505Y-8.025
X18.505Y-11.125
X18.505Y-20.925
X18.505Y-24.025
X18.505Y-27.125
X18.505Y-36.925
X18.505Y-40.025
X18.505Y-43.125
X18.505Y-52.925
X18.505Y-56.025
X18.505Y-59.125
X23.505Y-4.925
X23.505Y-8.025
X23.505Y-11.125
X23.505Y-20.925
X23.505Y-24.025
X23.505Y-27.125
X23.505Y-36.925
X23.505Y-40.025
X23.505Y-43.125
X23.505Y-52.925
X23.505Y-56.025
X23.505Y-59.125
X32.505Y-4.925
X32.505Y-8.025
X32.505Y-11.125
X32.505Y-20.925
X32.505Y-24.025
X32.505Y-27.125
X32.505Y-36.925
X32.505Y-40.025
X32.505Y-43.125
X32.505Y-52.925
X32.505Y-56.025
X32.505Y-59.125
X37.505Y-4.925
X37.505Y-8.025
X37.505Y-11.125
X37.505Y-20.925
X37.505Y-24.025
X37.505Y-27.125
X37.505Y-36.925
X37.505Y-40.025
X37.505Y-43.125
X37.505Y-52.925
X37.505Y-56.025
X37.505Y-59.125
X46.505Y-4.925
X46.505Y-8.025
X46.505Y-11.125
X46.505Y-20.925
X46.505Y-24.025
X46.505Y-27.125
X46.505Y-36.925
X46.505Y-40.025
X46.505Y-43.125
X46.505Y-52.925
X46.505Y-56.025
X46.505Y-59.125
X51.505Y-4.925
X51.505Y-8.025
X51.505Y-11.125
X51.505Y-20.925
X51.505Y-24.025
X51.505Y-27.125
X51.505Y-36.925
X51.505Y-40.025
X51.505Y-43.125
X51.505Y-52.925
X51.505Y-56.025
X51.505Y-59.125
X60.505Y-4.925
X60.505Y-8.025
X60.505Y-11.125
X60.505Y-20.925
X60.505Y-24.025
X60.505Y-27.125
X60.505Y-36.925
X60.505Y-40.025
X60.505Y-43.125
X60.505Y-52.925
X60.505Y-56.025
X60.505Y-59.125
X65.505Y-4.925
X65.505Y-8.025
X65.505Y-11.125
X65.505Y-20.925
X65.505Y-24.025
X65.505Y-27.125
X65.505Y-36.925
X65.505Y-40.025
X65.505Y-43.125
X65.505Y-52.925
X65.505Y-56.025
X65.505Y-59.125
M30
